<?xml version="1.0" encoding="UTF-8"?>
<svg width="76px" height="77px" viewBox="0 0 76 77" version="1.1" xmlns="http://www.w3.org/2000/svg" xmlns:xlink="http://www.w3.org/1999/xlink">
    <!-- Generator: sketchtool 49.3 (51167) - http://www.bohemiancoding.com/sketch -->
    <title>39EFB061-3C7F-4172-96A2-EFF1831B731D</title>
    <desc>Created with sketchtool.</desc>
    <defs></defs>
    <g id="agency-rating" stroke="none" stroke-width="1" fill="none" fill-rule="evenodd" opacity="0.5">
        <g id="calltouch_awards_mainpage" transform="translate(-321.000000, -5240.000000)" fill="#1F282C">
            <g id="reasons" transform="translate(0.000000, 5036.000000)">
                <g id="Group" transform="translate(121.000000, 202.000000)">
                    <g id="ad_automation_icon" transform="translate(200.000000, 2.000000)">
                        <polygon id="Fill-1" points="36.6006349 6.015625 39.0133333 6.015625 39.0133333 3.609375 36.6006349 3.609375"></polygon>
                        <polygon id="Fill-2" points="36.6006349 73.390625 39.0133333 73.390625 39.0133333 70.984375 36.6006349 70.984375"></polygon>
                        <polygon id="Fill-3" points="19.6379175 11.5124625 18.2192508 9.56580625 16.2685841 10.9794781 17.6872508 12.9261344"></polygon>
                        <polygon id="Fill-4" points="55.9756889 65.4874172 57.3943556 67.4340734 59.3462286 66.0204016 57.9275619 64.0737453"></polygon>
                        <polygon id="Fill-5" points="4.16274921 28.8626078 6.4572254 29.6061391 7.20395556 27.3177953 4.90827302 26.5742641"></polygon>
                        <polygon id="Fill-6" points="68.4114603 49.682325 70.7059365 50.4258562 71.4526667 48.1375125 69.1569841 47.3939812"></polygon>
                        <polygon id="Fill-7" points="4.16274921 48.1372719 4.90827302 50.4256156 7.20395556 49.6820844 6.4572254 47.3937406"></polygon>
                        <polygon id="Fill-8" points="71.4520635 28.8626078 70.7065397 26.5742641 68.4108571 27.3177953 69.1575873 29.6061391"></polygon>
                        <polygon id="Fill-9" points="16.2685841 66.0208828 18.2192508 67.4345547 19.6379175 65.4878984 17.6872508 64.0742266"></polygon>
                        <polygon id="Fill-10" points="59.3461079 10.9795984 57.3942349 9.56592656 55.9755683 11.5125828 57.9274413 12.9262547"></polygon>
                        <path d="M71.2788317,52.5620047 C71.0001651,53.4210359 69.9795937,52.7208172 64.6028952,50.9786922 C62.3035937,55.4603328 60.8246095,57.2289266 57.9872762,60.0598797 C61.3059429,64.6173172 62.2939429,65.3728797 61.5592762,65.9034578 C57.1259429,69.1158016 56.3574984,70.1071766 55.8254984,69.3768797 L52.1292444,64.3020984 C47.6802286,66.5651766 45.4171175,67.1450828 41.4265143,67.7743172 C41.4265143,73.4169734 41.7775619,74.5936297 40.8740063,74.5936297 C35.3995937,74.5936297 34.188419,74.9449422 34.188419,74.0425984 L34.188419,67.7743172 C29.1796571,66.9850672 27.016673,66.0983641 23.4856889,64.3020984 C20.1646095,68.8595359 19.7460063,70.0325828 19.0161651,69.4971922 C14.5888635,66.2896609 13.4006095,65.8637547 13.9314032,65.1334578 L17.6264508,60.0598797 C14.1195937,56.5623953 12.8625778,54.5856609 11.0120381,50.9786922 C5.63413333,52.7208172 4.6159746,53.4210359 4.33610159,52.5620047 C2.6423873,47.3645047 1.93546667,46.3298172 2.7943873,46.0506922 L8.77184762,44.1136609 C7.98651429,39.1158797 8.17108571,36.7144422 8.77184762,32.8860984 C3.3975619,31.1439734 2.16226032,31.1126922 2.44092698,30.2548641 C4.13102222,25.0669891 4.17324444,23.8025047 5.03337143,24.0840359 L11.0120381,26.0222703 C13.3414984,21.4816766 14.8482286,19.7106766 17.6264508,16.9398797 C14.3065778,12.3812391 13.3221968,11.6280828 14.0544508,11.0975047 C18.4817524,7.88877031 19.2574349,6.89378594 19.7882286,7.62408281 L23.4856889,12.6988641 C26.9298159,10.9459109 29.144673,10.0207078 34.188419,9.22664531 C34.188419,3.58278594 33.8373714,2.40612969 34.740927,2.40612969 C40.2153397,2.40612969 41.4265143,2.05481719 41.4265143,2.95836406 L41.4265143,9.22664531 C46.4352762,10.0146922 48.5982603,10.9013953 52.1292444,12.6988641 C55.4515302,8.13902031 55.8677206,6.96958281 56.5987683,7.50136406 C61.0357206,10.7173172 62.2107048,11.1372078 61.6835302,11.8663016 L57.9872762,16.9398797 C61.2299429,20.1738797 62.5714032,22.0615828 64.6028952,26.0222703 C69.9747683,24.2813484 71.0025778,23.5787234 71.2788317,24.4389578 C72.9677206,29.6220203 73.680673,30.6687391 72.8193397,30.9490672 L66.8430857,32.8860984 C67.5644825,37.4820359 67.5222603,39.7920359 66.8430857,44.1136609 L72.8181333,46.0506922 C73.6794667,46.3298172 72.972546,47.3633016 71.2788317,52.5620047 M73.5660698,43.7623484 L69.5296254,42.4545516 C69.8577524,39.8221141 69.8577524,37.1776453 69.5296254,34.5452078 L73.5660698,33.2374109 C75.1198476,32.7345047 75.9739429,31.0621609 75.4696889,29.5113328 L73.5733079,23.6942234 C73.0666413,22.1421922 71.3849905,21.2915828 69.8372444,21.7956922 L65.7983873,23.1046922 C64.512419,20.7790516 62.9501968,18.6326766 61.140673,16.7052703 L63.6354032,13.2811766 C64.5956571,11.9613484 64.3001016,10.1085359 62.9779429,9.14964531 L58.0174349,5.55470781 C56.6940698,4.59822344 54.8362921,4.89058281 53.8748317,6.20920781 L51.3788952,9.63450469 C48.9698159,8.50477031 46.4401016,7.68423906 43.8392127,7.18734844 L43.8392127,2.95836406 C43.8392127,1.32692656 42.5086095,-0.0001203125 40.8740063,-0.0001203125 L34.740927,-0.0001203125 C33.1051175,-0.0001203125 31.7757206,1.32692656 31.7757206,2.95836406 L31.7757206,7.18734844 C29.1748317,7.68423906 26.6451175,8.50477031 24.2360381,9.63450469 L21.7401016,6.20920781 C20.7786413,4.89058281 18.9208635,4.59702031 17.5974984,5.55470781 L12.6381968,9.14964531 C11.3100063,10.1097391 11.0168635,11.9565359 11.9807365,13.2811766 L14.4742603,16.7052703 C12.6647365,18.6326766 11.1025143,20.7790516 9.81654603,23.1046922 L5.77768889,21.7956922 C4.22994286,21.2915828 2.54708571,22.1421922 2.04041905,23.6942234 L0.145244444,29.5113328 C-0.360215873,31.0609578 0.493879365,32.7333016 2.05006984,33.2374109 L6.08530794,34.5452078 C5.75718095,37.1776453 5.75718095,39.8221141 6.08530794,42.4545516 L2.04886349,43.7623484 C0.493879365,44.2664578 -0.360215873,45.9388016 0.145244444,47.4884266 L2.04041905,53.3055359 C2.54708571,54.8575672 4.23114921,55.7057703 5.77768889,55.2040672 L9.81654603,53.8950672 C11.1025143,56.2207078 12.6647365,58.3658797 14.4742603,60.2944891 L11.9795302,63.7185828 C11.0168635,65.0432234 11.3100063,66.8900203 12.6369905,67.8501141 L17.5974984,71.4450516 C18.9220698,72.4027391 20.7786413,72.1091766 21.7401016,70.7905516 L24.2360381,67.3652547 C26.6451175,68.4949891 29.1748317,69.3167234 31.7757206,69.8124109 L31.7757206,74.0425984 C31.7757206,75.6728328 33.1051175,76.9998797 34.740927,76.9998797 L40.8740063,76.9998797 C42.5086095,76.9998797 43.8392127,75.6728328 43.8392127,74.0425984 L43.8392127,69.8124109 C46.4401016,69.3167234 48.9698159,68.4949891 51.3788952,67.3652547 L53.8748317,70.7905516 C54.8362921,72.1091766 56.6940698,72.4015359 58.0174349,71.4450516 L62.9779429,67.8501141 C64.3001016,66.8912234 64.5956571,65.0384109 63.6341968,63.7185828 L61.140673,60.2944891 C62.9501968,58.3670828 64.512419,56.2219109 65.7983873,53.8950672 L69.8372444,55.2040672 C71.3849905,55.7045672 73.0666413,54.8575672 73.5733079,53.3055359 L75.4696889,47.4872234 C75.9727365,45.9375984 75.1186413,44.2652547 73.5660698,43.7623484" id="Fill-11"></path>
                        <path d="M37.807346,60.1567312 C25.8343302,60.1567312 16.0930603,50.4414969 16.0930603,38.5004812 C16.0930603,26.5582625 25.8343302,16.8442312 37.807346,16.8442312 C49.7803619,16.8442312 59.5216317,26.5582625 59.5216317,38.5004812 C59.5216317,50.4414969 49.7803619,60.1567312 37.807346,60.1567312 M37.807346,14.4379812 C24.503727,14.4379812 13.6803619,25.2324187 13.6803619,38.5004812 C13.6803619,51.7673406 24.503727,62.5629812 37.807346,62.5629812 C51.1109651,62.5629812 61.9343302,51.7673406 61.9343302,38.5004812 C61.9343302,25.2324187 51.1109651,14.4379812 37.807346,14.4379812" id="Fill-14"></path>
                        <path d="M37.807346,63.7661063 C23.8390286,63.7661063 12.4740127,52.4314656 12.4740127,38.5004813 C12.4740127,24.5682938 23.8390286,13.2348562 37.807346,13.2348562 C51.7756635,13.2348562 63.1406794,24.5682938 63.1406794,38.5004813 C63.1406794,52.4314656 51.7756635,63.7661063 37.807346,63.7661063 M37.807346,10.8286062 C22.507219,10.8286062 10.0613143,23.2412469 10.0613143,38.5004813 C10.0613143,53.7585125 22.507219,66.1723563 37.807346,66.1723563 C53.107473,66.1723563 65.5533778,53.7585125 65.5533778,38.5004813 C65.5533778,23.2412469 53.107473,10.8286062 37.807346,10.8286062" id="Fill-16"></path>
                        <path d="M52.2835365,45.4543031 L42.6327429,43.5293031 L42.6327429,33.4711781 L52.2835365,31.544975 L52.2835365,45.4543031 Z M36.027981,45.7189906 C29.0625206,45.7189906 29.3629016,46.3349906 29.3629016,43.3368031 L37.0425206,44.8683812 C36.9460127,45.3496312 36.5382667,45.7189906 36.027981,45.7189906 Z M24.5375048,39.9199281 L24.5375048,37.0805531 L40.2200444,33.951225 L40.2200444,43.0480531 L24.5375048,39.9199281 Z M20.9184571,40.3049281 L20.9184571,36.6955531 C20.9184571,35.9002875 22.1248063,35.9002875 22.1248063,36.6955531 L22.1248063,40.3049281 C22.1248063,41.1001937 20.9184571,41.1001937 20.9184571,40.3049281 Z M18.5057587,36.6955531 L18.5057587,40.3049281 C18.5057587,43.0745219 21.9872825,44.4003656 23.8185206,42.2299281 L26.9502032,42.85435 L26.9502032,44.6662562 C26.9502032,46.5732094 28.5051873,48.1252406 30.4172508,48.1252406 L36.027981,48.1252406 C37.7084254,48.1252406 39.1114095,46.9269281 39.4286794,45.3436156 L54.6962349,48.3899281 L54.6962349,28.6105531 L23.8185206,34.76935 C21.9896952,32.6013187 18.5057587,33.9235531 18.5057587,36.6955531 Z" id="Fill-18"></path>
                        <polygon id="Fill-20" points="36.6006349 39.703125 39.0133333 39.703125 39.0133333 37.296875 36.6006349 37.296875"></polygon>
                        <polygon id="Fill-22" points="31.7752381 39.703125 34.1879365 39.703125 34.1879365 37.296875 31.7752381 37.296875"></polygon>
                    </g>
                </g>
            </g>
        </g>
    </g>
</svg>