<?xml version="1.0" encoding="UTF-8"?>
<svg width="77px" height="78px" viewBox="0 0 77 78" version="1.1" xmlns="http://www.w3.org/2000/svg" xmlns:xlink="http://www.w3.org/1999/xlink">
    <!-- Generator: sketchtool 49.3 (51167) - http://www.bohemiancoding.com/sketch -->
    <title>BEF23E5A-681B-45AB-BBEC-94B55E78B2CB</title>
    <desc>Created with sketchtool.</desc>
    <defs></defs>
    <g id="agency-rating" stroke="none" stroke-width="1" fill="none" fill-rule="evenodd" opacity="0.5">
        <g id="calltouch_awards_mainpage" transform="translate(-522.000000, -5240.000000)" fill="#1F282C">
            <g id="reasons" transform="translate(0.000000, 5036.000000)">
                <g id="Group" transform="translate(121.000000, 202.000000)">
                    <g id="agreement_icon" transform="translate(401.000000, 2.000000)">
                        <path d="M74.59375,21.7118227 L60.15625,21.7118227 L60.15625,9.64996701 C60.15625,5.65869897 63.3938594,2.41285361 67.375,2.41285361 C71.3561406,2.41285361 74.59375,5.65869897 74.59375,9.64996701 L74.59375,21.7118227 Z M57.75,9.64996701 L57.75,67.5468742 C57.75,71.5381423 54.5123906,74.7839876 50.53125,74.7839876 C46.5501094,74.7839876 43.3125,71.5381423 43.3125,67.5468742 C43.3125,63.5556062 46.5501094,60.3097608 50.53125,60.3097608 L50.53125,57.8973897 L19.25,57.8973897 L19.25,9.64996701 C19.25,5.65869897 22.4876094,2.41285361 26.46875,2.41285361 L61.0309219,2.41285361 C59.0253125,4.18232784 57.75,6.76597732 57.75,9.64996701 Z M9.625,74.7839876 C5.64385937,74.7839876 2.40625,71.5381423 2.40625,67.5468742 C2.40625,63.5556062 5.64385937,60.3097608 9.625,60.3097608 L44.1715312,60.3097608 C42.1707344,62.0792351 40.90625,64.6677093 40.90625,67.5468742 C40.90625,70.4260392 42.1707344,73.0145134 44.1715312,74.7839876 L9.625,74.7839876 Z M67.375,0.000482474227 L26.46875,0.000482474227 C21.1617656,0.000482474227 16.84375,4.32948247 16.84375,9.64996701 L16.84375,57.8973897 L9.625,57.8973897 C4.31801562,57.8973897 0,62.2263897 0,67.5468742 C0,72.8673588 4.31801562,77.1963588 9.625,77.1963588 L50.53125,77.1963588 C55.8382344,77.1963588 60.15625,72.8673588 60.15625,67.5468742 L60.15625,24.1241938 L77,24.1241938 L77,9.64996701 C77,4.32948247 72.6819844,0.000482474227 67.375,0.000482474227 Z" id="Fill-1"></path>
                        <path d="M36.09375,19.2994515 C36.09375,17.9690289 37.1729531,16.8870804 38.5,16.8870804 C39.8270469,16.8870804 40.90625,17.9690289 40.90625,19.2994515 C40.90625,20.6298742 39.8270469,21.7118227 38.5,21.7118227 C37.1729531,21.7118227 36.09375,20.6298742 36.09375,19.2994515 M38.5,30.1551216 L38.5,27.7427505 C33.8571406,27.7427505 30.078125,23.9541216 30.078125,19.2994515 C30.078125,14.6447814 33.8571406,10.8561526 38.5,10.8561526 C43.1428594,10.8561526 46.921875,14.6447814 46.921875,19.2994515 C46.921875,21.1473278 46.3335469,22.9047402 45.2459219,24.3569876 L42.6315312,21.7347402 C43.052625,21.0170598 43.3125,20.1908227 43.3125,19.2994515 C43.3125,16.6374 41.1540938,14.4747093 38.5,14.4747093 C35.8459062,14.4747093 33.6875,16.6374 33.6875,19.2994515 C33.6875,21.9602969 35.8459062,24.1241938 38.5,24.1241938 C39.3891094,24.1241938 40.2144531,23.8636577 40.9303125,23.4402866 L45.3060781,27.8283897 L46.1566875,26.9756165 C48.202,24.9238948 49.328125,22.1979155 49.328125,19.2994515 C49.328125,13.3131526 44.4711094,8.44378144 38.5,8.44378144 C32.5288906,8.44378144 27.671875,13.3131526 27.671875,19.2994515 C27.671875,25.2857505 32.5288906,30.1551216 38.5,30.1551216" id="Fill-4"></path>
                        <polygon id="Fill-6" points="21.65625 37.3917526 55.34375 37.3917526 55.34375 34.9793814 21.65625 34.9793814"></polygon>
                        <polygon id="Fill-8" points="21.65625 42.2164948 55.34375 42.2164948 55.34375 39.8041237 21.65625 39.8041237"></polygon>
                        <polygon id="Fill-9" points="21.65625 47.0412371 55.34375 47.0412371 55.34375 44.628866 21.65625 44.628866"></polygon>
                        <polygon id="Fill-10" points="21.65625 51.8659794 33.6875 51.8659794 33.6875 49.4536082 21.65625 49.4536082"></polygon>
                        <polygon id="Fill-11" points="36.09375 51.8659794 38.5 51.8659794 38.5 49.4536082 36.09375 49.4536082"></polygon>
                        <polygon id="Fill-12" points="40.90625 51.8659794 43.3125 51.8659794 43.3125 49.4536082 40.90625 49.4536082"></polygon>
                        <polygon id="Fill-13" points="45.71875 51.8659794 48.125 51.8659794 48.125 49.4536082 45.71875 49.4536082"></polygon>
                    </g>
                </g>
            </g>
        </g>
    </g>
</svg>