<?xml version="1.0" encoding="UTF-8"?>
<svg width="96px" height="77px" viewBox="0 0 96 77" version="1.1" xmlns="http://www.w3.org/2000/svg" xmlns:xlink="http://www.w3.org/1999/xlink">
    <!-- Generator: sketchtool 49.2 (51160) - http://www.bohemiancoding.com/sketch -->
    <title>2BD21AC1-11BB-439E-9AA4-E6395C54977D</title>
    <desc>Created with sketchtool.</desc>
    <defs></defs>
    <g id="agency-rating" stroke="none" stroke-width="1" fill="none" fill-rule="evenodd">
        <g id="calltouch_awards_mainpage" transform="translate(-161.000000, -1410.000000)" fill="#F2C400" fill-rule="nonzero">
            <g id="autoretail" transform="translate(0.000000, 1165.000000)">
                <g id="auto" transform="translate(161.000000, 245.000000)">
                    <path d="M31.6979432,0.12366762 C31.9144765,0.155411086 32.1107432,0.189270783 32.2856766,0.222072364 C32.9907433,0.35116246 33.3779434,0.466497053 33.3779434,0.466497053 C29.6499429,7.76008743 22.446742,12.408389 15.4195411,15.5171324 C15.4195411,15.5171324 15.4067411,15.4144952 15.3918078,15.2240344 C15.3758078,15.0325155 15.3566078,14.7510568 15.3662078,14.4008205 C15.3715411,14.0484681 15.3886078,13.617815 15.4302078,13.1194426 C15.4472745,12.8676111 15.4878078,12.610489 15.5315412,12.3343209 C15.5763412,12.0592109 15.6286078,11.7682291 15.6904745,11.4645499 C15.7235412,11.3121813 15.7566079,11.1576964 15.7907412,10.9989791 C15.8302079,10.842378 15.8760745,10.6857769 15.9230079,10.5249433 C16.0179412,10.2032762 16.1235412,9.86996981 16.2408746,9.52819849 C16.3528746,9.1811366 16.5032746,8.84465586 16.659008,8.49441962 C16.8168747,8.14629961 16.985408,7.78759844 17.174208,7.4310135 C17.3736747,7.08183538 17.5880747,6.72842479 17.8174081,6.37395608 C17.9326081,6.19830891 18.0478081,6.01737115 18.1747415,5.8438402 C18.3038082,5.67242548 18.4371415,5.50101077 18.5747415,5.33065417 C18.7123416,5.16029757 18.8531416,4.98994096 18.9982083,4.82064248 C19.1454083,4.65240211 19.2883416,4.47887116 19.4515416,4.32227006 C19.7715417,4.00271917 20.1064751,3.68845886 20.4563418,3.38160535 C20.6280751,3.22500425 20.8126085,3.085333 20.9982085,2.9488361 C21.1838085,2.81128108 21.3694085,2.67795852 21.5560752,2.54886843 C21.7427419,2.41872021 21.9294086,2.29386258 22.117142,2.1721793 C22.3070087,2.05261224 22.504342,1.9478588 22.6974087,1.84098913 C23.0856754,1.63042414 23.4728755,1.43467277 23.8568755,1.25479313 C24.2526089,1.09184333 24.6440756,0.942649044 25.0280757,0.807210255 C25.2200757,0.739490861 25.4099424,0.676003929 25.5987424,0.614633228 C25.7907424,0.55961122 25.9827425,0.511996021 26.1715425,0.465438937 C26.5491425,0.373382886 26.9182092,0.292966105 27.2744759,0.22313048 C27.4515426,0.185038321 27.6307427,0.161759779 27.8078093,0.140597468 C27.984876,0.118377042 28.1576761,0.0993309622 28.3272761,0.0824011137 C28.6664761,0.0485414165 28.9918095,0.0242047592 29.3022095,0.00621679515 C29.9304763,-0.0107130534 30.504343,0.0167979505 31.0014097,0.0485414165 C31.1251431,0.0591225719 31.2446098,0.0675874962 31.3608765,0.077110536 C31.4771431,0.0908660379 31.5902098,0.107795887 31.6979432,0.12366762 Z M4.46273979,23.9873473 C4.3016731,23.279468 4.18647309,22.5133923 4.10433974,21.6870041 C4.07127307,21.2753972 4.06273974,20.8553253 4.06060641,20.4193817 C4.06060641,20.2014099 4.06380641,19.9802637 4.07020641,19.7570014 C4.07660641,19.5326809 4.08513974,19.305186 4.11073975,19.0798074 C4.20460642,18.1751186 4.33580644,17.2154079 4.61633981,16.2567552 C4.68247315,16.0155048 4.75287316,15.7753126 4.82753983,15.5372366 C4.90113984,15.2981025 4.97793985,15.0610846 5.07180653,14.8314736 C5.25207322,14.3690771 5.44620658,13.9140874 5.65313994,13.4675626 C5.70540661,13.3564605 5.75660662,13.2453584 5.80887329,13.1353144 C5.8664733,13.0273866 5.9240733,12.9194588 5.98060664,12.8125891 C6.09580666,12.5988498 6.21420667,12.3872267 6.33367335,12.1787779 C6.57794005,11.7629385 6.81154008,11.3492153 7.08674011,10.9682937 C7.35447348,10.5831397 7.62647351,10.210683 7.90060688,9.85198185 C7.96994022,9.76204203 8.0382069,9.67316032 8.10647357,9.58533673 C8.17900692,9.49962937 8.25154026,9.41498013 8.32300693,9.33033089 C8.46700695,9.16209052 8.61207364,8.99808261 8.75607365,8.83724905 C9.04514036,8.51664004 9.32674039,8.20661219 9.61580709,7.91986288 C9.91020713,7.63734603 10.2003405,7.3696428 10.4819405,7.11781131 C10.6227406,6.99295367 10.7624739,6.87127039 10.8979406,6.75170333 C10.9662073,6.69244886 11.0334073,6.63425251 11.1006073,6.57711427 C11.1699406,6.52209226 11.239274,6.46812837 11.3075406,6.41416447 C11.581674,6.20148325 11.844074,6.00467376 12.0936741,5.82267789 C12.3432741,5.64068202 12.5790075,5.47455788 12.7976742,5.32430547 C13.0238075,5.17828553 13.2350075,5.05025355 13.4259409,4.93597707 C14.190741,4.47887116 14.6462077,4.25349255 14.6462077,4.25349255 C14.6462077,4.25349255 14.6238077,4.69790108 14.5384744,5.45233745 C14.4968744,5.8300847 14.4392744,6.28295815 14.3656743,6.79402795 C14.302741,7.31462079 14.2280743,7.89764245 14.1320743,8.51981439 C14.0286076,9.13563763 13.9400743,9.82023838 13.8206076,10.5228271 C13.7640743,10.8762377 13.6894076,11.2264739 13.6307409,11.5989306 C13.5699409,11.969271 13.5027409,12.344902 13.4270076,12.7226493 C13.3886076,12.9099357 13.3491409,13.0993384 13.3086076,13.2908573 C13.2659409,13.48026 13.2350075,13.6791857 13.1934075,13.873879 C13.1144742,14.2643236 13.0270075,14.6568845 12.9278075,15.0494454 C12.8755408,15.2441386 12.8296742,15.4441224 12.7838075,15.6462225 C12.7358075,15.8472645 12.6856741,16.0472483 12.6323408,16.2482903 C12.5299408,16.6514323 12.3976741,17.0450513 12.2878074,17.4577163 C12.1704741,17.867207 12.0424741,18.2650585 11.9038074,18.6523288 C11.7683407,19.0417153 11.645674,19.433218 11.501674,19.8077909 C11.431274,19.9961355 11.3587406,20.1823638 11.284074,20.3654178 C11.2083406,20.5484718 11.1464739,20.7368164 11.0739406,20.9177541 C10.9331406,21.2817459 10.7848739,21.6372727 10.6312739,21.9822183 C10.4819405,22.3292802 10.3454072,22.675284 10.1950072,23.0064742 C10.0510071,23.3397806 9.88460713,23.6572152 9.75127378,23.9778242 C9.61047376,24.296317 9.46754041,24.6031705 9.32247372,24.8994429 C9.24887371,25.047579 9.17634037,25.1925409 9.1048737,25.3353865 C9.03767369,25.4803483 8.97260701,25.6221358 8.90754034,25.7607489 C8.77527366,26.0379752 8.64407364,26.3035622 8.51500696,26.5553937 C8.44887362,26.6813094 8.38487361,26.8040508 8.32300693,26.9236179 C8.26114026,27.0431849 8.20674025,27.1616939 8.15020691,27.2749122 C7.92620688,27.7299019 7.71607352,28.1266953 7.53580684,28.453653 C7.44300682,28.6166027 7.36834015,28.7647389 7.30114014,28.8927709 C7.23287346,29.0208029 7.17420679,29.1297888 7.12620679,29.2186705 C7.02594011,29.3953758 6.97260677,29.4906062 6.97260677,29.4906062 C6.97260677,29.4906062 6.7176734,29.1752877 6.33580669,28.57322 C6.14167333,28.2716571 5.94327331,27.9023748 5.71927328,27.4590243 C5.50060658,27.0177902 5.25847322,26.5024879 5.04407319,25.9226406 C4.83713984,25.3449095 4.63767314,24.6984009 4.46273979,23.9873473 Z M4.56087313,45.7982828 C4.17687309,45.4279424 3.77260637,45.003638 3.36407299,44.5221955 C3.15393963,44.2820032 2.9683396,44.023823 2.77207291,43.7540036 C2.57793956,43.483126 2.38593953,43.1984929 2.19607284,42.8990462 C1.80567279,42.301211 1.48140609,41.6409469 1.16780605,40.9267189 C0.845672674,40.2146071 0.609939312,39.4421828 0.406205953,38.6221432 C0.356072614,38.4179269 0.309139275,38.2115944 0.265405936,38.00632 C0.229139265,37.7999875 0.197139261,37.5936549 0.168339257,37.3873224 C0.11073925,36.9757155 0.0659392444,36.5630504 0.0328725737,36.1535597 C-0.00766076469,35.744069 -0.000194097103,35.3377526 0.00193923649,34.9356687 C0.00620590369,34.5335848 0.0211392389,34.1378496 0.0435392416,33.7484631 C0.10753925,32.9718063 0.223805931,32.2237186 0.349672613,31.5211299 C0.501139298,30.8195993 0.67713932,30.1635677 0.854206009,29.5646743 C1.03980603,28.966839 1.25420606,28.4282582 1.44300608,27.9552805 C1.54007276,27.7193208 1.62967277,27.4992327 1.72247278,27.2981908 C1.81953946,27.0971488 1.91020614,26.9140948 1.99447282,26.7500869 C2.33047286,26.0929972 2.55233955,25.7311217 2.55233955,25.7311217 C2.55233955,25.7311217 2.75287291,26.0538469 3.05473961,26.6262874 C3.2062063,26.9119786 3.38327299,27.2600986 3.57420635,27.6579501 C3.77047304,28.0568596 3.99767306,28.5097331 4.22060643,29.0017568 C4.65580648,29.9847461 5.17100654,31.1380921 5.6158066,32.3887846 C5.85900663,33.0173053 6.06593999,33.6691044 6.26967335,34.3452402 C6.37740669,34.6838372 6.4766067,35.0277248 6.56620672,35.3769029 C6.65687339,35.7271391 6.72834007,36.0816078 6.81900675,36.4424252 C6.90220676,36.8032426 6.97260677,37.1619438 7.03127344,37.5164125 C7.05794011,37.6941759 7.08567345,37.8708812 7.11234012,38.0465284 C7.14327345,38.2221756 7.17100679,38.3967646 7.19660679,38.5702956 C7.2478068,38.9184156 7.28834014,39.2623031 7.31820681,39.6019582 C7.32567348,39.6866075 7.33207348,39.7712567 7.33954014,39.855906 C7.34807348,39.9405552 7.35767348,40.0241463 7.36727348,40.1077375 C7.38540682,40.2749197 7.40034015,40.4399857 7.41420682,40.6050518 C7.44194016,40.9341257 7.46007349,41.257909 7.47180683,41.5764018 C7.47500683,41.7351191 7.48674016,41.8917202 7.49634016,42.0472632 C7.50380683,42.2028062 7.5112735,42.356233 7.51874017,42.5075435 C7.5464735,43.1138437 7.52834017,43.6947491 7.54540684,44.2290975 C7.55074017,44.765562 7.53900684,45.2618182 7.5176735,45.7062267 C7.5144735,46.1474609 7.5016735,46.5357893 7.48460683,46.8595727 C7.46754016,47.1822979 7.44727349,47.43942 7.43127349,47.6161253 C7.41314015,47.7928306 7.40780682,47.8870029 7.40780682,47.8870029 C7.40780682,47.8870029 7.32460681,47.8478526 7.18167346,47.7663777 C7.03980677,47.6849028 6.83287342,47.5611033 6.57580672,47.3928629 C6.31874002,47.2246225 6.01153998,47.0098251 5.66807327,46.7463543 C5.32460656,46.4818254 4.93847318,46.1696814 4.56087313,45.7982828 Z M11.9806074,61.2055031 C11.652074,61.103924 11.2691406,60.984357 10.8830073,60.810826 C10.4915405,60.6447019 10.0702071,60.4457761 9.63074043,60.206642 C9.41207373,60.0860169 9.18167371,59.9601011 8.96194035,59.8161974 C8.74220699,59.6722937 8.51927362,59.5178088 8.29420693,59.3527428 C8.06914024,59.1876768 7.84300687,59.0120296 7.61687351,58.823685 C7.50380683,58.7305709 7.39074015,58.6332242 7.27767347,58.5337614 C7.16887346,58.4321823 7.06220678,58.3274288 6.95447343,58.2195011 C6.52780671,57.7877899 6.09793999,57.3126961 5.70647328,56.7815221 C5.32780656,56.2461156 4.98860652,55.6884887 4.68673982,55.1245131 C4.40300645,54.5541889 4.16513975,53.9753997 3.95607306,53.4093078 C3.84727305,53.126791 3.7651397,52.8421579 3.68833969,52.5628154 C3.61153968,52.2834729 3.54220634,52.0083629 3.479273,51.7396015 C3.41633966,51.4708402 3.35980632,51.2084275 3.31073965,50.9534217 C3.27127297,50.6962996 3.23713964,50.4476425 3.20833963,50.2074502 C3.15073963,49.7281239 3.11340629,49.2868897 3.08993962,48.895387 C3.07180628,48.5028261 3.08140628,48.1578804 3.08780629,47.8743055 C3.10487295,47.3071556 3.14007296,46.9823141 3.14007296,46.9823141 C3.14007296,46.9823141 3.39607299,47.1357408 3.81207304,47.4309551 C4.02007307,47.5780331 4.26753976,47.760029 4.54380647,47.9737683 C4.68140648,48.080638 4.82647317,48.1949145 4.97687319,48.3176559 C5.13260654,48.4393392 5.29580656,48.5673712 5.46220658,48.7038681 C6.13527333,49.2477394 6.84674008,49.912236 7.60940684,50.663498 C7.79607353,50.8529007 7.98167356,51.0486521 8.16407358,51.2507522 C8.25474026,51.3523312 8.34540694,51.4549684 8.43500695,51.5597219 C8.52994029,51.6623591 8.62380697,51.7671125 8.71660698,51.8739822 C9.09100703,52.2993446 9.44087374,52.7553924 9.77794045,53.2389512 C10.1310072,53.7172195 10.4403405,54.2039526 10.7144739,54.6938601 C11.0035406,55.1774189 11.268074,55.6578034 11.495274,56.1360716 C11.6051407,56.3773219 11.7246074,56.6090492 11.834474,56.8386603 C11.9443407,57.0693295 12.0467407,57.2968243 12.1416741,57.5211448 C12.2387408,57.7454653 12.3230074,57.9676696 12.4115408,58.1803508 C12.5032741,58.3909158 12.5875408,58.5972483 12.6664741,58.7972321 C12.8243408,59.1961417 12.9534075,59.5738889 13.0686075,59.9093116 C13.1934075,60.2394436 13.2936742,60.5346579 13.3726076,60.7811988 C13.5315409,61.2742806 13.6030076,61.5726692 13.6030076,61.5726692 C13.6030076,61.5726692 13.3224742,61.5409257 12.8424742,61.4329979 C12.6024741,61.3790341 12.3123408,61.304966 11.9806074,61.2055031 Z M21.8355419,70.8555168 C21.4451419,70.8957252 20.8840752,70.9285268 20.1950084,70.8925508 C19.847275,70.8809116 19.488875,70.8290639 19.0963416,70.7645188 C18.7059416,70.6978576 18.2920748,70.6068596 17.8611414,70.4851763 C17.4366081,70.3571444 17.0067413,70.188904 16.563008,69.9899783 C16.3411413,69.8905154 16.1192746,69.7804714 15.8952745,69.6619625 C15.6755412,69.5392211 15.4611412,69.4027242 15.2446078,69.2577623 C15.0291411,69.1117424 14.8190077,68.9604319 14.6152744,68.8027726 C14.4136744,68.6451134 14.209941,68.4874542 14.030741,68.311807 C13.6648743,67.9668614 13.3246076,67.6081602 13.0120742,67.2484009 C12.8531408,67.0706375 12.7112741,66.8844092 12.5768741,66.699239 C12.4414074,66.5151269 12.3134074,66.3310148 12.1918074,66.150077 C12.0702074,65.9691392 11.9550074,65.7913758 11.847274,65.6167868 C11.7939407,65.5289632 11.741674,65.4432558 11.690474,65.3586066 C11.6435407,65.2718411 11.597674,65.1861337 11.552874,65.1014845 C11.200874,64.4242906 10.9438073,63.8412689 10.7891406,63.421197 C10.6419406,62.9968927 10.5758072,62.7450612 10.5758072,62.7450612 C10.5758072,62.7450612 10.8083406,62.7842115 11.1998073,62.8815581 C11.584874,62.9831372 12.1555407,63.1228085 12.8040742,63.3365478 C13.1283409,63.4423593 13.4750076,63.5661589 13.8323409,63.7090045 C14.197141,63.8486757 14.5822077,63.9999862 14.9672744,64.1766915 C15.1603411,64.2645151 15.3534078,64.3586874 15.5475412,64.4581503 C15.6446078,64.5089398 15.7406079,64.5607875 15.8387412,64.6126351 C15.9390079,64.6623666 16.0392746,64.7142142 16.1395412,64.7681781 C16.5384746,64.9829756 16.9352747,65.2231678 17.3203414,65.4951035 C17.7096748,65.7638648 18.0904748,66.0347424 18.4328749,66.3278404 C18.6067415,66.4717441 18.7688749,66.6241128 18.9342082,66.7690746 C19.1006083,66.9129783 19.261675,67.0589982 19.415275,67.2050182 C19.568875,67.3510381 19.7171417,67.4991743 19.8590084,67.6473105 C20.000875,67.7954467 20.1331417,67.9467572 20.2718084,68.0843122 C20.5427418,68.3657709 20.7891418,68.6429972 21.0110085,68.9085842 C21.1208752,69.0429649 21.2254085,69.172055 21.3256752,69.2947964 C21.4291419,69.4143634 21.5251419,69.529698 21.6147419,69.639742 C21.7939419,69.8598301 21.9464753,70.0587558 22.069142,70.225938 C22.1918087,70.3931203 22.2856753,70.5285591 22.3496753,70.6227314 C22.4136753,70.7158455 22.4478087,70.7666351 22.4478087,70.7666351 C22.4478087,70.7666351 22.3902087,70.7803906 22.286742,70.7973204 C22.1832753,70.8142503 22.030742,70.8354126 21.8355419,70.8555168 Z M30.5576764,74.9811093 C30.7464764,75.1091412 30.9096764,75.2265921 31.0430097,75.3260549 C31.3096764,75.5260388 31.4579431,75.6551288 31.4579431,75.6551288 C31.4579431,75.6551288 31.3000764,75.7418943 31.0099431,75.8614614 C30.7198097,75.9820865 30.2974097,76.1355133 29.7651429,76.2688359 C28.7112761,76.5227836 27.2126093,76.6529318 25.6126091,76.2000583 C25.4099424,76.1482107 25.2168757,76.0794332 25.0280757,76.0053651 C24.838209,75.9323551 24.6515423,75.8529965 24.4702089,75.7704634 C24.2878089,75.6879304 24.1096756,75.6001068 23.9368755,75.510167 C23.7640755,75.4212853 23.5944755,75.3281711 23.4376755,75.2234177 C23.1198088,75.0192014 22.8222087,74.8075783 22.5480754,74.5970133 C22.4104753,74.4912018 22.2792753,74.3864483 22.1534086,74.282753 C22.027542,74.1801158 21.9155419,74.0679555 21.8056753,73.9642602 C21.3683419,73.5441884 21.0312752,73.165383 20.8040751,72.8934473 C20.6899418,72.7569504 20.6110085,72.6384415 20.5544751,72.561199 C20.5011418,72.4818404 20.4712751,72.4395157 20.4712751,72.4395157 C20.4712751,72.4395157 20.6568751,72.4088304 20.9758085,72.3823775 C21.2958085,72.3538084 21.7619419,72.3136 22.305942,72.3114838 C22.8510087,72.3072513 23.4739421,72.341111 24.1566089,72.4045979 C24.4958089,72.4405739 24.8435423,72.4924215 25.1944757,72.5664896 C25.5464757,72.6405577 25.9166091,72.7125095 26.2792758,72.8236117 C27.7267427,73.2701364 28.9896762,73.9557953 29.9219429,74.5631536 C30.1512763,74.7218709 30.369943,74.850961 30.5576764,74.9811093 Z M24.7187423,17.2154079 C24.6483423,17.3656603 24.5672756,17.5254357 24.4819423,17.6905017 C24.3966089,17.8555678 24.3027422,18.0280406 24.2014089,18.2047459 C24.1758089,18.2491867 24.1502089,18.2936276 24.1235422,18.3391266 C24.0990089,18.3856836 24.0744755,18.4332988 24.0499422,18.4819722 C23.9987422,18.5761444 23.9464755,18.6734911 23.8931422,18.7718958 C23.7843422,18.9665891 23.6670088,19.1655148 23.5411422,19.3654986 C23.4206088,19.570773 23.3011421,19.7876867 23.1656754,19.9993098 C23.0984754,20.1061795 23.0291421,20.2130492 22.9576754,20.3188607 C22.9214087,20.3717665 22.8840754,20.4246723 22.8478087,20.4786362 C22.8126087,20.5336582 22.7784754,20.5897383 22.7432754,20.6458184 C22.6014087,20.8690808 22.449942,21.0912851 22.2856753,21.3113731 C22.1150086,21.5261705 21.966742,21.7653047 21.7886086,21.988567 C21.7022086,22.1017854 21.6115419,22.2139456 21.5176752,22.3250478 L21.3747419,22.4911719 L21.2371419,22.6647029 C21.0504752,22.895372 20.8499418,23.1218088 20.6344751,23.344013 C20.5235418,23.4529989 20.4211418,23.5693916 20.3134084,23.6836681 C20.2056751,23.7979446 20.0936751,23.9101048 19.9774084,24.0222651 C19.4995417,24.461383 19.0398083,24.8983848 18.5256749,25.2930618 C18.3955415,25.3914666 18.2750082,25.4930457 18.1512748,25.5925085 C18.0275415,25.6919714 17.9016748,25.789318 17.7747414,25.8856065 C17.5230081,26.0781836 17.257408,26.2612376 17.0024747,26.4442916 C16.5054079,26.814632 15.9827412,27.1585195 15.4814078,27.4844191 C14.9939411,27.8156093 14.5064744,28.1224628 14.0414076,28.4028634 C13.5827409,28.6853803 13.1646075,28.9477929 12.7720742,29.1752877 C12.3848741,29.4038407 12.0232741,29.598534 11.741674,29.7625419 C11.1710073,30.0884415 10.8168739,30.2630305 10.8168739,30.2630305 C10.8168739,30.2630305 10.7998072,30.1635677 10.7763406,29.9794556 C10.7656739,29.8873995 10.7528739,29.773123 10.7368739,29.6398005 C10.7230072,29.5064779 10.7070072,29.351993 10.7038072,29.1816364 C10.6920739,28.8398651 10.6856739,28.4240257 10.6963406,27.9468156 C10.6995406,27.8272486 10.6995406,27.703449 10.7091406,27.5775333 C10.7208739,27.4526757 10.7326072,27.3235856 10.7443406,27.1913211 C10.7710072,26.9267922 10.8030072,26.6485078 10.8414072,26.3585842 C10.8616739,26.2136224 10.8830073,26.0654862 10.9043406,25.9152338 C10.9352739,25.7670976 10.9672739,25.6157871 10.9992739,25.4623603 C11.0664739,25.1555068 11.1422073,24.8391303 11.226474,24.516405 C11.3043406,24.1905055 11.4259407,23.8709546 11.5411407,23.5397644 C11.6627407,23.2117486 11.7843407,22.8742097 11.9347407,22.5430196 C12.0904741,22.2139456 12.2579408,21.8827555 12.4360741,21.5526234 C12.5267408,21.3886155 12.6120741,21.2203752 12.7166075,21.0605997 C12.8200742,20.9008243 12.9256742,20.7410488 13.0344742,20.5823315 C13.2552742,20.2659549 13.4750076,19.9474622 13.7299409,19.6490736 C13.9870076,19.3517431 14.2568743,19.0618195 14.5374077,18.782477 C14.8115411,18.498902 15.1251411,18.2544773 15.4248745,18.0164013 C15.5763412,17.8989505 15.7278078,17.784674 15.8803412,17.6756881 C16.0318079,17.5656441 16.1843412,17.4608907 16.3464746,17.3667184 C16.665408,17.1741413 16.9832747,16.9984942 17.2979414,16.8376606 C17.4568747,16.7583019 17.6083414,16.6778852 17.7715414,16.6112239 C17.9336748,16.5435045 18.0947415,16.4789594 18.2536748,16.4186469 C18.5726082,16.2980217 18.8851416,16.191152 19.1912749,16.0980378 C19.4942083,16.0028075 19.8131417,15.9403786 20.1096751,15.8779498 C20.7091418,15.7594409 21.2648752,15.6790241 21.8014086,15.6620942 C22.331542,15.6377576 22.8083421,15.6430482 23.2318088,15.6684429 C23.6638088,15.7044189 24.0360755,15.7562665 24.3411422,15.8081142 C24.9491423,15.9118095 25.292609,16.0144467 25.292609,16.0144467 C25.292609,16.0144467 25.1720757,16.3297652 24.9256757,16.8186145 C24.8648756,16.9402978 24.7944756,17.0725623 24.7187423,17.2154079 Z M12.9150075,44.3380834 C12.6504741,44.7433416 12.4222074,45.1105077 12.2046074,45.4364073 C11.9859407,45.7644231 11.7854074,46.0511724 11.613674,46.2881903 C11.4430073,46.5252082 11.3011406,46.7114365 11.2030073,46.8384104 C11.1059406,46.963268 11.0536739,47.0309874 11.0536739,47.0309874 C11.0536739,47.0309874 10.9992739,46.9600937 10.9182073,46.8193643 C10.8350072,46.6786349 10.7166072,46.4723024 10.5747405,46.2056573 C10.4339405,45.9390122 10.2686072,45.6109963 10.0926072,45.2290166 C9.93580713,44.8438626 9.76940711,44.4036865 9.60727376,43.9169534 C9.43340707,43.4323365 9.31607372,42.8937557 9.19660704,42.3213152 C9.1688737,42.1784696 9.14114037,42.0324496 9.11340703,41.8853716 C9.08674036,41.7372354 9.06114036,41.5880411 9.04727369,41.4356724 C9.01314035,41.1309352 8.98647368,40.8187911 8.96727368,40.5013564 C8.95767368,40.3426391 8.95020701,40.1828637 8.94487368,40.020972 C8.94274034,39.9405552 8.94060701,39.8590803 8.93847368,39.7776054 C8.94060701,39.6961305 8.94380701,39.6146556 8.94594034,39.5321226 C8.95874035,39.2041068 8.98114035,38.8718585 9.01420702,38.537494 C9.03020702,38.3703117 9.04940702,38.2031295 9.07180703,38.0348891 C9.0952737,37.8677069 9.13260703,37.6994665 9.16674037,37.5312261 C9.23820705,37.1958035 9.32140706,36.8603809 9.41847374,36.5270745 C9.50807375,36.1937681 9.64034043,35.8731591 9.77047378,35.5620731 C9.90274046,35.2509871 10.0435405,34.9525986 10.1918072,34.6647911 C10.4990072,34.0912925 10.8606072,33.5675253 11.2179406,33.0934896 C11.9731407,32.1496505 12.7742075,31.4068534 13.5507409,30.8587496 C13.934741,30.5836395 14.2878077,30.349796 14.622741,30.1603933 C14.9608744,29.9709906 15.2627411,29.8217963 15.5155412,29.7054036 C16.0200746,29.4736763 16.3262079,29.3720972 16.3262079,29.3720972 C16.3262079,29.3720972 16.3806079,29.6800089 16.4232746,30.1931949 C16.4339413,30.322285 16.4435413,30.4630144 16.4510079,30.615383 C16.4627413,30.7688097 16.4766079,30.9338758 16.4904746,31.1105811 C16.5182079,31.4629335 16.5214079,31.8512619 16.5310079,32.27345 C16.5491413,32.6977544 16.5459413,33.1495697 16.5214079,33.6236055 C16.5214079,34.1018737 16.4840746,34.599188 16.4275413,35.1134321 C16.4083413,35.3716123 16.3795413,35.6329669 16.3411413,35.8985539 C16.3059413,36.1641409 16.2430079,36.4318441 16.2046079,36.7048379 C16.1587412,36.9778317 16.1000746,37.2529417 16.0296746,37.5312261 C15.9944745,37.6698393 15.9550079,37.8095105 15.9134079,37.9502399 C15.8792745,38.0909692 15.8419412,38.2327567 15.8003412,38.3745442 C15.6382078,38.9427522 15.4088745,39.4950886 15.2019411,40.0315531 C14.9854078,40.5690758 14.7144744,41.0917849 14.4776744,41.5933317 C14.3528743,41.844105 14.222741,42.0917041 14.0894076,42.3329544 C13.9592743,42.5742048 13.8131409,42.8122808 13.6904743,43.0408337 C13.4355409,43.5000559 13.1720742,43.9349413 12.9150075,44.3380834 Z M12.3336741,54.0029107 C12.1918074,53.4823178 12.0798074,52.9416208 12.0094074,52.3924588 C11.9539407,51.83589 11.9582074,51.2899024 11.9891407,50.7714258 C11.9966074,50.6423357 12.0072741,50.5143037 12.0200741,50.3873299 C12.0371407,50.2592979 12.0574074,50.132324 12.0787407,50.0074664 C12.1224741,49.7577511 12.1726074,49.5143846 12.2280741,49.2794829 C12.4360741,48.3430507 12.8115408,47.5113719 13.1582075,46.8426428 C13.2467409,46.6754606 13.3342076,46.5167432 13.4216742,46.3686071 C13.5144742,46.2183547 13.6062076,46.0786834 13.6936743,45.9485352 C13.8696743,45.6892969 14.0328743,45.4692089 14.1726077,45.2925036 C14.4520744,44.9380349 14.635541,44.7507484 14.635541,44.7507484 C14.635541,44.7507484 14.7848744,44.9644878 15.0003411,45.342235 C15.1102078,45.5305796 15.2275411,45.7612488 15.3683411,46.0226033 C15.5144745,46.2828997 15.6670078,46.5770558 15.8174079,46.8997811 C16.4350079,48.1938564 17.084608,49.8910737 17.308608,51.8337738 C17.3651414,52.320507 17.3982081,52.7998333 17.3896747,53.2812759 C17.3886081,53.4008429 17.3843414,53.52041 17.3800747,53.639977 C17.3790081,53.7563697 17.3779414,53.8727624 17.3736747,53.9891552 C17.3662081,54.2219406 17.3523414,54.4526098 17.3331414,54.6811627 C17.3139414,54.9097157 17.289408,55.1350943 17.260608,55.3583567 C17.2307414,55.581619 17.212608,55.7932421 17.1816747,56.0048652 C17.1240747,56.4259952 17.0536747,56.8301954 16.9779413,57.2079426 C16.8968747,57.5888642 16.8360747,57.9264031 16.764608,58.2364309 C16.6952746,58.5443425 16.627008,58.8162782 16.566208,59.0416568 C16.4456746,59.4924141 16.3550079,59.7558848 16.3550079,59.7558848 C16.3550079,59.7558848 16.1288746,59.5887026 15.7640745,59.2680936 C15.5816745,59.10726 15.3640745,58.9083343 15.1240744,58.6713164 C14.8915411,58.4290079 14.645141,58.1443749 14.3848744,57.8269402 C14.254741,57.6682229 14.1224743,57.4999825 13.989141,57.3232772 C13.857941,57.1455138 13.7374076,56.9529368 13.6115409,56.7561273 C13.4867409,56.5582597 13.3630076,56.3529853 13.2414075,56.1392459 C13.1198075,55.9255066 12.9982075,55.7064767 12.8979408,55.471575 C12.6899408,55.0060042 12.4915408,54.5171548 12.3336741,54.0029107 Z M24.0531422,66.3521771 C24.1512756,66.9510705 24.2003422,67.4758958 24.2227422,67.8494105 C24.2355422,68.036697 24.2408756,68.1858913 24.2440756,68.2885285 C24.2472756,68.3890495 24.2483422,68.4440715 24.2483422,68.4440715 C24.2483422,68.4440715 24.1918089,68.4292579 24.0947422,68.3922238 C23.9966089,68.3562479 23.8536755,68.3012259 23.6744755,68.2250416 C23.4963421,68.1499154 23.2808755,68.0525687 23.0387421,67.9340598 C22.9171421,67.8748053 22.7891421,67.8102603 22.6558087,67.7393665 C22.5256754,67.6652984 22.392342,67.5817073 22.2536753,67.4938837 C21.9774086,67.3182365 21.6840753,67.1171946 21.3832752,66.891816 C21.2307419,66.7828301 21.0878085,66.65374 20.9416752,66.5225337 C20.7955418,66.3902692 20.6504751,66.2527142 20.5054084,66.1088105 C20.3614084,65.9649068 20.2174084,65.8146544 20.0766084,65.6591114 C19.9379417,65.5014522 19.8099417,65.3289793 19.6819417,65.1554484 C19.4302083,64.804154 19.1848749,64.4401623 18.9864749,64.0380784 C18.7923416,63.6328201 18.6355415,63.2265038 18.5118082,62.8286523 C18.4808749,62.7291895 18.4520749,62.6297266 18.4254082,62.5313219 C18.4019415,62.4308009 18.3806082,62.3292218 18.3603415,62.2297589 C18.3208748,62.0308332 18.2888748,61.8340237 18.2632748,61.6414467 C18.2131415,61.2562926 18.1832748,60.8891266 18.1822082,60.5388903 C18.1875415,60.1844216 18.2099415,59.8511152 18.2440748,59.5474361 C18.3134082,58.9379615 18.4190082,58.4469959 18.5288749,58.0925272 C18.6334082,57.742291 18.7144749,57.5454815 18.7144749,57.5454815 C18.7144749,57.5454815 18.8872749,57.6650485 19.1582083,57.8914852 C19.4355416,58.1126314 19.8291417,58.4258336 20.2419417,58.8353243 C20.2931417,58.887172 20.3454084,58.9390196 20.3987418,58.9929835 C20.4531418,59.0448312 20.5096751,59.097737 20.5662084,59.1517008 C20.6782085,59.2606867 20.7912751,59.3749632 20.9043418,59.4945303 C21.0174085,59.6140973 21.1294085,59.7400131 21.2403419,59.8712194 C21.3512752,60.0024257 21.4600752,60.1399808 21.5774086,60.2743614 C21.8056753,60.5473552 22.0254086,60.8436276 22.229142,61.1652947 C22.3272753,61.3293026 22.4382087,61.4837875 22.536342,61.6520279 C22.635542,61.818152 22.7304754,61.9916829 22.8200754,62.1715626 C22.9096754,62.3514422 22.9886087,62.5366124 23.0664754,62.7175502 C23.1475421,62.8953136 23.2211421,63.0741351 23.2894088,63.2550729 C23.4270088,63.6158903 23.5336755,63.9862307 23.6307422,64.3438738 C23.7342088,64.6951681 23.8163422,65.0443463 23.8846089,65.3829432 C23.9550089,65.719424 23.9998089,66.0569628 24.0531422,66.3521771 Z M31.7779432,71.6194762 C31.9944765,72.057536 32.1555432,72.4479807 32.2600766,72.7273232 C32.3667432,73.0087819 32.4168766,73.1791385 32.4168766,73.1791385 C32.4168766,73.1791385 32.2366099,73.174906 31.9272765,73.1410463 C31.7726098,73.1241165 31.5859431,73.0987217 31.3726098,73.0638039 C31.1603431,73.0267699 30.9182097,72.9886777 30.6686097,72.9114353 C29.6595429,72.6331509 28.3475427,72.0839889 27.3491426,71.0449195 C27.1006093,70.7856812 26.8723426,70.5296172 26.6846092,70.2481585 C26.4968758,69.9666997 26.3347425,69.6831248 26.1971425,69.4048404 C25.9144758,68.8567365 25.7512758,68.2948772 25.6446091,67.8155508 C25.5390091,67.3341083 25.4899424,66.9330825 25.4760757,66.6399845 C25.4632757,66.3458284 25.4728757,66.1744137 25.4728757,66.1744137 C25.4728757,66.1744137 25.5134091,66.1881692 25.5880757,66.2125058 C25.6616757,66.2389587 25.7683424,66.278109 25.9038091,66.3267823 C26.1779425,66.4198965 26.5576759,66.5659164 26.9822092,66.7743652 C27.0899426,66.8251547 27.1955426,66.8865254 27.3107426,66.9404893 C27.4259426,66.9955113 27.5422093,67.0537077 27.6606093,67.1171946 C27.8963427,67.2431103 28.1374094,67.3859559 28.3774094,67.5499639 C28.4958094,67.6346131 28.6206094,67.7129136 28.7432761,67.7975629 C28.8659428,67.8822121 28.9875428,67.9721519 29.1080762,68.0684405 C29.2286095,68.164729 29.3480762,68.2663081 29.4643429,68.3742359 C29.5795429,68.4842799 29.6947429,68.595382 29.8120763,68.7075422 C30.7240764,69.6249284 31.3470098,70.7285429 31.7779432,71.6194762 Z M80.5790159,15.5160743 C73.551815,12.4073309 66.3486141,7.75902932 62.619547,0.464380822 C62.619547,0.464380822 63.006747,0.349046228 63.7118138,0.219956133 C63.8878138,0.188212667 64.0851472,0.15435297 64.3006139,0.122609504 C64.4083472,0.106737771 64.5214139,0.0887498069 64.6376806,0.0760524205 C64.7528806,0.0665293806 64.8734139,0.0570063408 64.9971473,0.047483301 C65.494214,0.015739835 66.0680807,-0.0117711689 66.6963475,0.00515867962 C67.0067475,0.0220885282 67.3320809,0.047483301 67.6712809,0.0813429981 C67.840881,0.0982728467 68.0147477,0.117318926 68.1907477,0.139539353 C68.3678144,0.160701663 68.5470144,0.183980205 68.7240811,0.222072364 C69.0803478,0.290849874 69.4494145,0.371266655 69.8270145,0.464380822 C70.0158146,0.510937905 70.2078146,0.558553104 70.3998146,0.613575112 C70.587548,0.673887698 70.7784813,0.738432745 70.9704814,0.80615214 C71.3555481,0.940532812 71.7459481,1.0897271 72.1416815,1.25373501 C72.5256815,1.43361465 72.9128816,1.62936603 73.3011483,1.83993102 C73.494215,1.94680069 73.692615,2.05155412 73.881415,2.17112118 C74.0691484,2.29280447 74.2558151,2.41872021 74.4424818,2.54781031 C74.6291485,2.67690041 74.8158152,2.81022296 75.0003485,2.94777798 C75.1848819,3.08427489 75.3704819,3.22394614 75.5422153,3.38054724 C75.892082,3.68634263 76.2270153,4.00166105 76.5470154,4.32121195 C76.7112821,4.47781305 76.8542154,4.65134399 77.0003488,4.81958436 C77.1454155,4.98888285 77.2862155,5.15923945 77.4238155,5.32959605 C77.5603488,5.50101077 77.6947489,5.67136737 77.8238155,5.84278209 C77.9507489,6.01525492 78.0648822,6.19619267 78.1811489,6.37289797 C78.4104823,6.72842479 78.6248823,7.08077726 78.824349,7.42995539 C79.013149,7.78654032 79.1816824,8.14524149 79.3395491,8.4933615 C79.4952824,8.84359774 79.6456824,9.18007848 79.7576824,9.52714038 C79.8760825,9.86996981 79.9816825,10.2022181 80.0755491,10.5238852 C80.1224825,10.6847188 80.1672825,10.842378 80.2078158,10.997921 C80.2419492,11.1555802 80.2750158,11.3111232 80.3080825,11.4634918 C80.3699492,11.767171 80.4222159,12.0581527 80.4670159,12.3332628 C80.5118159,12.6094309 80.5523492,12.866553 80.5683492,13.1183845 C80.6099492,13.6167569 80.6270159,14.0474099 80.6323492,14.3997624 C80.6419492,14.7499987 80.6227492,15.0314574 80.6067492,15.2229763 C80.5918159,15.4144952 80.5790159,15.5160743 80.5790159,15.5160743 Z M81.6339493,6.7972023 C81.5603493,6.28613249 81.5027493,5.83220093 81.4643493,5.4555118 C81.3800826,4.70213354 81.356616,4.2566669 81.356616,4.2566669 C81.356616,4.2566669 81.8120827,4.48204551 82.5768828,4.93915142 C82.7678161,5.05448601 82.9800828,5.18251799 83.2051495,5.32747982 C83.4248829,5.47773223 83.6595496,5.64385637 83.9091496,5.82585224 C84.1587497,6.00784811 84.4211497,6.2046576 84.6952831,6.41733882 C84.7635497,6.47130271 84.8318164,6.52526661 84.9022164,6.58028861 C84.9683498,6.63848497 85.0366164,6.69562321 85.1048831,6.75487768 C85.2403498,6.87444473 85.3790165,6.99612802 85.5208832,7.12098565 C85.8024832,7.37281715 86.0926166,7.64052038 86.3870166,7.92303723 C86.6760833,8.20978654 86.9566167,8.51981439 87.24675,8.8404234 C87.3907501,9.00125696 87.5347501,9.16526487 87.6798168,9.33350524 C87.7512834,9.41815448 87.8238168,9.50280372 87.8963501,9.58851108 C87.9646168,9.67739278 88.0328835,9.76627449 88.1022168,9.85515619 C88.3752835,10.2138574 88.6483502,10.586314 88.9160836,10.9714681 C89.1923503,11.3523897 89.4259503,11.7661129 89.6691503,12.1819523 C89.788617,12.390401 89.907017,12.6020241 90.022217,12.8157635 C90.0798171,12.9226331 90.1363504,13.0305609 90.1939504,13.1384887 C90.2451504,13.2485327 90.2974171,13.3596348 90.3496838,13.470737 C90.5534171,13.9172617 90.7475505,14.3722514 90.9278172,14.8346479 C91.0216838,15.064259 91.0984838,15.3012769 91.1720839,15.540411 C91.2467505,15.778487 91.3171505,16.0186792 91.3832839,16.2599295 C91.6638172,17.2185822 91.7950173,18.178293 91.8888839,19.0829818 C91.9144839,19.3094185 91.9230173,19.5358552 91.9294173,19.7601757 C91.9358173,19.9844962 91.9390173,20.2045842 91.9390173,20.422556 C91.936884,20.8584996 91.9294173,21.2796296 91.8952839,21.6901785 C91.8131506,22.5165667 91.6979506,23.2826423 91.5368839,23.9905216 C91.3630172,24.7015753 91.1624839,25.3480839 90.9555505,25.9258149 C90.7400838,26.5046041 90.4979504,27.0209645 90.2803504,27.4621987 C90.0563504,27.9055491 89.8579504,28.2748314 89.663817,28.5763944 C89.2819503,29.1784621 89.0270169,29.4937805 89.0270169,29.4937805 C89.0270169,29.4937805 88.9726169,29.3985501 88.8734169,29.2218448 C88.8264836,29.1329631 88.7667502,29.0239772 88.6984835,28.8959452 C88.6312835,28.7679133 88.5566169,28.6197771 88.4638169,28.4568273 C88.2835502,28.1288115 88.0734168,27.7330763 87.8494168,27.2780866 C87.7928834,27.1648682 87.7384834,27.0463593 87.6766168,26.9267922 C87.6136834,26.8072252 87.5507501,26.6844838 87.4846167,26.558568 C87.35555,26.3067365 87.22435,26.0411495 87.0920834,25.7639233 C87.0280833,25.624252 86.96195,25.4824645 86.89475,25.3385608 C86.8232833,25.1957152 86.75075,25.0507534 86.67715,24.9026172 C86.5320833,24.6063449 86.3891499,24.2984332 86.2483499,23.9809986 C86.1150166,23.6614477 85.9496832,23.3429549 85.8046165,23.0096485 C85.6531498,22.6784584 85.5166165,22.3335127 85.3683498,21.9853927 C85.2147498,21.640447 85.0664831,21.2859783 84.9256831,20.9209285 C84.8531497,20.7389326 84.7912831,20.5516461 84.7155497,20.3685921 C84.640883,20.18448 84.5683497,19.9993098 84.4979497,19.8109653 C84.3539497,19.4363924 84.231283,19.0448896 84.0958163,18.6555031 C83.9571496,18.2671747 83.8291496,17.8693233 83.7118163,17.4608907 C83.6030163,17.0482256 83.4707496,16.6546066 83.3672829,16.2514646 C83.3139495,16.0514808 83.2627495,15.8504388 83.2158162,15.6493969 C83.1688829,15.4472968 83.1240829,15.247313 83.0718162,15.0526197 C82.9726162,14.6600588 82.8851495,14.2685561 82.8062162,13.8770533 C82.7656828,13.6823601 82.7336828,13.4834344 82.6910161,13.2940317 C82.6515495,13.1025128 82.6120828,12.9131101 82.5726161,12.7258236 C82.4968828,12.3480764 82.4296828,11.9724454 82.3688828,11.6021049 C82.3102161,11.2296483 82.2355494,10.879412 82.1790161,10.5260014 C82.0595494,9.82341273 81.9710161,9.13881198 81.8675494,8.52298874 C81.7715494,7.9008168 81.6968827,7.31779514 81.6339493,6.7972023 Z M95.9987511,34.9367268 C95.9998178,35.3377526 96.0072845,35.744069 95.9678178,36.156734 C95.9347511,36.5662248 95.8899511,36.9778317 95.8323511,37.3904968 C95.8024844,37.5968293 95.7715511,37.8031618 95.7352844,38.0094943 C95.6915511,38.2147688 95.6446177,38.4200432 95.5944844,38.6253176 C95.390751,39.444299 95.1560843,40.2167234 94.8328843,40.9298932 C94.5192843,41.6441212 94.1950176,42.3054434 93.8046175,42.9022206 C93.6147508,43.2016673 93.4227508,43.4863004 93.2286174,43.7571779 C93.0312841,44.0280555 92.8467507,44.2862357 92.6366174,44.5253698 C92.2270173,45.0057543 91.8227506,45.4300586 91.4387506,45.800399 C91.0611505,46.1717976 90.6739505,46.4849998 90.3315504,46.7484705 C89.9880837,47.0119413 89.6808837,47.2256807 89.423817,47.3949791 C89.1667503,47.5632195 88.9608836,47.687019 88.8179502,47.7684939 C88.6750169,47.8499688 88.5918169,47.8891191 88.5918169,47.8891191 C88.5918169,47.8891191 88.5864835,47.7949468 88.5683502,47.6182415 C88.5523502,47.4425943 88.5320835,47.1854723 88.5150169,46.8616889 C88.4979502,46.5389637 88.4840835,46.1495772 88.4819502,45.708343 C88.4606169,45.2628763 88.4488835,44.7666202 88.4542169,44.2312137 C88.4712835,43.6968653 88.4531502,43.1159599 88.4808835,42.5096597 C88.4883502,42.3583492 88.4958169,42.2049224 88.5032835,42.0493795 C88.5139502,41.8948946 88.5246169,41.7382935 88.5278169,41.578518 C88.5395502,41.2610834 88.5576835,40.9362419 88.5854169,40.607168 C88.5982169,40.4431601 88.6142169,40.2770359 88.6323502,40.1098537 C88.6408835,40.0262626 88.6504835,39.9426714 88.6600835,39.8580222 C88.6675502,39.7733729 88.6739502,39.6887237 88.6814169,39.6040745 C88.7123502,39.2644194 88.7518169,38.9205318 88.8030169,38.5724118 C88.8286169,38.3988809 88.8563502,38.2242918 88.8872836,38.0486446 C88.9139502,37.8729974 88.9406169,37.6962921 88.9683502,37.5185287 C89.0270169,37.16406 89.0974169,36.8053589 89.1806169,36.4445415 C89.2712836,36.082666 89.3427503,35.7281973 89.433417,35.3790191 C89.523017,35.029841 89.622217,34.6859535 89.7299503,34.3473565 C89.9336837,33.6712207 90.1406171,33.0194215 90.3838171,32.3909009 C90.8275505,31.1402083 91.3427505,29.9868624 91.7790173,29.003873 C92.0019506,28.5118493 92.2302173,28.0589759 92.4254173,27.6600663 C92.6163507,27.2622149 92.7934174,26.9140948 92.9448841,26.6284037 C93.2478174,26.0559631 93.4472841,25.7332379 93.4472841,25.7332379 C93.4472841,25.7332379 93.6691508,26.0940553 94.0062175,26.7511451 C94.0904842,26.9162111 94.1811509,27.098207 94.2782176,27.2992489 C94.3710176,27.5002909 94.4606176,27.7203789 94.5576843,27.9563386 C94.7454176,28.4293163 94.9608843,28.9678971 95.1464843,29.5657324 C95.323551,30.1656839 95.5006177,30.8206574 95.6510177,31.522188 C95.7768844,32.2247767 95.8920844,32.9718063 95.9571511,33.7495212 C95.9806178,34.1389077 95.9944845,34.535701 95.9987511,34.9367268 Z M92.8584841,46.9833722 C92.8584841,46.9833722 92.8947507,47.3082137 92.9096841,47.8795961 C92.9160841,48.1621129 92.9267507,48.5081167 92.9075507,48.9006775 C92.8840841,49.2921803 92.8467507,49.7334145 92.7891507,50.2127408 C92.7603507,50.4518749 92.7262174,50.7015902 92.6867507,50.9587123 C92.6366174,51.2137181 92.5811507,51.4761308 92.5182174,51.7448921 C92.4563507,52.0136535 92.3859507,52.2887635 92.3091507,52.568106 C92.2334173,52.8485066 92.1502173,53.1320816 92.0414173,53.4145984 C91.8323506,53.9817483 91.5934172,54.5594794 91.3107505,55.1298037 C91.0088838,55.6927212 90.6696838,56.2514062 90.2910171,56.7868126 C89.8995504,57.3169285 89.4696836,57.7930805 89.0430169,58.2247916 C88.9352836,58.3327194 88.8286169,58.4374729 88.7198169,58.539052 C88.6067502,58.6385148 88.4936835,58.7348033 88.3806168,58.8289756 C88.1544835,59.0162621 87.9283501,59.1929674 87.7032834,59.3580334 C87.4782167,59.5230994 87.2552834,59.6775843 87.03555,59.821488 C86.8158166,59.9653917 86.58435,60.0913074 86.3667499,60.2119326 C85.9262165,60.4510667 85.5059498,60.6499924 85.1144831,60.8161166 C84.7294164,60.984357 84.346483,61.1049821 84.0179496,61.2065612 C83.6872829,61.3060241 83.3960829,61.3800922 83.1560829,61.4340561 C82.6750161,61.5419838 82.3955494,61.5737273 82.3955494,61.5737273 C82.3955494,61.5737273 82.4680828,61.2753387 82.6259495,60.7822569 C82.7059495,60.535716 82.8062162,60.2415599 82.9299495,59.9103697 C83.0462162,59.5749471 83.1752829,59.1971998 83.3331496,58.7982903 C83.4110162,58.5983064 83.4952829,58.3919739 83.5870163,58.1814089 C83.6755496,57.9687277 83.7598163,57.7454653 83.856883,57.5222029 C83.952883,57.2978824 84.0542163,57.0703876 84.164083,56.8397184 C84.2739497,56.6101073 84.3934163,56.37838 84.503283,56.1371297 C84.7294164,55.6588615 84.9950164,55.1774189 85.2840831,54.6949182 C85.5582165,54.2050107 85.8686165,53.7172195 86.2206166,53.2400094 C86.5576833,52.7575087 86.90755,52.3004028 87.28195,51.8750403 C87.3747501,51.7681706 87.4686167,51.6634172 87.5635501,51.56078 C87.6531501,51.4560266 87.7427501,51.3533894 87.8344834,51.2518103 C88.0168835,51.0486521 88.2024835,50.8539588 88.3891502,50.6645561 C89.1518169,49.9132941 89.8632837,49.2477394 90.5363504,48.7049262 C90.7027505,48.5684293 90.8659505,48.4403973 91.0216838,48.318714 C91.1720839,48.1970307 91.3171505,48.0816961 91.4547506,47.9748265 C91.7299506,47.7610871 91.978484,47.5790912 92.186484,47.4320132 C92.602484,47.1378571 92.8584841,46.9833722 92.8584841,46.9833722 Z M83.1944829,63.3376059 C83.8430163,63.1238666 84.413683,62.9831372 84.7976831,62.8847325 C85.1891498,62.7873858 85.4216831,62.7482356 85.4216831,62.7482356 C85.4216831,62.7482356 85.3555498,62.9990089 85.2083498,63.4243714 C85.0536831,63.8444432 84.7966164,64.4274649 84.4446164,65.1046588 C84.3998164,65.18825 84.3539497,65.2739573 84.3070163,65.3617809 C84.2558163,65.4464302 84.2035497,65.5321375 84.1502163,65.6199611 C84.042483,65.7945502 83.927283,65.9723136 83.8056829,66.1532513 C83.6840829,66.3341891 83.5560829,66.5172431 83.4206162,66.7024133 C83.2862162,66.8875835 83.1443495,67.0738119 82.9854162,67.2515753 C82.6728828,67.6123927 82.3326161,67.9700357 81.9667494,68.3149814 C81.7875494,68.4895704 81.5848827,68.6472297 81.382216,68.805947 C81.1784826,68.9636062 80.9683493,69.1159748 80.7528826,69.2609367 C80.5363492,69.4058985 80.3219492,69.5423954 80.1022158,69.6651368 C79.8782158,69.7836457 79.6552824,69.8926316 79.4344824,69.9931526 C78.9918157,70.1931365 78.5608823,70.3603187 78.1363489,70.4883507 C77.7054155,70.610034 77.2915488,70.7010319 76.9011488,70.7676932 C76.5086154,70.8322382 76.1502153,70.8840859 75.802482,70.8957252 C75.1155485,70.9285268 74.5534151,70.8967833 74.1630151,70.8565749 C73.9678151,70.8364707 73.8152817,70.8153084 73.711815,70.7983785 C73.6083483,70.7814487 73.5507483,70.7676932 73.5507483,70.7676932 C73.5507483,70.7676932 73.5848817,70.7169036 73.6488817,70.6237895 C73.711815,70.5306753 73.8067484,70.3941784 73.9294151,70.2269962 C74.0531484,70.0598139 74.2046151,69.8608882 74.3838151,69.6408001 C74.4734151,69.5307561 74.5704818,69.4154215 74.6728818,69.2958545 C74.7731485,69.1731131 74.8787485,69.044023 74.9875485,68.9096423 C75.2094152,68.6440553 75.4558152,68.366829 75.7267486,68.0853703 C75.8654153,67.9467572 75.9966153,67.7954467 76.1395487,67.6483686 C76.2814153,67.5002324 76.429682,67.3531544 76.583282,67.2060763 C76.7368821,67.0589982 76.8979488,66.9140364 77.0643488,66.7701327 C77.2296821,66.6251709 77.3918155,66.4728022 77.5656822,66.3288985 C77.9091489,66.0358005 78.2888823,65.7649229 78.6782156,65.4961616 C79.0632824,65.2231678 79.4590157,64.9829756 79.8590158,64.7692362 C79.9592825,64.7163304 80.0595491,64.6644828 80.1598158,64.6136932 C80.2579492,64.5618456 80.3550159,64.5099979 80.4510159,64.4592084 C80.6440826,64.3597455 80.8382159,64.2655732 81.0312826,64.1777496 C81.4163493,63.9999862 81.8024827,63.8486757 82.1662161,63.7100626 C82.5235495,63.567217 82.8702162,63.4444756 83.1944829,63.3376059 Z M73.6915484,72.3114838 C74.2355484,72.3146581 74.7016818,72.3538084 75.0206152,72.3823775 C75.3406152,72.4088304 75.5251486,72.4395157 75.5251486,72.4395157 C75.5251486,72.4395157 75.4963486,72.4818404 75.4419486,72.561199 C75.3854152,72.6384415 75.3054152,72.7569504 75.1923485,72.8934473 C74.9640818,73.1664411 74.6270151,73.5441884 74.1907484,73.9642602 C74.0808817,74.0679555 73.9688817,74.1801158 73.843015,74.282753 C73.718215,74.3864483 73.587015,74.4922599 73.449415,74.5970133 C73.1752816,74.8075783 72.8776816,75.0192014 72.5598149,75.2234177 C72.4030149,75.3281711 72.2344815,75.4202272 72.0606148,75.510167 C71.8867481,75.6001068 71.7096814,75.6879304 71.5272814,75.7704634 C71.3448814,75.8529965 71.1592814,75.9323551 70.9694147,76.0053651 C70.779548,76.0794332 70.587548,76.1492688 70.3848813,76.2000583 C68.7848811,76.6529318 67.2851476,76.5217255 66.2323474,76.2688359 C65.7000807,76.1355133 65.2776807,75.9810284 64.9875473,75.8614614 C64.6974139,75.7408362 64.5395472,75.6551288 64.5395472,75.6551288 C64.5395472,75.6551288 64.6878139,75.5260388 64.9544806,75.3260549 C65.087814,75.2265921 65.251014,75.1091412 65.439814,74.9811093 C65.6275474,74.8520192 65.8462141,74.7218709 66.0755474,74.5631536 C67.0088809,73.9557953 68.2707477,73.2701364 69.7182145,72.8236117 C70.0808812,72.7125095 70.4520813,72.6405577 70.8030147,72.5664896 C71.1550147,72.4924215 71.5027481,72.4405739 71.8408815,72.4045979 C72.5235482,72.341111 73.1464816,72.3072513 73.6915484,72.3114838 Z M78.2238156,25.8845484 C78.0968822,25.7882599 77.9710156,25.6909133 77.8440822,25.5893342 C77.7203489,25.4898713 77.5998155,25.3872341 77.4696822,25.2898875 C76.9555488,24.8952104 76.496882,24.4582087 76.0179486,24.0190907 C75.901682,23.9079886 75.789682,23.7947703 75.6819486,23.6804938 C75.5752819,23.5662173 75.4718152,23.4498246 75.3608819,23.3408387 C75.1454152,23.1186344 74.9448818,22.8921977 74.7582152,22.6615285 L74.6206151,22.4879976 L74.4776818,22.3218734 C74.3838151,22.2107713 74.2942151,22.098611 74.2067484,21.9853927 C74.0296817,21.7621303 73.8803484,21.5229962 73.7096817,21.3081987 C73.545415,21.0881107 73.3939483,20.8659065 73.2520816,20.6426441 C73.2168816,20.5865639 73.1816816,20.5315419 73.1475483,20.4754618 C73.110215,20.4214979 73.0739483,20.3685921 73.0376816,20.3156864 C72.9662149,20.2088167 72.8968816,20.1030051 72.8296816,19.9961355 C72.6952816,19.7845124 72.5758149,19.5675987 72.4542149,19.3623243 C72.3283482,19.1623404 72.2110148,18.9644728 72.1022148,18.7687215 C72.0488815,18.6703167 71.9966148,18.5740282 71.9454148,18.4787978 C71.9208815,18.4311826 71.8963481,18.3835674 71.8718148,18.3359522 C71.8451481,18.2904532 71.8195481,18.2460124 71.7939481,18.2015715 C71.6926148,18.0248662 71.5998148,17.8523934 71.5134148,17.6873274 C71.4270147,17.5222614 71.3491481,17.363544 71.2787481,17.2143497 C71.2030147,17.0715041 71.1326147,16.9402978 71.0718147,16.8175564 C70.8254147,16.328707 70.7048813,16.0133886 70.7048813,16.0133886 C70.7048813,16.0133886 71.048348,15.9107514 71.6574148,15.8070561 C71.9614148,15.7552084 72.3336815,15.7044189 72.7667482,15.6673848 C73.190215,15.6419901 73.667015,15.6366995 74.1971484,15.6610361 C74.7336818,15.6790241 75.2894152,15.7583828 75.888882,15.8768917 C76.1854153,15.9393205 76.503282,16.0017493 76.8072821,16.0969797 C77.1134154,16.1900939 77.4259488,16.2969636 77.7448822,16.4175887 C77.9048822,16.4789594 78.0648822,16.5424464 78.2270156,16.6101658 C78.3902156,16.676827 78.5416823,16.7572438 78.7006156,16.8366025 C79.0152824,16.9974361 79.3331491,17.1730832 79.6520824,17.3656603 C79.8142158,17.4598325 79.9667491,17.564586 80.1182158,17.67463 C80.2696825,17.7836159 80.4222159,17.8978924 80.5736825,18.0153432 C80.8734159,18.2534192 81.1880826,18.4978439 81.4611493,18.7814188 C81.7416827,19.0607613 82.0115494,19.350685 82.2686161,19.6480155 C82.5235495,19.9474622 82.7432828,20.2659549 82.9640828,20.5812734 C83.0728829,20.7399907 83.1784829,20.8997661 83.2819495,21.0595416 C83.3854162,21.219317 83.4707496,21.3875574 83.5624829,21.5515653 C83.7406163,21.8816974 83.908083,22.2128875 84.0638163,22.5419615 C84.2142163,22.8731516 84.3358163,23.2106905 84.4574164,23.5387063 C84.5726164,23.8698965 84.6942164,24.1894473 84.7720831,24.5153469 C84.8563497,24.8391303 84.9320831,25.1544487 84.9992831,25.4613022 C85.0312831,25.614729 85.0632831,25.7660395 85.0942164,25.9141757 C85.1155498,26.0644281 85.1368831,26.2125642 85.1571498,26.3575261 C85.1966164,26.6474497 85.2286165,26.9257341 85.2542165,27.190263 C85.2659498,27.3225274 85.2776831,27.4505594 85.2894165,27.5764752 C85.2979498,27.7023909 85.2990165,27.8261904 85.3022165,27.9457575 C85.3128831,28.4229676 85.3064831,28.838807 85.2947498,29.1805783 C85.2915498,29.3498768 85.2766165,29.5043617 85.2616831,29.6387424 C85.2456831,29.7720649 85.2328831,29.8852833 85.2222165,29.9783974 C85.1987498,30.1635677 85.1816831,30.2619724 85.1816831,30.2619724 C85.1816831,30.2619724 84.8275497,30.0884415 84.256883,29.7614838 C83.975283,29.5974758 83.6126163,29.4027826 83.2264829,29.1742296 C82.8339495,28.9467348 82.4158161,28.6843221 81.9571494,28.4018053 C81.4920827,28.1214047 81.0046159,27.8145512 80.5171492,27.483361 C80.0158158,27.1574614 79.4931491,26.814632 78.9960823,26.4432334 C78.741149,26.2601794 78.475549,26.0771255 78.2238156,25.8845484 Z M84.7987497,46.8405266 C84.7006164,46.7146109 84.5587497,46.5283825 84.391283,46.2924228 C84.2206163,46.056463 84.0190163,45.7686556 83.8003496,45.4406397 C83.5806162,45.1126239 83.3523496,44.7443997 83.0878162,44.3401996 C82.8307495,43.9370576 82.5672828,43.501114 82.3123494,43.0429499 C82.1907494,42.814397 82.0435494,42.576321 81.913416,42.3350707 C81.7800827,42.0938203 81.6499493,41.8462213 81.5251493,41.5954479 C81.2883493,41.092843 81.0174159,40.5701339 80.8008826,40.0336694 C80.5939492,39.4972048 80.3646159,38.9448685 80.2024825,38.3766604 C80.1608825,38.234873 80.1235492,38.0930855 80.0894158,37.9523561 C80.0478158,37.8126849 80.0083491,37.6719555 79.9731491,37.5333424 C79.9016825,37.255058 79.8440825,36.9799479 79.7982158,36.7069541 C79.7598158,36.4339603 79.6968824,36.1662571 79.6616824,35.9006701 C79.6222158,35.6361412 79.5944824,35.3737285 79.5752824,35.1155484 C79.5176824,34.6013042 79.4814157,34.1039899 79.4814157,33.6257217 C79.4568824,33.152744 79.4536824,32.6998706 79.4718157,32.2755663 C79.4814157,31.8533782 79.4846157,31.4650498 79.5123491,31.1126973 C79.5262157,30.9370501 79.5390157,30.770926 79.5518158,30.6174992 C79.5592824,30.4651306 79.5688824,30.3233431 79.5795491,30.1953111 C79.6222158,29.6821251 79.6766158,29.3742135 79.6766158,29.3742135 C79.6766158,29.3742135 79.9827491,29.4757926 80.4872825,29.7075199 C80.7390159,29.8239126 81.0408826,29.974165 81.3800826,30.1625095 C81.715016,30.3519122 82.0680827,30.5857558 82.4520828,30.8608658 C83.2286162,31.4089696 84.029683,32.1517667 84.7848831,33.0956058 C85.1422164,33.5706997 85.5038165,34.0934088 85.8110165,34.6669074 C85.9592832,34.9547148 86.1000832,35.2541615 86.2323499,35.5641893 C86.3624833,35.8742172 86.4947499,36.1958843 86.58435,36.5291907 C86.6814166,36.861439 86.7646166,37.1979197 86.8360833,37.5333424 C86.8702167,37.7015827 86.90755,37.868765 86.9310167,38.0370054 C86.9534167,38.2052457 86.9726167,38.372428 86.9886167,38.5396102 C87.0216833,38.8739747 87.0440833,39.206223 87.0568833,39.5342388 C87.0590167,39.6167718 87.0622167,39.6982467 87.06435,39.7797216 C87.0622167,39.8611965 87.0600833,39.9426714 87.05795,40.0230882 C87.05155,40.1839218 87.0440833,40.3447553 87.0344833,40.5034727 C87.0152833,40.8219654 86.98755,41.1330514 86.9544833,41.4377887 C86.9406167,41.5901573 86.9160833,41.7404097 86.88835,41.8874878 C86.8606167,42.0345658 86.8328833,42.1795277 86.80515,42.3234314 C86.6856833,42.8958719 86.56835,43.4344527 86.3944833,43.9190696 C86.2323499,44.4058028 86.0659499,44.8459788 85.9091499,45.2311329 C85.7342165,45.6131126 85.5688832,45.9411284 85.4270165,46.2077735 C85.2851498,46.4754767 85.1667498,46.6818093 85.0835498,46.8214805 C85.0024831,46.9611518 84.9480831,47.0331036 84.9480831,47.0331036 C84.9480831,47.0331036 84.8958164,46.9653842 84.7987497,46.8405266 Z M78.6270156,53.988097 C78.6238156,53.8717043 78.6216823,53.7553116 78.619549,53.6368027 C78.6152823,53.5182937 78.6110156,53.3976686 78.609949,53.2781015 C78.6024823,52.7977171 78.6344823,52.3173326 78.6910156,51.8305995 C78.9150157,49.8868412 79.5646158,48.190682 80.1822158,46.8966067 C80.3326158,46.5728234 80.4862159,46.2797254 80.6312826,46.0194289 C80.7720826,45.7580744 80.8894159,45.5274052 80.9992826,45.3390607 C81.2147493,44.9613134 81.3640826,44.7475741 81.3640826,44.7475741 C81.3640826,44.7475741 81.548616,44.9348605 81.827016,45.2893292 C81.9667494,45.4660345 82.1299494,45.6861226 82.3059494,45.9453609 C82.3944828,46.0755091 82.4851494,46.2151803 82.5779495,46.3654327 C82.6654161,46.5135689 82.7528828,46.6722862 82.8414162,46.8394685 C83.1891495,47.5081975 83.5635496,48.3398763 83.7715496,49.2763086 C83.8280829,49.5112102 83.8782163,49.7545768 83.920883,50.0042921 C83.9422163,50.1291497 83.9614163,50.2561235 83.9795496,50.3841555 C83.9923496,50.5100713 84.0019496,50.6381033 84.010483,50.7682515 C84.0414163,51.2867281 84.0446163,51.8327157 83.9902163,52.3892845 C83.9198163,52.9405627 83.8078163,53.4812597 83.6659496,54.0018525 C83.5080829,54.5160967 83.3096829,55.0049461 83.1016829,55.4705169 C83.0014162,55.7054186 82.8798162,55.9255066 82.7582161,56.1381878 C82.6366161,56.350869 82.5128828,56.5572016 82.3880828,56.7550692 C82.2622161,56.9518787 82.1406161,57.1444557 82.0104827,57.3222191 C81.8771494,57.4989244 81.7448827,57.6671648 81.6147493,57.8258821 C81.3544826,58.1443749 81.1091493,58.4290079 80.8766159,58.6702583 C80.6355492,58.9072762 80.4190159,59.1062019 80.2366158,59.2670354 C79.8718158,59.5887026 79.6456824,59.7548267 79.6456824,59.7548267 C79.6456824,59.7548267 79.5550158,59.4913559 79.4344824,59.0405987 C79.3736824,58.8152201 79.3054157,58.5432844 79.2360824,58.2353728 C79.163549,57.9253449 79.1038157,57.5878061 79.022749,57.2068845 C78.9470157,56.8291373 78.8766157,56.4249371 78.8190157,56.0038071 C78.7880823,55.792184 78.7688823,55.5805609 78.7400823,55.3572985 C78.7112823,55.1350943 78.686749,54.9086576 78.667549,54.6801046 C78.648349,54.4515516 78.6344823,54.2208825 78.6270156,53.988097 Z M77.2840821,57.5465396 C77.2840821,57.5465396 77.3651488,57.7433491 77.4664822,58.0946434 C77.5774155,58.4491121 77.6819489,58.9400777 77.7512822,59.5495523 C77.7854155,59.8532314 77.8088822,60.1854797 77.8131489,60.5410065 C77.8120822,60.8912428 77.7822155,61.2573508 77.7320822,61.6435629 C77.7064822,61.83614 77.6744822,62.0318913 77.6350155,62.2318752 C77.6147488,62.331338 77.5944822,62.4329171 77.5699488,62.5334381 C77.5432822,62.6318428 77.5144822,62.7313057 77.4835488,62.8307686 C77.3598155,63.22862 77.2030155,63.6349364 77.0088821,64.0401946 C76.8104821,64.4422785 76.5651487,64.8062703 76.3134153,65.1575646 C76.1854153,65.3310956 76.0574153,65.5035684 75.9187486,65.6612276 C75.7779486,65.8167706 75.6350153,65.967023 75.4899486,66.1109267 C75.3448819,66.2548304 75.1998152,66.3934436 75.0536819,66.5246499 C74.9075485,66.6547981 74.7646152,66.7838882 74.6120818,66.8939322 C74.3123484,67.1193108 74.0190151,67.3192947 73.7416817,67.496 C73.603015,67.5838235 73.4707483,67.6674147 73.3395483,67.7414828 C73.2051483,67.8113184 73.0782149,67.8769216 72.9566149,67.936176 C72.7144816,68.054685 72.5000815,68.1509735 72.3208815,68.2271578 C72.1416815,68.302284 71.9987481,68.3583641 71.9006148,68.39434 C71.8035481,68.4324322 71.7470148,68.4461877 71.7470148,68.4461877 C71.7470148,68.4461877 71.7480815,68.3922238 71.7512815,68.2906447 C71.7544815,68.1880075 71.7598148,68.0388132 71.7726148,67.8515268 C71.7982148,67.4769539 71.8472815,66.9521286 71.9454148,66.3532352 C71.9987481,66.0580209 72.0435482,65.719424 72.1139482,65.3840014 C72.1822148,65.0454044 72.2654148,64.6962263 72.3678149,64.3449319 C72.4648815,63.9862307 72.5726149,63.6158903 72.7091482,63.256131 C72.7763482,63.0751933 72.8510149,62.8963717 72.9320816,62.7186083 C73.0088816,62.5366124 73.0888816,62.3514422 73.1784816,62.1726207 C73.267015,61.9927411 73.3619483,61.8192101 73.462215,61.653086 C73.561415,61.4848456 73.6712817,61.3303607 73.769415,61.1663528 C73.9720817,60.8446857 74.1918151,60.5484134 74.4211484,60.2754195 C74.5384818,60.1410389 74.6483485,60.004542 74.7582152,59.8722775 C74.8691485,59.7410712 74.9811485,59.6151555 75.0942152,59.4955884 C75.2072819,59.3760213 75.3203486,59.2617449 75.4323486,59.152759 C75.4888819,59.0987951 75.5454153,59.0458893 75.5998153,58.9940416 C75.6531486,58.9400777 75.7054153,58.8882301 75.7566153,58.8363824 C76.1694153,58.4268917 76.5619487,58.1136895 76.8403487,57.8925434 C77.1112821,57.6671648 77.2840821,57.5465396 77.2840821,57.5465396 Z M65.331014,72.9124934 C65.0803473,72.9897358 64.8382139,73.027828 64.6259472,73.0659201 C64.4126139,73.1018961 64.2259472,73.1262327 64.0712805,73.1431626 C63.7619471,73.1770223 63.5816804,73.1812547 63.5816804,73.1812547 C63.5816804,73.1812547 63.6328804,73.00984 63.7384805,72.7294394 C63.8440805,72.4479807 64.0051472,72.057536 64.2216805,71.6205343 C64.6526139,70.7285429 65.2755473,69.6259865 66.1875474,68.7086004 C66.3048808,68.5964401 66.4211475,68.485338 66.5352808,68.375294 C66.6526142,68.2673662 66.7710142,68.1657871 66.8915475,68.0694986 C67.0110142,67.9742682 67.1336809,67.8832702 67.2563476,67.798621 C67.3800809,67.7139718 67.5038143,67.6356712 67.6222143,67.551022 C67.8622143,67.3880722 68.103281,67.2441685 68.3390144,67.1182527 C68.4574144,67.0547658 68.5747477,66.9965694 68.6888811,66.9415474 C68.8040811,66.8865254 68.9107478,66.8262128 69.0174144,66.7754233 C69.4419478,66.5669745 69.8216812,66.4220127 70.0958146,66.3278404 C70.2312813,66.2791671 70.3379479,66.2400168 70.411548,66.2135639 C70.4862146,66.1881692 70.526748,66.1754718 70.526748,66.1754718 C70.526748,66.1754718 70.536348,66.3468865 70.523548,66.6410426 C70.5096813,66.9341406 70.4606146,67.3351664 70.3550146,67.816609 C70.2483479,68.2959353 70.0840812,68.8577947 69.8024812,69.4058985 C69.6638145,69.6841829 69.5027478,69.9677578 69.3150145,70.2492166 C69.1283478,70.5306753 68.8990144,70.7867393 68.6504811,71.0459776 C67.6520809,72.085047 66.3400808,72.634209 65.331014,72.9124934 Z" id="wreath"></path>
                    <path d="M64.6693673,34.0187114 L64.5754898,34.0187114 C64.6571224,34.1272891 64.7346734,34.237224 64.8081427,34.3485162 C65.5707874,35.5029124 65.9597412,36.8630591 65.9224278,38.2450994 L65.9224278,45.9364742 C65.9224278,46.8359615 65.1914645,47.5651401 64.2897756,47.5651401 L62.2285523,47.5651401 C61.3268634,47.5651401 60.5959001,46.8359615 60.5959001,45.9364742 L60.5959001,44.7149747 L59.371411,44.7149747 C59.3228786,44.1243458 59.2190241,43.5395463 59.061207,42.9682306 C59.9403374,42.189024 60.4536853,41.07924 60.4775328,39.9063386 C60.4775328,39.4055239 60.4775328,38.9942857 60.4775328,38.6115492 C60.4197603,36.4044568 58.6409905,34.6282413 56.4285554,34.5683861 L55.7550864,34.5683861 L55.7142701,34.5683861 C55.5782157,34.5683861 55.4421614,34.5751722 55.3061071,34.5887444 C54.8552489,33.5265434 54.3187978,32.5025578 53.7020263,31.5268525 C52.4219309,29.7582288 50.4693835,28.5922107 48.3020292,28.302094 C46.3654187,27.9950978 44.4054662,27.8588492 42.4448896,27.8949275 C42.0040735,27.8949275 41.5591758,27.8949275 41.1061148,27.8949275 C41.4628163,27.0632059 41.8831026,26.2600777 42.3632569,25.4926453 C43.2533052,24.2880379 44.6039946,23.5052536 46.0938672,23.3305913 C47.893365,23.0668281 49.7125392,22.9605599 51.5305989,23.0130014 C53.3428094,22.9725249 55.1551083,23.0896894 56.9469225,23.3631646 C58.4367951,23.5378269 59.7874844,24.3206112 60.6775327,25.5252186 C61.2856956,26.3924832 62.253042,28.5626805 63.0203886,30.464148 C63.4977285,29.9760932 64.1418639,29.6853409 64.8244692,29.649815 L65.4203873,29.649815 C66.2985968,29.6587661 67.0045164,30.37388 66.9999782,31.2499793 C66.9999782,31.5879275 66.9999782,31.9503056 66.9999782,32.3941171 C66.9847082,33.2872187 66.2626136,34.0075502 65.3673261,34.022783 L64.6693673,34.0187114 Z M27,39.8615503 C27,39.4177389 27,39.0472174 27,38.7174125 C27.0109484,37.8555522 27.7074892,37.1589072 28.5714277,37.1457499 L29.1673458,37.1457499 C29.8499511,37.1812758 30.4940864,37.4720281 30.9714264,37.9600829 C31.7428546,36.0504721 32.710201,33.8884181 33.3142823,33.0170818 C34.2043305,31.8124745 35.5550199,31.0296901 37.0448925,30.8550278 C38.8381999,30.5674526 40.6532579,30.4366624 42.4693793,30.464148 C44.2815899,30.4236715 46.0938887,30.5408359 47.8857029,30.8143112 C49.3755755,30.9889734 50.7262649,31.7717578 51.6163131,32.9763652 C52.2203944,33.8477014 53.1877409,36.0138271 53.959169,37.9193662 C54.436509,37.4313115 55.0806443,37.1405591 55.7632497,37.1050333 L56.3591677,37.1050333 C57.2231062,37.1181906 57.919647,37.8148355 57.9305954,38.6766959 C57.9305954,39.014644 57.9305954,39.3770222 57.9305954,39.8208337 C57.9153253,40.7139353 57.1932308,41.4342668 56.2979432,41.4494996 L55.5101886,41.4494996 C55.5918212,41.5580773 55.6693722,41.6680123 55.7428415,41.7793044 C56.5054862,42.9337007 56.89444,44.2938474 56.8571266,45.6758876 L56.8571266,53.3713341 C56.8571266,54.2708214 56.1261633,55 55.2244744,55 L53.1632511,55 C52.2615622,55 51.5305989,54.2708214 51.5305989,53.3713341 L51.5305989,52.1498346 L33.38367,52.1498346 L33.38367,53.3713341 C33.38367,54.2708214 32.6527067,55 31.7510178,55 L29.6816312,55 C28.7799423,55 28.048979,54.2708214 28.048979,53.3713341 L28.048979,45.7125326 C28.0116656,44.3304923 28.4006195,42.9703457 29.1632641,41.8159494 C29.2367335,41.7046572 29.3142845,41.5947223 29.3959171,41.4861446 L28.6326522,41.4861446 C27.738918,41.4709783 27.0174405,40.7530616 27,39.8615503 Z M47.2571318,45.2768645 C47.2571282,45.9678828 47.8174864,46.5286937 48.5101924,46.5309372 L51.4897826,46.5309372 C52.1712986,46.5132728 52.7145017,45.9569459 52.7142717,45.2768645 L52.7142717,44.5032482 C52.7181891,44.1135201 52.5396528,43.744272 52.2314673,43.5047138 C51.9232818,43.2651556 51.5207197,43.1827053 51.142844,43.2817487 L48.1877436,44.0553651 C47.6373184,44.2055101 47.2580986,44.7076701 47.2652951,45.2768645 L47.2571318,45.2768645 Z M32.1959155,45.2768645 C32.1948307,45.6090903 32.3263702,45.92808 32.5614823,46.163382 C32.7965944,46.3986841 33.1159354,46.530939 33.4489761,46.5309372 L36.4040765,46.5309372 C37.0133384,46.5055858 37.5158475,46.0463932 37.5944589,45.4431663 C37.6730703,44.8399395 37.304957,44.2678423 36.7224437,44.0879384 L33.7673433,43.3143221 C33.3894675,43.2152786 32.9869055,43.2977289 32.67872,43.5372871 C32.3705344,43.7768454 32.1919982,44.1460934 32.1959155,44.5358215 L32.1959155,45.2768645 Z" id="Shape"></path>
                </g>
            </g>
        </g>
    </g>
</svg>