<?xml version="1.0" encoding="UTF-8"?>
<svg width="30px" height="29px" viewBox="0 0 30 29" version="1.1" xmlns="http://www.w3.org/2000/svg" xmlns:xlink="http://www.w3.org/1999/xlink">
    <!-- Generator: sketchtool 49.3 (51167) - http://www.bohemiancoding.com/sketch -->
    <title>D6D868A7-016E-4A06-98A5-9938534954C9</title>
    <desc>Created with sketchtool.</desc>
    <defs></defs>
    <g id="agency-rating" stroke="none" stroke-width="1" fill="none" fill-rule="evenodd">
        <g id="calltouch_awards_mainpage" transform="translate(-147.000000, -969.000000)">
            <g id="line" transform="translate(0.000000, 924.000000)">
                <g id="Group-4" transform="translate(146.000000, 36.000000)">
                    <g id="calendar-1" transform="translate(0.000000, 8.000000)">
                        <g id="Frame_-_24px">
                            <rect id="Rectangle-path" x="0" y="0" width="32" height="32"></rect>
                        </g>
                        <g id="Filled_Icons" transform="translate(1.333333, 1.333333)" fill="#1EB0CD" fill-rule="nonzero">
                            <path d="M26.6666667,2.66666667 L24,2.66666667 L24,0 L21.3333333,0 L21.3333333,6.66666667 L18.6666667,6.66666667 L18.6666667,2.66666667 L10.6666667,2.66666667 L10.6666667,0 L8,0 L8,6.66666667 L5.33333333,6.66666667 L5.33333333,2.66666667 L2.66666667,2.66666667 C1.196,2.66666667 0,3.864 0,5.33333333 L0,25.3333333 C0,26.8026667 1.196,28 2.66666667,28 L26.6666667,28 C28.1373333,28 29.3333333,26.8026667 29.3333333,25.3333333 L29.3333333,5.33333333 C29.3333333,3.86266667 28.1373333,2.66666667 26.6666667,2.66666667 Z M9.33333333,24 L4,24 L4,18.6666667 L9.33333333,18.6666667 L9.33333333,24 Z M9.33333333,16 L4,16 L4,10.6666667 L9.33333333,10.6666667 L9.33333333,16 Z M17.3333333,24 L12,24 L12,18.6666667 L17.3333333,18.6666667 L17.3333333,24 Z M17.3333333,16 L12,16 L12,10.6666667 L17.3333333,10.6666667 L17.3333333,16 Z M25.3333333,16 L20,16 L20,10.6666667 L25.3333333,10.6666667 L25.3333333,16 Z" id="Shape"></path>
                        </g>
                    </g>
                </g>
            </g>
        </g>
    </g>
</svg>