<?xml version="1.0" encoding="UTF-8"?>
<svg width="74px" height="77px" viewBox="0 0 74 77" version="1.1" xmlns="http://www.w3.org/2000/svg" xmlns:xlink="http://www.w3.org/1999/xlink">
    <!-- Generator: sketchtool 49.3 (51167) - http://www.bohemiancoding.com/sketch -->
    <title>9D9B0020-3408-48FE-A0DB-D5C57F0F25C2</title>
    <desc>Created with sketchtool.</desc>
    <defs></defs>
    <g id="agency-rating" stroke="none" stroke-width="1" fill="none" fill-rule="evenodd" opacity="0.5">
        <g id="calltouch_awards_mainpage" transform="translate(-121.000000, -5240.000000)" fill="#1F282C">
            <g id="reasons" transform="translate(0.000000, 5036.000000)">
                <g id="Group" transform="translate(121.000000, 202.000000)">
                    <g id="chess_icon" transform="translate(0.000000, 2.000000)">
                        <path d="M16.7096774,52.9375 L16.7096774,50.53125 L26.2580645,50.53125 L26.2580645,52.9375 L25.9,52.9375 L17.0677419,52.9375 L16.7096774,52.9375 Z M21.483871,42.109375 C22.8003548,42.109375 23.8709677,43.1885781 23.8709677,44.515625 C23.8709677,45.8426719 22.8003548,46.921875 21.483871,46.921875 C20.1673871,46.921875 19.0967742,45.8426719 19.0967742,44.515625 C19.0967742,43.1885781 20.1673871,42.109375 21.483871,42.109375 Z M24.2290323,55.34375 L26.1482581,60.6651719 L28.3909355,59.8434375 L26.7689032,55.34375 L28.6451613,55.34375 L28.6451613,48.125 L24.6085806,48.125 C25.6111613,47.2419062 26.2580645,45.959375 26.2580645,44.515625 C26.2580645,41.8615312 24.1168387,39.703125 21.483871,39.703125 C18.8509032,39.703125 16.7096774,41.8615312 16.7096774,44.515625 C16.7096774,45.959375 17.3565806,47.2419062 18.3591613,48.125 L14.3225806,48.125 L14.3225806,55.34375 L16.1988387,55.34375 L12.2935484,66.171875 L9.5483871,66.171875 L9.5483871,69.78125 L8.35483871,69.78125 L8.35483871,77 L22.6774194,77 L22.6774194,74.59375 L10.7419355,74.59375 L10.7419355,72.1875 L22.6774194,72.1875 L22.6774194,69.78125 L11.9354839,69.78125 L11.9354839,68.578125 L23.8709677,68.578125 L23.8709677,66.171875 L14.8334194,66.171875 L18.7387097,55.34375 L24.2290323,55.34375 Z" id="Fill-1"></path>
                        <path d="M44.1612903,39.703125 L44.1612903,42.109375 L42.7517097,42.109375 L33.6353871,42.109375 L32.2258065,42.109375 L32.2258065,39.703125 L34.053129,39.703125 L42.3339677,39.703125 L44.1612903,39.703125 Z M35.3517097,45.71875 L35.5904194,44.515625 L40.7966774,44.515625 L41.0353871,45.71875 L35.3517097,45.71875 Z M45.0922581,66.171875 L31.2948387,66.171875 L34.8754839,48.125 L41.5116129,48.125 L45.0922581,66.171875 Z M28.6451613,69.78125 L47.7419355,69.78125 L47.7419355,68.578125 L28.6451613,68.578125 L28.6451613,69.78125 Z M27.4516129,74.59375 L48.9354839,74.59375 L48.9354839,72.1875 L27.4516129,72.1875 L27.4516129,74.59375 Z M35.8064516,33.8294687 L38.1935484,32.6263437 L40.5806452,33.8294687 L41.2585806,33.4877812 L40.4195161,37.296875 L35.9675806,37.296875 L35.1285161,33.4877812 L35.8064516,33.8294687 Z M37,26.46875 C37,25.8058281 37.5347097,25.265625 38.1935484,25.265625 C38.85,25.265625 39.3835161,25.8010156 39.3870968,26.4615313 C39.3429355,26.6805 38.8297097,27.1461094 38.1935484,27.5214844 C37.5526129,27.1449062 37.0381935,26.6768906 37,26.46875 Z M44.6769032,29.0747187 L40.5806452,31.1392812 L38.4632903,30.0721094 L38.6805161,29.9734531 C39.1985161,29.7400469 41.7741935,28.4755625 41.7741935,26.46875 C41.7741935,24.4787813 40.1676774,22.859375 38.1935484,22.859375 C36.2194194,22.859375 34.6129032,24.4787813 34.6129032,26.46875 C34.6129032,28.4755625 37.1885806,29.7400469 37.7065806,29.9734531 L37.9238065,30.0721094 L35.8064516,31.1392812 L31.7101935,29.0747187 L33.5231935,37.296875 L29.8387097,37.296875 L29.8387097,44.515625 L33.1567742,44.515625 L32.9192581,45.71875 L31.0322581,45.71875 L31.0322581,48.125 L32.4418387,48.125 L28.8611935,66.171875 L26.2580645,66.171875 L26.2580645,69.78125 L25.0645161,69.78125 L25.0645161,77 L51.3225806,77 L51.3225806,69.78125 L50.1290323,69.78125 L50.1290323,66.171875 L47.5259032,66.171875 L43.9452581,48.125 L45.3548387,48.125 L45.3548387,45.71875 L43.4678387,45.71875 L43.2303226,44.515625 L46.5483871,44.515625 L46.5483871,37.296875 L42.8639032,37.296875 L44.6769032,29.0747187 Z" id="Fill-3"></path>
                        <path d="M51.8225581,46.921875 L52.2999774,44.515625 L57.5062355,44.515625 L57.9836548,46.921875 L51.8225581,46.921875 Z M66.8385903,66.171875 L64.2354613,66.171875 L60.8947194,49.328125 L62.0643968,49.328125 L62.0643968,46.921875 L60.4161065,46.921875 L59.9398806,44.515625 L64.1901065,44.515625 L65.6092355,38.7923594 L65.6450419,34.890625 L59.6773,34.890625 L59.6773,37.296875 L58.4837516,37.296875 L58.4837516,34.890625 L52.5160097,34.890625 L52.5160097,37.296875 L51.3224613,37.296875 L51.3224613,34.890625 L46.5482677,34.890625 L46.5482677,37.296875 L48.9353645,37.296875 L48.9353645,39.703125 L54.9031065,39.703125 L54.9031065,37.296875 L56.0966548,37.296875 L56.0966548,39.703125 L62.0643968,39.703125 L62.0643968,37.296875 L63.2579452,37.296875 L63.2579452,38.3520156 L62.3257839,42.109375 L59.4612677,42.109375 L50.3449452,42.109375 L48.9353645,42.109375 L48.9353645,44.515625 L49.8663323,44.515625 L49.3901065,46.921875 L47.7418161,46.921875 L47.7418161,49.328125 L48.9126871,49.328125 L47.2870742,57.5141875 L49.6276226,57.9858125 L51.3463323,49.328125 L58.4610742,49.328125 L61.8018161,66.171875 L53.7095581,66.171875 L52.5160097,66.171875 L52.5160097,68.578125 L53.7095581,68.578125 L64.4514935,68.578125 L64.4514935,69.78125 L53.7095581,69.78125 L53.7095581,72.1875 L65.6450419,72.1875 L65.6450419,74.59375 L53.7095581,74.59375 L53.7095581,77 L68.0321387,77 L68.0321387,69.78125 L66.8385903,69.78125 L66.8385903,66.171875 Z" id="Fill-5"></path>
                        <polygon id="Fill-7" points="0 4.8125 2.38709677 4.8125 2.38709677 0 0 0"></polygon>
                        <polygon id="Fill-9" points="0 9.625 2.38709677 9.625 2.38709677 7.21875 0 7.21875"></polygon>
                        <polygon id="Fill-10" points="0 16.84375 2.38709677 16.84375 2.38709677 12.03125 0 12.03125"></polygon>
                        <polygon id="Fill-11" points="0 21.65625 2.38709677 21.65625 2.38709677 19.25 0 19.25"></polygon>
                        <polygon id="Fill-12" points="0 26.46875 2.38709677 26.46875 2.38709677 24.0625 0 24.0625"></polygon>
                        <polygon id="Fill-13" points="0 33.6875 2.38709677 33.6875 2.38709677 28.875 0 28.875"></polygon>
                        <polygon id="Fill-14" points="0 40.90625 2.38709677 40.90625 2.38709677 36.09375 0 36.09375"></polygon>
                        <polygon id="Fill-15" points="0 45.71875 2.38709677 45.71875 2.38709677 43.3125 0 43.3125"></polygon>
                        <polygon id="Fill-16" points="0 52.9375 2.38709677 52.9375 2.38709677 48.125 0 48.125"></polygon>
                        <polygon id="Fill-17" points="0 57.75 2.38709677 57.75 2.38709677 55.34375 0 55.34375"></polygon>
                        <polygon id="Fill-18" points="0 62.5625 2.38709677 62.5625 2.38709677 60.15625 0 60.15625"></polygon>
                        <polygon id="Fill-19" points="0 69.78125 2.38709677 69.78125 2.38709677 64.96875 0 64.96875"></polygon>
                        <polygon id="Fill-20" points="0 74.59375 2.38709677 74.59375 2.38709677 72.1875 0 72.1875"></polygon>
                        <polygon id="Fill-21" points="7.16129032 4.8125 9.5483871 4.8125 9.5483871 0 7.16129032 0"></polygon>
                        <polygon id="Fill-22" points="7.16129032 9.625 9.5483871 9.625 9.5483871 7.21875 7.16129032 7.21875"></polygon>
                        <polygon id="Fill-23" points="7.16129032 14.4375 9.5483871 14.4375 9.5483871 12.03125 7.16129032 12.03125"></polygon>
                        <polygon id="Fill-24" points="7.16129032 21.65625 9.5483871 21.65625 9.5483871 16.84375 7.16129032 16.84375"></polygon>
                        <polygon id="Fill-25" points="7.16129032 28.875 9.5483871 28.875 9.5483871 24.0625 7.16129032 24.0625"></polygon>
                        <polygon id="Fill-26" points="7.16129032 33.6875 9.5483871 33.6875 9.5483871 31.28125 7.16129032 31.28125"></polygon>
                        <polygon id="Fill-27" points="7.16129032 40.90625 9.5483871 40.90625 9.5483871 36.09375 7.16129032 36.09375"></polygon>
                        <polygon id="Fill-28" points="7.16129032 45.71875 9.5483871 45.71875 9.5483871 43.3125 7.16129032 43.3125"></polygon>
                        <polygon id="Fill-29" points="7.16129032 50.53125 9.5483871 50.53125 9.5483871 48.125 7.16129032 48.125"></polygon>
                        <polygon id="Fill-30" points="7.16129032 57.75 9.5483871 57.75 9.5483871 52.9375 7.16129032 52.9375"></polygon>
                        <polygon id="Fill-31" points="7.16129032 62.5625 9.5483871 62.5625 9.5483871 60.15625 7.16129032 60.15625"></polygon>
                        <polygon id="Fill-32" points="14.3225806 4.8125 16.7096774 4.8125 16.7096774 0 14.3225806 0"></polygon>
                        <polygon id="Fill-33" points="14.3225806 9.625 16.7096774 9.625 16.7096774 7.21875 14.3225806 7.21875"></polygon>
                        <polygon id="Fill-34" points="14.3225806 16.84375 16.7096774 16.84375 16.7096774 12.03125 14.3225806 12.03125"></polygon>
                        <polygon id="Fill-35" points="14.3225806 21.65625 16.7096774 21.65625 16.7096774 19.25 14.3225806 19.25"></polygon>
                        <polygon id="Fill-36" points="14.3225806 26.46875 16.7096774 26.46875 16.7096774 24.0625 14.3225806 24.0625"></polygon>
                        <polygon id="Fill-37" points="14.3225806 33.6875 16.7096774 33.6875 16.7096774 28.875 14.3225806 28.875"></polygon>
                        <polygon id="Fill-38" points="14.3225806 38.5 16.7096774 38.5 16.7096774 36.09375 14.3225806 36.09375"></polygon>
                        <polygon id="Fill-39" points="21.483871 36.09375 23.8709677 36.09375 23.8709677 31.28125 21.483871 31.28125"></polygon>
                        <polygon id="Fill-40" points="21.483871 28.875 23.8709677 28.875 23.8709677 26.46875 21.483871 26.46875"></polygon>
                        <polygon id="Fill-41" points="21.483871 24.0625 23.8709677 24.0625 23.8709677 19.25 21.483871 19.25"></polygon>
                        <polygon id="Fill-42" points="21.483871 16.84375 23.8709677 16.84375 23.8709677 14.4375 21.483871 14.4375"></polygon>
                        <polygon id="Fill-43" points="21.483871 12.03125 23.8709677 12.03125 23.8709677 9.625 21.483871 9.625"></polygon>
                        <polygon id="Fill-44" points="21.483871 7.21875 23.8709677 7.21875 23.8709677 2.40625 21.483871 2.40625"></polygon>
                        <polygon id="Fill-45" points="28.6451613 26.46875 31.0322581 26.46875 31.0322581 21.65625 28.6451613 21.65625"></polygon>
                        <polygon id="Fill-46" points="28.6451613 19.25 31.0322581 19.25 31.0322581 16.84375 28.6451613 16.84375"></polygon>
                        <polygon id="Fill-47" points="28.6451613 14.4375 31.0322581 14.4375 31.0322581 9.625 28.6451613 9.625"></polygon>
                        <polygon id="Fill-48" points="28.6451613 7.21875 31.0322581 7.21875 31.0322581 4.8125 28.6451613 4.8125"></polygon>
                        <polygon id="Fill-49" points="42.9677419 21.65625 45.3548387 21.65625 45.3548387 16.84375 42.9677419 16.84375"></polygon>
                        <polygon id="Fill-50" points="42.9677419 14.4375 45.3548387 14.4375 45.3548387 12.03125 42.9677419 12.03125"></polygon>
                        <polygon id="Fill-51" points="42.9677419 9.625 45.3548387 9.625 45.3548387 4.8125 42.9677419 4.8125"></polygon>
                        <polygon id="Fill-52" points="42.9677419 2.40625 45.3548387 2.40625 45.3548387 0 42.9677419 0"></polygon>
                        <polygon id="Fill-53" points="50.1290323 30.078125 52.516129 30.078125 52.516129 25.265625 50.1290323 25.265625"></polygon>
                        <polygon id="Fill-54" points="50.1290323 22.859375 52.516129 22.859375 52.516129 20.453125 50.1290323 20.453125"></polygon>
                        <polygon id="Fill-55" points="50.1290323 18.046875 52.516129 18.046875 52.516129 13.234375 50.1290323 13.234375"></polygon>
                        <polygon id="Fill-56" points="50.1290323 10.828125 52.516129 10.828125 52.516129 8.421875 50.1290323 8.421875"></polygon>
                        <polygon id="Fill-57" points="50.1290323 6.015625 52.516129 6.015625 52.516129 1.203125 50.1290323 1.203125"></polygon>
                        <polygon id="Fill-58" points="64.4516129 30.078125 66.8387097 30.078125 66.8387097 25.265625 64.4516129 25.265625"></polygon>
                        <polygon id="Fill-59" points="64.4516129 22.859375 66.8387097 22.859375 66.8387097 20.453125 64.4516129 20.453125"></polygon>
                        <polygon id="Fill-60" points="64.4516129 18.046875 66.8387097 18.046875 66.8387097 13.234375 64.4516129 13.234375"></polygon>
                        <polygon id="Fill-61" points="64.4516129 10.828125 66.8387097 10.828125 66.8387097 8.421875 64.4516129 8.421875"></polygon>
                        <polygon id="Fill-62" points="64.4516129 6.015625 66.8387097 6.015625 66.8387097 1.203125 64.4516129 1.203125"></polygon>
                        <polygon id="Fill-63" points="57.2903226 8.421875 59.6774194 8.421875 59.6774194 3.609375 57.2903226 3.609375"></polygon>
                        <polygon id="Fill-64" points="57.2903226 13.234375 59.6774194 13.234375 59.6774194 10.828125 57.2903226 10.828125"></polygon>
                        <polygon id="Fill-65" points="57.2903226 18.046875 59.6774194 18.046875 59.6774194 15.640625 57.2903226 15.640625"></polygon>
                        <polygon id="Fill-66" points="57.2903226 25.265625 59.6774194 25.265625 59.6774194 20.453125 57.2903226 20.453125"></polygon>
                        <polygon id="Fill-67" points="57.2903226 30.078125 59.6774194 30.078125 59.6774194 27.671875 57.2903226 27.671875"></polygon>
                        <polygon id="Fill-68" points="35.8064516 2.40625 38.1935484 2.40625 38.1935484 0 35.8064516 0"></polygon>
                        <polygon id="Fill-69" points="35.8064516 7.21875 38.1935484 7.21875 38.1935484 4.8125 35.8064516 4.8125"></polygon>
                        <polygon id="Fill-70" points="35.8064516 14.4375 38.1935484 14.4375 38.1935484 9.625 35.8064516 9.625"></polygon>
                        <polygon id="Fill-71" points="35.8064516 19.25 38.1935484 19.25 38.1935484 16.84375 35.8064516 16.84375"></polygon>
                        <polygon id="Fill-72" points="71.6129032 64.96875 74 64.96875 74 60.15625 71.6129032 60.15625"></polygon>
                        <polygon id="Fill-73" points="71.6129032 57.75 74 57.75 74 55.34375 71.6129032 55.34375"></polygon>
                        <polygon id="Fill-74" points="71.6129032 52.9375 74 52.9375 74 48.125 71.6129032 48.125"></polygon>
                        <polygon id="Fill-75" points="71.6129032 45.71875 74 45.71875 74 43.3125 71.6129032 43.3125"></polygon>
                        <polygon id="Fill-76" points="71.6129032 40.90625 74 40.90625 74 36.09375 71.6129032 36.09375"></polygon>
                        <polygon id="Fill-77" points="71.6129032 33.6875 74 33.6875 74 28.875 71.6129032 28.875"></polygon>
                        <polygon id="Fill-78" points="71.6129032 26.46875 74 26.46875 74 24.0625 71.6129032 24.0625"></polygon>
                        <polygon id="Fill-79" points="71.6129032 21.65625 74 21.65625 74 16.84375 71.6129032 16.84375"></polygon>
                        <polygon id="Fill-80" points="71.6129032 14.4375 74 14.4375 74 12.03125 71.6129032 12.03125"></polygon>
                        <polygon id="Fill-81" points="71.6129032 9.625 74 9.625 74 7.21875 71.6129032 7.21875"></polygon>
                        <polygon id="Fill-82" points="71.6129032 4.8125 74 4.8125 74 0 71.6129032 0"></polygon>
                        <polygon id="Fill-83" points="71.6129032 72.1875 74 72.1875 74 67.375 71.6129032 67.375"></polygon>
                        <polygon id="Fill-84" points="71.6129032 77 74 77 74 74.59375 71.6129032 74.59375"></polygon>
                    </g>
                </g>
            </g>
        </g>
    </g>
</svg>