<?xml version="1.0" encoding="UTF-8"?>
<svg width="188px" height="150px" viewBox="0 0 188 150" version="1.1" xmlns="http://www.w3.org/2000/svg" xmlns:xlink="http://www.w3.org/1999/xlink">
    <!-- Generator: sketchtool 49.3 (51167) - http://www.bohemiancoding.com/sketch -->
    <title>431958BD-3444-45B0-BE92-0CDA7976A738</title>
    <desc>Created with sketchtool.</desc>
    <defs></defs>
    <g id="agency-rating" stroke="none" stroke-width="1" fill="none" fill-rule="evenodd">
        <g id="calltouch_awards_mainpage" transform="translate(-720.000000, -97.000000)">
            <g id="header">
                <g id="composition" transform="translate(720.000000, 97.000000)">
                    <g id="logo" transform="translate(59.452991, 37.200000)">
                        <path d="M39.0498252,33.3485478 L60.8794209,54.4902325 C70.7959671,42.1950042 70.758401,24.4451689 60.2957713,12.0162184 L39.0498252,33.3485478 Z" id="Fill-23" fill="#1F282C"></path>
                        <path d="M25.1054552,57.5961148 L34.0379516,48.7876066 L42.9704481,57.5961148 L25.1054552,57.5961148 Z M33.9747306,38.4440019 L5.76988511,66.7633242 C22.6957244,80.1165854 46.6006205,79.6494607 62.8594316,66.4190795 L33.9747306,38.4440019 Z" id="Fill-25" fill="#FFFFFF"></path>
                        <path d="M55.4516626,7.32400941 C41.9296826,-3.30782118 22.1753874,-2.34556235 9.79321932,10.0870024 C-2.58894881,22.5195671 -3.20833209,42.0132141 7.81504106,55.1541459 L55.4516626,7.32400941 Z" id="Fill-20" fill="#1F282C"></path>
                    </g>
                    <g id="wreath" fill="#FFFFFF" fill-rule="nonzero">
                        <path d="M62.0755111,0.242485528 C62.4995556,0.304727619 62.8839111,0.371119182 63.2264889,0.435436008 C64.6072444,0.688553842 65.3655111,0.914700104 65.3655111,0.914700104 C58.0648444,15.2158577 43.9585778,24.3301745 30.1969778,30.4257498 C30.1969778,30.4257498 30.1719111,30.2245004 30.1426667,29.8510479 C30.1113333,29.4755206 30.0737333,28.9236407 30.0925333,28.236903 C30.1029778,27.5460158 30.1364,26.7015981 30.2178667,25.7243973 C30.2512889,25.23061 30.3306667,24.7264491 30.4163111,24.1849429 C30.5040444,23.6455115 30.6064,23.074959 30.7275556,22.4795097 C30.7923111,22.1807476 30.8570667,21.8778361 30.9239111,21.5666257 C31.0012,21.2595647 31.0910222,20.9525037 31.1829333,20.6371438 C31.3688444,20.0064239 31.5756444,19.352882 31.8054222,18.6827421 C32.0247556,18.0022286 32.3192889,17.3424625 32.6242667,16.6557247 C32.9334222,15.9731365 33.2634667,15.2698009 33.6332,14.5706147 C34.0238222,13.8859517 34.4436889,13.1929898 34.8928,12.4979531 C35.1184,12.1535469 35.344,11.798767 35.5925778,11.4585102 C35.8453333,11.1224029 36.1064444,10.7862956 36.3759111,10.4522631 C36.6453778,10.1182305 36.9211111,9.78419797 37.2052,9.45224015 C37.4934667,9.12235708 37.7733778,8.78210032 38.0929778,8.47503934 C38.7196444,7.84846896 39.3755556,7.23227227 40.0607111,6.63059873 C40.3970222,6.32353775 40.7584,6.04967255 41.1218667,5.78203156 C41.4853333,5.51231584 41.8488,5.25089906 42.2143556,4.99778123 C42.5799111,4.74258866 42.9454667,4.49776977 43.3131111,4.25917509 C43.6849333,4.02472988 44.0713778,3.81933098 44.4494667,3.60978261 C45.2098222,3.19691008 45.9680889,2.81308386 46.7200889,2.46037868 C47.4950667,2.14086928 48.2616889,1.84833146 49.0136889,1.58276521 C49.3896889,1.44998208 49.7615111,1.3254979 50.1312444,1.20516319 C50.5072444,1.0972769 50.8832444,1.00391377 51.2529778,0.912625367 C51.9924444,0.732123305 52.7152,0.574443343 53.4128889,0.437510745 C53.7596444,0.362820236 54.1105778,0.317176037 54.4573333,0.27568131 C54.8040889,0.232111847 55.1424889,0.194766593 55.4746222,0.161570811 C56.1388889,0.0951792481 56.776,0.0474603122 57.3838667,0.0121897944 C58.6142222,-0.0210059871 59.7380444,0.0329371578 60.7114667,0.0951792481 C60.9537778,0.115926612 61.1877333,0.132524502 61.4154222,0.151197129 C61.6431111,0.178168702 61.8645333,0.211364483 62.0755111,0.242485528 Z M8.73991111,47.0340143 C8.42448889,45.6460157 8.19888889,44.1439065 8.03804444,42.5235375 C7.97328889,41.716465 7.95657778,40.8927947 7.9524,40.0380033 C7.9524,39.6106076 7.95866667,39.1769877 7.9712,38.7392184 C7.98373333,38.2993743 8.00044444,37.853306 8.05057778,37.4113871 C8.2344,35.6374875 8.49133333,33.7557017 9.04071111,31.8759905 C9.17022222,31.4029507 9.30808889,30.9319855 9.45431111,30.4651698 C9.59844444,29.9962794 9.74884444,29.5315385 9.93266667,29.0813207 C10.2856889,28.1746609 10.6658667,27.2825243 11.0711111,26.4069855 C11.1734667,26.1891382 11.2737333,25.9712909 11.3760889,25.7555183 C11.4888889,25.5438952 11.6016889,25.3322721 11.7124,25.1227238 C11.938,24.703627 12.1698667,24.2886797 12.4038222,23.8799567 C12.8821778,23.0645853 13.3396444,22.2533634 13.8785778,21.5064583 C14.4028889,20.7512543 14.9355556,20.0209471 15.4724,19.3176115 C15.6081778,19.1412589 15.7418667,18.966981 15.8755556,18.7947779 C16.0176,18.6267243 16.1596444,18.4607454 16.2996,18.2947664 C16.5816,17.9648834 16.8656889,17.6432992 17.1476889,17.3279393 C17.7137778,16.6992942 18.2652444,16.0913965 18.8313333,15.5291429 C19.4078667,14.9751883 19.9760444,14.45028 20.5275111,13.9564928 C20.8032444,13.7116739 21.0768889,13.4730792 21.3421778,13.238634 C21.4758667,13.1224487 21.6074667,13.0083382 21.7390667,12.8963025 C21.8748444,12.7884162 22.0106222,12.6826046 22.1443111,12.5767931 C22.6811556,12.1597711 23.1950222,11.7738701 23.6838222,11.4170155 C24.1726222,11.0601608 24.6342667,10.7344272 25.0624889,10.4398147 C25.5053333,10.153501 25.9189333,9.90245794 26.2928444,9.67838642 C27.7905778,8.78210032 28.6825333,8.34018148 28.6825333,8.34018148 C28.6825333,8.34018148 28.6386667,9.21157074 28.4715556,10.6908578 C28.3900889,11.4315386 28.2772889,12.3195258 28.1331556,13.3216234 C28.0099111,14.3423937 27.8636889,15.4855734 27.6756889,16.7055184 C27.4730667,17.913015 27.2996889,19.2553694 27.0657333,20.6329943 C26.9550222,21.3259562 26.8088,22.012694 26.6939111,22.7430012 C26.5748444,23.4691589 26.4432444,24.2056903 26.2949333,24.9463712 C26.2197333,25.3135995 26.1424444,25.6849773 26.0630667,26.0605046 C25.9795111,26.4318824 25.9189333,26.8219328 25.8374667,27.2036843 C25.6828889,27.969262 25.5116,28.7389892 25.3173333,29.5087164 C25.2149778,29.8904679 25.1251556,30.282593 25.0353333,30.6788677 C24.9413333,31.0730676 24.8431556,31.4651928 24.7387111,31.8593927 C24.5381778,32.6498672 24.2791556,33.4216691 24.064,34.2308163 C23.8342222,35.0337393 23.5835556,35.8138401 23.312,36.5731936 C23.0467111,37.3366966 22.8064889,38.1043491 22.5244889,38.8388057 C22.3866222,39.2081088 22.2445778,39.5732624 22.0983556,39.9321918 C21.9500444,40.2911212 21.8288889,40.6604242 21.6868444,41.0152041 C21.4111111,41.7289134 21.1207556,42.4260249 20.8199556,43.1023889 C20.5275111,43.7829024 20.2601333,44.4613412 19.9656,45.1107337 C19.6836,45.7642756 19.3577333,46.3866965 19.0966222,47.0153416 C18.8208889,47.6398373 18.5409778,48.2415108 18.2568889,48.822437 C18.1127556,49.1129001 17.9707111,49.397139 17.8307556,49.6772284 C17.6991556,49.9614673 17.5717333,50.2394819 17.4443111,50.5112724 C17.1852889,51.0548533 16.9283556,51.5756121 16.6756,52.0693994 C16.5460889,52.316293 16.4207556,52.5569624 16.2996,52.7914076 C16.1784444,53.0258528 16.0719111,53.2582233 15.9612,53.4802201 C15.5225333,54.3723567 15.1110222,55.1503828 14.758,55.7914764 C14.5762667,56.1109858 14.4300444,56.4014489 14.2984444,56.652492 C14.1647556,56.9035351 14.0498667,57.1172329 13.9558667,57.2915108 C13.7595111,57.6379917 13.6550667,57.824718 13.6550667,57.824718 C13.6550667,57.824718 13.1558222,57.2064466 12.408,56.0259216 C12.0278222,55.4346217 11.6392889,54.7105387 11.2006222,53.8412242 C10.7724,52.9760592 10.2982222,51.9656626 9.87835556,50.828707 C9.47311111,49.695901 9.08248889,48.4282371 8.73991111,47.0340143 Z M8.93208889,89.8005545 C8.18008889,89.0743968 7.3884,88.2424275 6.58835556,87.2984225 C6.17684444,86.8274573 5.81337778,86.3212217 5.42902222,85.7921639 C5.04884444,85.2610314 4.67284444,84.7029273 4.30102222,84.1157769 C3.53648889,82.9435509 2.90146667,81.6489154 2.28733333,80.2484684 C1.65648889,78.8521708 1.19484444,77.3376133 0.795866667,75.7296926 C0.697688889,75.3292685 0.605777778,74.9246949 0.520133333,74.5221961 C0.449111111,74.1176225 0.386444444,73.7130489 0.330044444,73.3084753 C0.217244444,72.5014029 0.129511111,71.6922557 0.0647555556,70.8893327 C-0.0146222222,70.0864098 1.58252318e-14,69.289711 0.00417777778,68.5013112 C0.0125333333,67.7129114 0.0417777778,66.93696 0.0856444444,66.173457 C0.210977778,64.6506006 0.438666667,63.183762 0.685155556,61.806137 C0.981777778,60.4305868 1.32644444,59.1442503 1.6732,57.9699495 C2.03666667,56.7977235 2.45653333,55.7416827 2.82626667,54.8142756 C3.01635556,54.3516094 3.19182222,53.9200642 3.37355556,53.5258643 C3.56364444,53.1316644 3.7412,52.772735 3.90622222,52.4511509 C4.56422222,51.1627396 4.99871111,50.4531798 4.99871111,50.4531798 C4.99871111,50.4531798 5.39142222,51.0859743 5.98257778,52.2084067 C6.2792,52.7685855 6.62595556,53.4511738 6.99986667,54.2312746 C7.38422222,55.0134502 7.82915556,55.9014374 8.26573333,56.8661898 C9.118,58.7936199 10.1269333,61.0550825 10.998,63.5074208 C11.4742667,64.7398142 11.8795111,66.0178518 12.2784889,67.3436083 C12.4894667,68.007524 12.6837333,68.6818133 12.8592,69.3664763 C13.0367556,70.053214 13.1767111,70.7482507 13.3542667,71.4557358 C13.5172,72.1632209 13.6550667,72.8665565 13.7699556,73.5615932 C13.8221778,73.9101489 13.8764889,74.2566298 13.9287111,74.6010361 C13.9892889,74.9454423 14.0436,75.2877738 14.0937333,75.6280305 C14.194,76.3106188 14.2733778,76.9849081 14.3318667,77.6508985 C14.3464889,77.8168774 14.3590222,77.9828563 14.3736444,78.1488352 C14.3903556,78.3148141 14.4091556,78.4787183 14.4279556,78.6426225 C14.4634667,78.9704308 14.4927111,79.2940897 14.5198667,79.6177485 C14.5741778,80.2629915 14.6096889,80.8978609 14.6326667,81.5223565 C14.6389333,81.833567 14.6619111,82.1406279 14.6807111,82.4456142 C14.6953333,82.7506004 14.7099556,83.0514372 14.7245778,83.3481245 C14.7788889,84.5369484 14.7433778,85.6759787 14.7768,86.7237205 C14.7872444,87.7756118 14.7642667,88.7486632 14.7224889,89.6200524 C14.7162222,90.4852175 14.6911556,91.2466457 14.6577333,91.8815151 C14.6243111,92.5143096 14.5846222,93.0184706 14.5532889,93.3649515 C14.5177778,93.7114325 14.5073333,93.896084 14.5073333,93.896084 C14.5073333,93.896084 14.3444,93.8193188 14.0644889,93.6595641 C13.7866667,93.4998094 13.3814222,93.2570653 12.878,92.9271822 C12.3745778,92.5972991 11.7729778,92.1761276 11.1003556,91.6595183 C10.4277333,91.1408342 9.67155556,90.528787 8.93208889,89.8005545 Z M23.4624,120.01079 C22.8190222,119.811616 22.0691111,119.577171 21.3129333,119.236914 C20.5463111,118.91118 19.7212,118.52113 18.8605778,118.052239 C18.4323556,117.815719 17.9811556,117.568826 17.5508444,117.286662 C17.1205333,117.004497 16.6839556,116.701586 16.2432,116.377927 C15.8024444,116.054268 15.3596,115.709862 14.9167556,115.340559 C14.6953333,115.157982 14.4739111,114.967106 14.2524889,114.772081 C14.0394222,114.572906 13.8305333,114.367508 13.6195556,114.155884 C12.784,113.309392 11.9421778,112.377835 11.1755556,111.336318 C10.434,110.286501 9.76973333,109.193115 9.17857778,108.087281 C8.62293333,106.968998 8.15711111,105.834117 7.74768889,104.724133 C7.53462222,104.170178 7.37377778,103.612074 7.22337778,103.064344 C7.07297778,102.516614 6.9372,101.977182 6.81395556,101.450199 C6.69071111,100.923216 6.58,100.408681 6.48391111,99.90867 C6.40662222,99.404509 6.33977778,98.916946 6.28337778,98.4459808 C6.17057778,97.5061253 6.09746667,96.6409602 6.05151111,95.8733078 C6.016,95.1035806 6.0348,94.4272166 6.04733333,93.8711872 C6.08075556,92.7591285 6.14968889,92.1221845 6.14968889,92.1221845 C6.14968889,92.1221845 6.65102222,92.4230212 7.46568889,93.0018727 C7.87302222,93.290261 8.35764444,93.6471157 8.89866667,94.0662124 C9.16813333,94.2757608 9.45222222,94.4998323 9.74675556,94.7405017 C10.0517333,94.9790964 10.3713333,95.2301395 10.6972,95.4977805 C12.0152889,96.564195 13.4085778,97.8671294 14.9021333,99.3401922 C15.2676889,99.71157 15.6311556,100.095396 15.9883556,100.491671 C16.1659111,100.690846 16.3434667,100.892095 16.5189333,101.097494 C16.7048444,101.298743 16.8886667,101.504142 17.0704,101.713691 C17.8036,102.547735 18.4887556,103.441946 19.1488444,104.3901 C19.8402667,105.327881 20.4460444,106.28226 20.9828889,107.242863 C21.5489778,108.191017 22.0670222,109.132948 22.5119556,110.070729 C22.7271111,110.543768 22.9610667,110.998136 23.1762222,111.448354 C23.3913778,111.900646 23.5919111,112.346714 23.7778222,112.786558 C23.9679111,113.226403 24.1329333,113.662097 24.3063111,114.079119 C24.4859556,114.491992 24.6509778,114.896565 24.8055556,115.28869 C25.1147111,116.070866 25.3674667,116.811547 25.5930667,117.469238 C25.8374667,118.116556 26.0338222,118.695408 26.1884,119.178821 C26.4996444,120.145648 26.6396,120.730724 26.6396,120.730724 C26.6396,120.730724 26.0902222,120.668482 25.1502222,120.456859 C24.6802222,120.351047 24.1120444,120.205816 23.4624,120.01079 Z M42.7616444,138.932386 C41.9971111,139.011226 40.8983556,139.075543 39.5489333,139.005002 C38.8679556,138.98218 38.1660889,138.880517 37.3973778,138.753959 C36.6328444,138.62325 35.8223556,138.444823 34.9784444,138.206228 C34.1470667,137.955185 33.3052444,137.625302 32.4362667,137.235252 C32.0017778,137.040226 31.5672889,136.824454 31.1286222,136.592083 C30.6983111,136.351414 30.2784444,136.083773 29.8544,135.799534 C29.4324444,135.51322 29.0209333,135.216533 28.6219556,134.907397 C28.2271556,134.598262 27.8281778,134.289126 27.4772444,133.94472 C26.7607556,133.268356 26.0944,132.56502 25.4823556,131.85961 C25.1711111,131.511054 24.8932889,131.1459 24.6300889,130.782821 C24.3648,130.421817 24.1141333,130.060813 23.876,129.706033 C23.6378667,129.351253 23.4122667,129.002698 23.2012889,128.660366 C23.0968444,128.488163 22.9944889,128.320109 22.8942222,128.154131 C22.8023111,127.984002 22.7124889,127.815949 22.6247556,127.64997 C21.9354222,126.322138 21.432,125.178959 21.1291111,124.355288 C20.8408444,123.523319 20.7113333,123.029532 20.7113333,123.029532 C20.7113333,123.029532 21.1667111,123.106297 21.9333333,123.297173 C22.6874222,123.496347 23.8049778,123.770213 25.0750222,124.189309 C25.7100444,124.396783 26.3889333,124.639527 27.0887111,124.919617 C27.8031111,125.193482 28.5572,125.490169 29.3112889,125.83665 C29.6893778,126.008853 30.0674667,126.193505 30.4476444,126.38853 C30.6377333,126.488117 30.8257333,126.589779 31.0179111,126.691441 C31.2142667,126.788954 31.4106222,126.890616 31.6069778,126.996428 C32.3882222,127.417599 33.1652889,127.888564 33.9193778,128.421772 C34.6818222,128.948755 35.4275556,129.479887 36.0980889,130.054589 C36.4385778,130.336753 36.7560889,130.635515 37.0798667,130.919754 C37.4057333,131.201918 37.7211556,131.488232 38.0219556,131.774545 C38.3227556,132.060859 38.6131111,132.351322 38.8909333,132.641785 C39.1687556,132.932248 39.4277778,133.228936 39.6993333,133.498651 C40.2299111,134.050531 40.7124444,134.594112 41.1469333,135.114871 C41.3620889,135.378362 41.5668,135.63148 41.7631556,135.87215 C41.9657778,136.106595 42.1537778,136.332741 42.3292444,136.548514 C42.6801778,136.980059 42.9788889,137.370109 43.2191111,137.697918 C43.4593333,138.025726 43.6431556,138.291292 43.7684889,138.475944 C43.8938222,138.658521 43.9606667,138.758108 43.9606667,138.758108 C43.9606667,138.758108 43.8478667,138.78508 43.6452444,138.818275 C43.4426222,138.851471 43.1439111,138.892966 42.7616444,138.932386 Z M59.8424889,147.021783 C60.2122222,147.272826 60.5318222,147.503122 60.7929333,147.698147 C61.3151556,148.090272 61.6055111,148.34339 61.6055111,148.34339 C61.6055111,148.34339 61.2963556,148.513518 60.7281778,148.747963 C60.16,148.984483 59.3328,149.28532 58.2904444,149.546737 C56.2266222,150.044674 53.2917333,150.299866 50.1584,149.411879 C49.7615111,149.310217 49.3834222,149.175359 49.0136889,149.030128 C48.6418667,148.886971 48.2763111,148.731366 47.9212,148.569536 C47.564,148.407707 47.2151556,148.235504 46.8767556,148.059151 C46.5383556,147.884873 46.2062222,147.702296 45.8991556,147.496897 C45.2766667,147.096473 44.6938667,146.681526 44.1570222,146.268654 C43.8875556,146.06118 43.6306222,145.855781 43.3841333,145.652457 C43.1376444,145.451207 42.9183111,145.231285 42.7031556,145.027961 C41.8467111,144.204291 41.1866222,143.461535 40.7416889,142.928328 C40.5181778,142.660687 40.3636,142.428317 40.2528889,142.276861 C40.1484444,142.121256 40.0899556,142.038266 40.0899556,142.038266 C40.0899556,142.038266 40.4534222,141.978099 41.078,141.92623 C41.7046667,141.870213 42.6175111,141.791373 43.6828444,141.787223 C44.7502667,141.778924 45.9701778,141.845316 47.3070667,141.9698 C47.9713333,142.040341 48.6523111,142.142003 49.3395556,142.287235 C50.0288889,142.432466 50.7537333,142.573548 51.4639556,142.791395 C54.2985778,143.666934 56.7718222,145.011363 58.5975111,146.202262 C59.0466222,146.513472 59.4748444,146.76659 59.8424889,147.021783 Z M48.4079111,33.7557017 C48.2700444,34.0503142 48.1112889,34.3635994 47.9441778,34.6872583 C47.7770667,35.0109172 47.5932444,35.3490992 47.3948,35.6955802 C47.3446667,35.7827191 47.2945333,35.869858 47.2423111,35.9590717 C47.1942667,36.0503601 47.1462222,36.1437232 47.0981778,36.2391611 C46.9979111,36.4238126 46.8955556,36.6146884 46.7911111,36.8076388 C46.5780444,37.1893903 46.3482667,37.5794408 46.1017778,37.9715659 C45.8657333,38.3740648 45.6317778,38.7993857 45.3664889,39.214333 C45.2348889,39.4238814 45.0991111,39.6334297 44.9591556,39.8409034 C44.8881333,39.9446402 44.8150222,40.048377 44.744,40.1541886 C44.6750667,40.2620748 44.6082222,40.3720359 44.5392889,40.4819969 C44.2614667,40.9197663 43.9648444,41.3554609 43.6431556,41.7870061 C43.3089333,42.2081775 43.0185778,42.677068 42.6697333,43.1148373 C42.5005333,43.3368341 42.3229778,43.5567562 42.1391556,43.7746035 L41.8592444,44.1003371 L41.5897778,44.4405938 C41.2242222,44.8928864 40.8315111,45.3368799 40.4095556,45.7725746 C40.1923111,45.9862724 39.9917778,46.2144934 39.7808,46.4385649 C39.5698222,46.6626365 39.3504889,46.8825585 39.1228,47.1024806 C38.1869778,47.9634962 37.2866667,48.8203623 36.2798222,49.5942389 C36.0249778,49.7871894 35.7889333,49.9863641 35.5466222,50.1813893 C35.3043111,50.3764145 35.0578222,50.5672903 34.8092444,50.7560913 C34.3162667,51.1336933 33.7961333,51.4926227 33.2968889,51.8515521 C32.3234667,52.5777098 31.2999111,53.2519991 30.3181333,53.8910179 C29.3635111,54.5404104 28.4088889,55.1420839 27.4981333,55.691889 C26.5999111,56.2458436 25.7810667,56.7603782 25.0123556,57.2064466 C24.2540889,57.6545896 23.5459556,58.0363411 22.9944889,58.3579252 C21.8769333,58.996944 21.1834222,59.3392755 21.1834222,59.3392755 C21.1834222,59.3392755 21.15,59.1442503 21.1040444,58.7832462 C21.0831556,58.6027441 21.0580889,58.3786726 21.0267556,58.1172558 C20.9996,57.855839 20.9682667,57.5529275 20.962,57.218895 C20.9390222,56.5487551 20.9264889,55.7333838 20.9473778,54.7976777 C20.9536444,54.5632325 20.9536444,54.3204883 20.9724444,54.0735947 C20.9954222,53.8287758 21.0184,53.575658 21.0413778,53.3163159 C21.0936,52.7976318 21.1562667,52.2519762 21.2314667,51.6834984 C21.2711556,51.3992595 21.3129333,51.1087964 21.3547111,50.8141839 C21.4152889,50.5237208 21.4779556,50.2270335 21.5406222,49.9261967 C21.6722222,49.3245232 21.8205333,48.704177 21.9855556,48.0713824 C22.1380444,47.4323636 22.3761778,46.8057933 22.6017778,46.1564008 C22.8399111,45.5132325 23.0780444,44.8513916 23.3725778,44.2019992 C23.6775556,43.5567562 24.0055111,42.9073637 24.3543556,42.2600459 C24.5319111,41.9384618 24.6990222,41.6085787 24.9037333,41.2952935 C25.1063556,40.9820084 25.3131556,40.6687232 25.5262222,40.3575127 C25.9586222,39.7371666 26.3889333,39.1126709 26.8881778,38.5275953 C27.3916,37.9445944 27.9200889,37.3761166 28.4694667,36.8283862 C29.0063111,36.2723569 29.6204444,35.7930928 30.2074222,35.3262771 C30.5040444,35.0959814 30.8006667,34.8719098 31.0993778,34.658212 C31.396,34.4424394 31.6947111,34.2370405 32.0122222,34.052389 C32.6368,33.674787 33.2592889,33.3303807 33.8755111,33.0150208 C34.1867556,32.8594156 34.4833778,32.7017356 34.8029778,32.5710272 C35.1204889,32.4382441 35.4359111,32.3116852 35.7471556,32.1934252 C36.3717333,31.9569053 36.9837778,31.7473569 37.5832889,31.5647801 C38.1765333,31.3780538 38.8011111,31.2556444 39.3818222,31.1332349 C40.5557778,30.9008645 41.6440889,30.7431845 42.6948,30.7099887 C43.7329778,30.6622698 44.6667111,30.6726435 45.496,30.7224371 C46.342,30.7929782 47.0710222,30.8946403 47.6684444,30.9963023 C48.8591111,31.1996265 49.5317333,31.4008759 49.5317333,31.4008759 C49.5317333,31.4008759 49.2956889,32.0191474 48.8131556,32.9776755 C48.6940889,33.2162702 48.5562222,33.4756123 48.4079111,33.7557017 Z M25.2922667,86.9374184 C24.7742222,87.7320424 24.3272,88.4519759 23.9010667,89.0909947 C23.4728444,89.7341629 23.0801333,90.2964165 22.7438222,90.7611574 C22.4096,91.2258984 22.1317778,91.591052 21.9396,91.8400203 C21.7495111,92.0848392 21.6471556,92.2176223 21.6471556,92.2176223 C21.6471556,92.2176223 21.5406222,92.078615 21.3818667,91.8026751 C21.2189333,91.5267351 20.9870667,91.1221616 20.7092444,90.599328 C20.4335111,90.0764944 20.1097333,89.4333262 19.7650667,88.6843464 C19.458,87.9291423 19.1321333,87.066052 18.8146222,86.1116733 C18.4741333,85.161444 18.2443556,84.1054032 18.0104,82.9829709 C17.9560889,82.7028815 17.9017778,82.4165679 17.8474667,82.1281795 C17.7952444,81.8377164 17.7451111,81.5451786 17.7179556,81.2464166 C17.6511111,80.6488925 17.5988889,80.0368453 17.5612889,79.4144244 C17.5424889,79.1032139 17.5278667,78.7899287 17.5174222,78.4724941 C17.5132444,78.3148141 17.5090667,78.1550594 17.5048889,77.9953047 C17.5090667,77.83555 17.5153333,77.6757953 17.5195111,77.5139659 C17.5445778,76.8707976 17.5884444,76.2193304 17.6532,75.5637137 C17.6845333,75.2359054 17.7221333,74.908097 17.766,74.578214 C17.8119556,74.2504056 17.8850667,73.9205225 17.9519111,73.5906395 C18.0918667,72.932948 18.2548,72.2752566 18.4448889,71.6217147 C18.6203556,70.9681727 18.8793778,70.3395276 19.1342222,69.7295551 C19.3932444,69.1195826 19.6689778,68.534507 19.9593333,67.9701787 C20.5609333,66.8456716 21.2690667,65.8186771 21.9688444,64.8891952 C23.4477778,63.0385304 25.0165333,61.5820655 26.5372444,60.5073521 C27.2892444,59.9679206 27.9806667,59.5094039 28.6365778,59.1380261 C29.2987556,58.7666483 29.8899111,58.4741105 30.3849778,58.2458895 C31.3730222,57.7915222 31.9725333,57.5923475 31.9725333,57.5923475 C31.9725333,57.5923475 32.0790667,58.1960958 32.1626222,59.2023429 C32.1835111,59.4554608 32.2023111,59.7314007 32.2169333,60.0301627 C32.2399111,60.3309995 32.2670667,60.6546584 32.2942222,61.0011393 C32.3485333,61.6920265 32.3548,62.4534548 32.3736,63.2812746 C32.4091111,64.1132438 32.4028444,64.9991563 32.3548,65.9286381 C32.3548,66.866419 32.2816889,67.8415451 32.1709778,68.8498669 C32.1333778,69.3561026 32.0769778,69.8685625 32.0017778,70.3893213 C31.9328444,70.9100801 31.8096,71.4349884 31.7344,71.9702704 C31.6445778,72.5055524 31.5296889,73.0449838 31.3918222,73.5906395 C31.3228889,73.8624299 31.2456,74.1362951 31.1641333,74.4122351 C31.0972889,74.688175 31.0241778,74.9661897 30.9427111,75.2442043 C30.6252,76.3583377 30.1760889,77.4413501 29.7708444,78.4932414 C29.3468,79.5472075 28.8162222,80.5721273 28.3524889,81.5555523 C28.1080889,82.0472648 27.8532444,82.5327531 27.5921333,83.005793 C27.3372889,83.4788329 27.0511111,83.9456485 26.8108889,84.3937916 C26.3116444,85.2942272 25.7956889,86.1469438 25.2922667,86.9374184 Z M24.1538222,105.88806 C23.876,104.86729 23.6566667,103.8071 23.5188,102.730311 C23.4101778,101.639 23.4185333,100.568436 23.4791111,99.5518153 C23.4937333,99.2986975 23.5146222,99.0476544 23.5396889,98.798686 C23.5731111,98.5476429 23.6128,98.2986746 23.6545778,98.0538557 C23.7402222,97.5642179 23.8384,97.0870285 23.9470222,96.6264371 C24.3543556,94.7902954 25.0896444,93.1595526 25.7685333,91.8483193 C25.9419111,91.5205109 26.1132,91.2093005 26.2844889,90.9188374 C26.4662222,90.6242248 26.6458667,90.3503596 26.8171556,90.0951671 C27.1618222,89.5868567 27.4814222,89.1553115 27.7550667,88.8088305 C28.3023556,88.1137939 28.6616444,87.7465655 28.6616444,87.7465655 C28.6616444,87.7465655 28.9540889,88.1656623 29.3760444,88.9063431 C29.5912,89.2756462 29.8209778,89.7279387 30.0967111,90.2403986 C30.3828889,90.7507838 30.6816,91.3275605 30.9761333,91.960355 C32.1856,94.4977576 33.4577333,97.8256347 33.8964,101.634851 C34.0071111,102.589229 34.0718667,103.529085 34.0551556,104.47309 C34.0530667,104.707535 34.0447111,104.94198 34.0363556,105.176426 C34.0342667,105.404647 34.0321778,105.632868 34.0238222,105.861089 C34.0092,106.317531 33.9820444,106.769823 33.9444444,107.217966 C33.9068444,107.666109 33.8588,108.108028 33.8024,108.545797 C33.7439111,108.983567 33.7084,109.398514 33.6478222,109.813461 C33.5350222,110.639206 33.3971556,111.431756 33.2488444,112.172436 C33.0900889,112.919342 32.9710222,113.581182 32.8310667,114.18908 C32.6952889,114.792828 32.5616,115.326036 32.4425333,115.767955 C32.2064889,116.651792 32.0289333,117.168402 32.0289333,117.168402 C32.0289333,117.168402 31.5860889,116.840593 30.8716889,116.211948 C30.5144889,115.896588 30.0883556,115.506538 29.6183556,115.041797 C29.1629778,114.566682 28.6804444,114.008578 28.1707556,113.386157 C27.9159111,113.074947 27.6568889,112.745064 27.3957778,112.398583 C27.1388444,112.050027 26.9028,111.672425 26.6563111,111.286524 C26.4119111,110.898548 26.1696,110.49605 25.9314667,110.076953 C25.6933333,109.657856 25.4552,109.228386 25.2588444,108.767794 C24.8515111,107.85491 24.4629778,106.896382 24.1538222,105.88806 Z M47.1044444,130.102308 C47.2966222,131.276609 47.3927111,132.305678 47.4365778,133.03806 C47.4616444,133.405288 47.4720889,133.697826 47.4783556,133.899075 C47.4846222,134.096175 47.4867111,134.204062 47.4867111,134.204062 C47.4867111,134.204062 47.376,134.175015 47.1859111,134.1024 C46.9937333,134.031859 46.7138222,133.923972 46.3628889,133.774591 C46.0140444,133.627285 45.5920889,133.436409 45.1179111,133.204039 C44.8797778,133.087854 44.6291111,132.961295 44.368,132.822287 C44.1131556,132.677056 43.8520444,132.513152 43.5804889,132.340948 C43.0394667,131.996542 42.4650222,131.602342 41.8759556,131.160424 C41.5772444,130.946726 41.2973333,130.693608 41.0111556,130.436341 C40.7249778,130.176998 40.4408889,129.907283 40.1568,129.625119 C39.8748,129.342954 39.5928,129.048342 39.3170667,128.743356 C39.0455111,128.43422 38.7948444,128.096038 38.5441778,127.755781 C38.0512,127.066969 37.5707556,126.353259 37.1822222,125.56486 C36.8020444,124.770236 36.4949778,123.973537 36.2526667,123.193436 C36.1920889,122.998411 36.1356889,122.803386 36.0834667,122.610435 C36.0375111,122.413335 35.9957333,122.21416 35.9560444,122.019135 C35.8787556,121.629085 35.8160889,121.243184 35.7659556,120.865582 C35.6677778,120.110378 35.6092889,119.390444 35.6072,118.703707 C35.6176444,118.00867 35.6615111,117.355128 35.7283556,116.759679 C35.8641333,115.56463 36.0709333,114.601953 36.2860889,113.906916 C36.4908,113.220178 36.6495556,112.834277 36.6495556,112.834277 C36.6495556,112.834277 36.9879556,113.068723 37.5185333,113.512716 C38.0616444,113.946336 38.8324444,114.560458 39.6408444,115.363381 C39.7411111,115.465043 39.8434667,115.566705 39.9479111,115.672517 C40.0544444,115.774179 40.1651556,115.877916 40.2758667,115.983727 C40.4952,116.197425 40.7166222,116.421497 40.9380444,116.655942 C41.1594667,116.890387 41.3788,117.137281 41.5960444,117.394548 C41.8132889,117.651815 42.0263556,117.921531 42.2561333,118.185022 C42.7031556,118.720304 43.1334667,119.301231 43.5324444,119.93195 C43.7246222,120.253535 43.9418667,120.556446 44.1340444,120.886329 C44.3283111,121.212063 44.5142222,121.55232 44.6896889,121.905025 C44.8651556,122.25773 45.0197333,122.620809 45.1722222,122.975589 C45.3309778,123.324144 45.4751111,123.674775 45.6088,124.029555 C45.8782667,124.73704 46.0871556,125.463198 46.2772444,126.164458 C46.4798667,126.853271 46.6407111,127.537934 46.7744,128.201849 C46.9122667,128.861616 47,129.523457 47.1044444,130.102308 Z M62.2321778,140.430345 C62.6562222,141.289286 62.9716444,142.054864 63.1763556,142.602594 C63.3852444,143.154474 63.4834222,143.488507 63.4834222,143.488507 C63.4834222,143.488507 63.1304,143.480208 62.5246222,143.413816 C62.2217333,143.380621 61.8561778,143.330827 61.4384,143.262361 C61.0227111,143.189745 60.5485333,143.115054 60.0597333,142.963599 C58.0836444,142.417943 55.5143111,141.341155 53.5591111,139.303764 C53.0724,138.795453 52.6253778,138.293367 52.2577333,137.741487 C51.8900889,137.189607 51.5725778,136.633578 51.3031111,136.087922 C50.7495556,135.013209 50.4299556,133.911524 50.2210667,132.971668 C50.0142667,132.027663 49.9181778,131.241338 49.8910222,130.666636 C49.8659556,130.08986 49.8847556,129.753752 49.8847556,129.753752 C49.8847556,129.753752 49.9641333,129.780724 50.1103556,129.828443 C50.2544889,129.880311 50.4633778,129.957076 50.7286667,130.052514 C51.2655111,130.235091 52.0091556,130.521405 52.8405333,130.930128 C53.0515111,131.029715 53.2583111,131.15005 53.4839111,131.255861 C53.7095111,131.363748 53.9372,131.477858 54.1690667,131.602342 C54.6307111,131.849236 55.1028,132.129325 55.5728,132.45091 C55.8046667,132.616888 56.0490667,132.770419 56.2892889,132.936398 C56.5295111,133.102377 56.7676444,133.278729 57.0036889,133.46753 C57.2397333,133.656331 57.4736889,133.855506 57.7013778,134.067129 C57.9269778,134.282902 58.1525778,134.500749 58.3823556,134.720671 C60.1683556,136.519467 61.3882667,138.683417 62.2321778,140.430345 Z M157.800933,30.4236751 C144.039333,24.3280997 129.933067,15.213783 122.630311,0.910550631 C122.630311,0.910550631 123.388578,0.68440437 124.769333,0.431286536 C125.114,0.369044445 125.500444,0.302652882 125.9224,0.240410792 C126.133378,0.209289747 126.3548,0.174019229 126.582489,0.149122393 C126.808089,0.130449766 127.044133,0.111777139 127.286444,0.0931045118 C128.259867,0.0308624215 129.383689,-0.0230807234 130.614044,0.0101150581 C131.221911,0.0433108396 131.859022,0.0931045118 132.523289,0.159496075 C132.855422,0.192691856 133.195911,0.23003711 133.540578,0.273606574 C133.887333,0.3151013 134.238267,0.3607455 134.585022,0.435436008 C135.282711,0.570293871 136.005467,0.727973833 136.744933,0.910550631 C137.114667,1.00183903 137.490667,1.09520217 137.866667,1.20308846 C138.234311,1.32134843 138.608222,1.44790734 138.984222,1.58069047 C139.738311,1.84418199 140.502844,2.13671981 141.277822,2.45830394 C142.029822,2.81100912 142.788089,3.19483534 143.548444,3.60770788 C143.926533,3.81725625 144.315067,4.02265515 144.6848,4.25710035 C145.052444,4.49569503 145.418,4.74258866 145.783556,4.99570649 C146.149111,5.24882432 146.514667,5.5102411 146.876044,5.77995683 C147.237422,6.04759782 147.600889,6.32146301 147.9372,6.62852399 C148.622356,7.2281228 149.278267,7.84639423 149.904933,8.4729646 C150.226622,8.78002558 150.506533,9.12028234 150.792711,9.45016542 C151.0768,9.78212323 151.352533,10.1161558 151.622,10.4501883 C151.889378,10.7862956 152.152578,11.1203282 152.405333,11.4564355 C152.653911,11.7946175 152.877422,12.1493974 153.105111,12.4958784 C153.554222,13.1929898 153.974089,13.883877 154.364711,14.56854 C154.734444,15.2677261 155.064489,15.9710617 155.373644,16.65365 C155.678622,17.3403877 155.973156,18.0001539 156.192489,18.6806674 C156.424356,19.352882 156.631156,20.0043492 156.814978,20.635069 C156.906889,20.950429 156.994622,21.2595647 157.074,21.5645509 C157.140844,21.8736866 157.2056,22.1786729 157.270356,22.4774349 C157.391511,23.0728842 157.493867,23.6434367 157.5816,24.1828682 C157.669333,24.7243744 157.748711,25.2285353 157.780044,25.7223226 C157.861511,26.6995234 157.894933,27.5439411 157.905378,28.2348283 C157.924178,28.921566 157.886578,29.4734459 157.855244,29.8489731 C157.826,30.2245004 157.800933,30.4236751 157.800933,30.4236751 Z M159.866844,13.3278476 C159.722711,12.32575 159.609911,11.4356881 159.534711,10.697082 C159.369689,9.21986968 159.323733,8.34640568 159.323733,8.34640568 C159.323733,8.34640568 160.215689,8.78832453 161.713422,9.68461063 C162.087333,9.91075689 162.503022,10.1618 162.943778,10.4460389 C163.374089,10.7406514 163.833644,11.066385 164.322444,11.4232397 C164.811244,11.7800943 165.325111,12.1659953 165.861956,12.5830173 C165.995644,12.6888288 166.129333,12.7946404 166.2672,12.9025267 C166.396711,13.0166372 166.5304,13.128673 166.664089,13.2448582 C166.929378,13.4793034 167.200933,13.7178981 167.478756,13.962717 C168.030222,14.4565042 168.5984,14.9814125 169.174933,15.5353671 C169.741022,16.0976207 170.2904,16.7055184 170.858578,17.3341635 C171.140578,17.6495234 171.422578,17.9711076 171.706667,18.3009907 C171.846622,18.4669696 171.988667,18.6329485 172.130711,18.8010021 C172.2644,18.97528 172.398089,19.1495578 172.533867,19.3238357 C173.068622,20.0271713 173.603378,20.7574785 174.127689,21.5126825 C174.668711,22.2595876 175.126178,23.0708095 175.602444,23.8861809 C175.8364,24.294904 176.068267,24.7098512 176.293867,25.128948 C176.406667,25.3384963 176.517378,25.5501194 176.630178,25.7617425 C176.730444,25.9775151 176.8328,26.1953624 176.935156,26.4132098 C177.334133,27.2887485 177.714311,28.1808851 178.067333,29.0875449 C178.251156,29.5377627 178.401556,30.0025036 178.545689,30.471394 C178.691911,30.9382097 178.829778,31.4091749 178.959289,31.8822148 C179.508667,33.7619259 179.7656,35.6437117 179.949422,37.4176113 C179.999556,37.8616049 180.016267,38.3055985 180.0288,38.7454426 C180.041333,39.1852867 180.0476,39.6168318 180.0476,40.0442275 C180.043422,40.8990189 180.0288,41.724764 179.961956,42.5297617 C179.801111,44.1501308 179.575511,45.6522399 179.260089,47.0402385 C178.9196,48.4344613 178.526889,49.7021252 178.121644,50.8349313 C177.699689,51.969812 177.225511,52.9822834 176.799378,53.8474484 C176.360711,54.7167629 175.972178,55.4408459 175.592,56.0321458 C174.844178,57.2126708 174.344933,57.8309422 174.344933,57.8309422 C174.344933,57.8309422 174.2384,57.6442159 174.044133,57.297735 C173.952222,57.1234571 173.835244,56.9097593 173.701556,56.6587162 C173.569956,56.4076731 173.423733,56.11721 173.242,55.7977006 C172.888978,55.1545323 172.477467,54.3785809 172.0388,53.4864443 C171.928089,53.2644475 171.821556,53.032077 171.7004,52.7976318 C171.577156,52.5631866 171.453911,52.3225172 171.3244,52.0756236 C171.071644,51.5818363 170.814711,51.0610775 170.555689,50.5174966 C170.430356,50.2436314 170.300844,49.9656167 170.169244,49.6834526 C170.029289,49.4033632 169.887244,49.1191243 169.743111,48.8286612 C169.459022,48.247735 169.179111,47.6439868 168.903378,47.0215659 C168.642267,46.3949955 168.318489,45.7704998 168.0344,45.1169579 C167.737778,44.4675654 167.4704,43.7912014 167.180044,43.1086131 C166.879244,42.4322491 166.588889,41.7372124 166.313156,41.0214283 C166.171111,40.6645737 166.049956,40.2973454 165.901644,39.938416 C165.755422,39.5774119 165.613378,39.214333 165.475511,38.8450299 C165.193511,38.1105733 164.953289,37.3429208 164.688,36.5794178 C164.416444,35.8179896 164.165778,35.0378887 163.936,34.2370405 C163.722933,33.4278933 163.463911,32.6560914 163.261289,31.8656169 C163.156844,31.4734917 163.056578,31.0792918 162.964667,30.6850919 C162.872756,30.2888172 162.785022,29.8966921 162.682667,29.5149406 C162.4884,28.7452134 162.317111,27.977561 162.162533,27.2099085 C162.083156,26.828157 162.020489,26.4381066 161.936933,26.0667288 C161.859644,25.6912015 161.782356,25.3198237 161.705067,24.9525954 C161.556756,24.2119145 161.425156,23.4753831 161.306089,22.7492254 C161.1912,22.0189182 161.044978,21.3321805 160.934267,20.6392185 C160.700311,19.2615936 160.526933,17.9192392 160.324311,16.7117426 C160.136311,15.4917976 159.990089,14.3486179 159.866844,13.3278476 Z M187.997911,68.5033859 C188,69.289711 188.014622,70.0864098 187.937333,70.895557 C187.872578,71.6984799 187.784844,72.5055524 187.672044,73.3146995 C187.613556,73.7192731 187.552978,74.1238467 187.481956,74.5284203 C187.396311,74.9309191 187.3044,75.333418 187.206222,75.7359168 C186.807244,77.3417628 186.347689,78.8563203 185.714756,80.2546926 C185.100622,81.6551396 184.4656,82.9518498 183.701067,84.1220011 C183.329244,84.7091515 182.953244,85.2672556 182.573067,85.7983881 C182.186622,86.3295206 181.825244,86.8357563 181.413733,87.3046467 C180.6116,88.246577 179.819911,89.0785463 179.067911,89.804704 C178.328444,90.5329364 177.570178,91.1470584 176.899644,91.6636677 C176.227022,92.1802771 175.625422,92.5993738 175.122,92.9313316 C174.618578,93.2612147 174.215422,93.5039589 173.935511,93.6637136 C173.6556,93.8234683 173.492667,93.9002335 173.492667,93.9002335 C173.492667,93.9002335 173.482222,93.715582 173.446711,93.369101 C173.415378,93.0246948 173.375689,92.5205339 173.342267,91.8856645 C173.308844,91.2528699 173.281689,90.489367 173.277511,89.6242019 C173.235733,88.7507379 173.212756,87.7776866 173.2232,86.72787 C173.256622,85.6801281 173.221111,84.5410979 173.275422,83.352274 C173.290044,83.0555867 173.304667,82.7547499 173.319289,82.4497636 C173.340178,82.1468521 173.361067,81.8397912 173.367333,81.526506 C173.390311,80.9040851 173.425822,80.267141 173.480133,79.621898 C173.5052,79.3003139 173.536533,78.9745803 173.572044,78.6467719 C173.588756,78.4828678 173.607556,78.3189636 173.626356,78.1529847 C173.640978,77.9870058 173.653511,77.8210269 173.668133,77.655048 C173.728711,76.9890576 173.806,76.3147683 173.906267,75.63218 C173.9564,75.2919233 174.010711,74.9495918 174.071289,74.6051855 C174.123511,74.2607793 174.175733,73.9142983 174.230044,73.5657426 C174.344933,72.8707059 174.4828,72.1673703 174.645733,71.4598852 C174.823289,70.7503254 174.963244,70.0552887 175.1408,69.3706257 C175.316267,68.6859627 175.510533,68.0116734 175.721511,67.3477578 C176.120489,66.0220013 176.525733,64.7439637 177.002,63.5115703 C177.870978,61.0592319 178.879911,58.7977693 179.734267,56.8703393 C180.170844,55.9055869 180.617867,55.0175997 181.000133,54.2354241 C181.374044,53.4553233 181.7208,52.772735 182.017422,52.2125562 C182.610667,51.0901238 183.001289,50.4573292 183.001289,50.4573292 C183.001289,50.4573292 183.435778,51.1648143 184.095867,52.4532256 C184.260889,52.7768845 184.438444,53.1337391 184.628533,53.527939 C184.810267,53.9221389 184.985733,54.3536841 185.175822,54.8163503 C185.543467,55.7437574 185.965422,56.7997982 186.328889,57.9720243 C186.675644,59.1483998 187.0224,60.4326616 187.316933,61.8082118 C187.563422,63.1858367 187.789022,64.6506006 187.916444,66.1755318 C187.9624,66.9390347 187.989556,67.7170609 187.997911,68.5033859 Z M181.848222,92.1242592 C181.848222,92.1242592 181.919244,92.7612033 181.948489,93.8815609 C181.961022,94.4355155 181.981911,95.1139543 181.944311,95.8836815 C181.898356,96.6513339 181.825244,97.516499 181.712444,98.4563545 C181.656044,98.9252449 181.5892,99.4148827 181.511911,99.9190437 C181.413733,100.419055 181.305111,100.93359 181.181867,101.460573 C181.060711,101.987556 180.922844,102.526987 180.772444,103.074718 C180.624133,103.624523 180.4612,104.180552 180.248133,104.734507 C179.838711,105.846565 179.3708,106.979371 178.817244,108.097654 C178.226089,109.201414 177.561822,110.296875 176.820267,111.346691 C176.053644,112.386134 175.211822,113.319766 174.376267,114.166258 C174.165289,114.377881 173.9564,114.58328 173.743333,114.782455 C173.521911,114.97748 173.300489,115.166281 173.079067,115.350933 C172.636222,115.718161 172.193378,116.064642 171.752622,116.388301 C171.311867,116.71196 170.875289,117.014871 170.444978,117.297035 C170.014667,117.579199 169.561378,117.826093 169.135244,118.062613 C168.272533,118.531503 167.449511,118.921554 166.682889,119.247287 C165.9288,119.577171 165.178889,119.81369 164.535511,120.012865 C163.887956,120.20789 163.317689,120.353122 162.847689,120.458933 C161.9056,120.670557 161.358311,120.732799 161.358311,120.732799 C161.358311,120.732799 161.500356,120.147723 161.809511,119.180896 C161.966178,118.697482 162.162533,118.120706 162.404844,117.471313 C162.632533,116.813622 162.885289,116.072941 163.194444,115.290765 C163.346933,114.89864 163.511956,114.494066 163.6916,114.081194 C163.864978,113.664172 164.03,113.226403 164.220089,112.788633 C164.408089,112.348789 164.606533,111.902721 164.821689,111.450428 C165.036844,111.00021 165.2708,110.545843 165.485956,110.072803 C165.9288,109.135022 166.448933,108.191017 167.015022,107.244938 C167.551867,106.284335 168.159733,105.327881 168.849067,104.392175 C169.509156,103.446095 170.194311,102.549809 170.927511,101.715765 C171.109244,101.506217 171.293067,101.300818 171.478978,101.099569 C171.654444,100.89417 171.829911,100.69292 172.009556,100.493746 C172.366756,100.095396 172.730222,99.7136448 173.095778,99.3422669 C174.589333,97.8692041 175.982622,96.564195 177.300711,95.4998552 C177.626578,95.2322143 177.946178,94.9811712 178.251156,94.7425765 C178.545689,94.5039818 178.829778,94.2778355 179.099244,94.0682872 C179.638178,93.6491904 180.124889,93.2923358 180.532222,93.0039474 C181.346889,92.4271707 181.848222,92.1242592 181.848222,92.1242592 Z M162.922889,124.191384 C164.192933,123.772287 165.310489,123.496347 166.062489,123.303397 C166.829111,123.112521 167.284489,123.035756 167.284489,123.035756 C167.284489,123.035756 167.154978,123.527468 166.866711,124.361513 C166.563822,125.185183 166.0604,126.328363 165.371067,127.656194 C165.283333,127.820098 165.193511,127.988152 165.1016,128.160355 C165.001333,128.326334 164.898978,128.494387 164.794533,128.66659 C164.583556,129.008922 164.357956,129.357478 164.119822,129.712258 C163.881689,130.067037 163.631022,130.425967 163.365733,130.789046 C163.102533,131.152125 162.824711,131.517278 162.513467,131.865834 C161.901422,132.573319 161.235067,133.27458 160.518578,133.950944 C160.167644,134.293275 159.770756,134.602411 159.373867,134.913622 C158.974889,135.222757 158.563378,135.521519 158.141422,135.805758 C157.717378,136.089997 157.297511,136.357638 156.8672,136.598307 C156.428533,136.830678 155.991956,137.044376 155.559556,137.241476 C154.692667,137.633601 153.848756,137.961409 153.017378,138.212452 C152.173467,138.451047 151.362978,138.629474 150.598444,138.760183 C149.829733,138.886742 149.127867,138.988404 148.446889,139.011226 C147.101644,139.075543 146.0008,139.013301 145.236267,138.934461 C144.854,138.895041 144.555289,138.853546 144.352667,138.82035 C144.150044,138.787154 144.037244,138.760183 144.037244,138.760183 C144.037244,138.760183 144.104089,138.660595 144.229422,138.478019 C144.352667,138.295442 144.538578,138.027801 144.7788,137.699992 C145.021111,137.372184 145.317733,136.982134 145.668667,136.550589 C145.844133,136.334816 146.034222,136.10867 146.234756,135.874224 C146.431111,135.633555 146.637911,135.380437 146.850978,135.116946 C147.285467,134.596187 147.768,134.052606 148.298578,133.500726 C148.570133,133.228936 148.827067,132.932248 149.106978,132.64386 C149.3848,132.353397 149.675156,132.065009 149.975956,131.77662 C150.276756,131.488232 150.592178,131.203993 150.918044,130.921829 C151.241822,130.63759 151.559333,130.338828 151.899822,130.056664 C152.572444,129.481962 153.316089,128.950829 154.078533,128.423846 C154.832622,127.888564 155.6076,127.417599 156.390933,126.998502 C156.587289,126.894766 156.783644,126.793104 156.98,126.693516 C157.172178,126.591854 157.362267,126.490192 157.550267,126.390605 C157.928356,126.195579 158.308533,126.010928 158.686622,125.838725 C159.440711,125.490169 160.196889,125.193482 160.9092,124.921691 C161.608978,124.641602 162.287867,124.400932 162.922889,124.191384 Z M144.312978,141.787223 C145.378311,141.793447 146.291156,141.870213 146.915733,141.92623 C147.5424,141.978099 147.903778,142.038266 147.903778,142.038266 C147.903778,142.038266 147.847378,142.121256 147.740844,142.276861 C147.630133,142.428317 147.473467,142.660687 147.252044,142.928328 C146.805022,143.46361 146.144933,144.204291 145.290578,145.027961 C145.075422,145.231285 144.856089,145.451207 144.6096,145.652457 C144.3652,145.855781 144.108267,146.063255 143.8388,146.268654 C143.301956,146.681526 142.719156,147.096473 142.096667,147.496897 C141.7896,147.702296 141.459556,147.882798 141.119067,148.059151 C140.778578,148.235504 140.431822,148.407707 140.074622,148.569536 C139.717422,148.731366 139.353956,148.886971 138.982133,149.030128 C138.610311,149.175359 138.234311,149.312292 137.837422,149.411879 C134.704089,150.299866 131.767111,150.042599 129.705378,149.546737 C128.663022,149.28532 127.835822,148.982409 127.267644,148.747963 C126.699467,148.511444 126.390311,148.34339 126.390311,148.34339 C126.390311,148.34339 126.680667,148.090272 127.202889,147.698147 C127.464,147.503122 127.7836,147.272826 128.153333,147.021783 C128.520978,146.768665 128.9492,146.513472 129.398311,146.202262 C131.226089,145.011363 133.697244,143.666934 136.531867,142.791395 C137.242089,142.573548 137.969022,142.432466 138.656267,142.287235 C139.3456,142.142003 140.026578,142.040341 140.688756,141.9698 C142.025644,141.845316 143.245556,141.778924 144.312978,141.787223 Z M153.188667,50.7540165 C152.940089,50.5652155 152.6936,50.3743398 152.445022,50.1751651 C152.202711,49.9801399 151.966667,49.7788905 151.711822,49.5880147 C150.704978,48.8141381 149.806756,47.9572719 148.868844,47.0962564 C148.641156,46.878409 148.421822,46.6564123 148.210844,46.4323407 C148.001956,46.2082692 147.799333,45.9800482 147.582089,45.7663504 C147.160133,45.3306557 146.767422,44.8866622 146.401867,44.4343696 L146.1324,44.0941129 L145.852489,43.7683793 C145.668667,43.550532 145.4932,43.3306099 145.321911,43.1086131 C144.975156,42.6708437 144.682711,42.2019533 144.348489,41.7807819 C144.0268,41.3492367 143.730178,40.9135421 143.452356,40.4757727 C143.383422,40.3658117 143.314489,40.2579254 143.247644,40.1479643 C143.174533,40.0421528 143.103511,39.938416 143.032489,39.8346792 C142.892533,39.6251308 142.756756,39.4176572 142.625156,39.2081088 C142.361956,38.7931615 142.128,38.3678406 141.889867,37.9653417 C141.643378,37.5732165 141.4136,37.1852409 141.200533,36.8014146 C141.096089,36.6084641 140.993733,36.4196631 140.893467,36.2329369 C140.845422,36.1395737 140.797378,36.0462106 140.749333,35.9528475 C140.697111,35.8636338 140.646978,35.7764949 140.596844,35.6893559 C140.3984,35.342875 140.216667,35.004693 140.047467,34.6810341 C139.878267,34.3573752 139.725778,34.0461648 139.587911,33.7536269 C139.4396,33.4735375 139.301733,33.2162702 139.182667,32.9756008 C138.700133,32.0170726 138.464089,31.3988012 138.464089,31.3988012 C138.464089,31.3988012 139.136711,31.1975518 140.329467,30.9942276 C140.9248,30.8925655 141.653822,30.7929782 142.501911,30.7203624 C143.3312,30.6705687 144.264933,30.6601951 145.303111,30.707914 C146.353822,30.7431845 147.442133,30.8987897 148.616089,31.1311602 C149.1968,31.2535696 149.819289,31.3759791 150.414622,31.5627054 C151.014133,31.7452822 151.626178,31.9548305 152.250756,32.1913505 C152.564089,32.3116852 152.877422,32.4361694 153.194933,32.5689525 C153.514533,32.6996609 153.811156,32.8573408 154.1224,33.0129461 C154.738622,33.328306 155.361111,33.6727122 155.985689,34.0503142 C156.3032,34.2349658 156.601911,34.4403647 156.898533,34.6561372 C157.195156,34.8698351 157.493867,35.0939066 157.790489,35.3242024 C158.377467,35.791018 158.993689,36.2702821 159.528444,36.8263115 C160.077822,37.3740419 160.606311,37.9425196 161.109733,38.5255205 C161.608978,39.1126709 162.039289,39.7371666 162.471689,40.355438 C162.684756,40.6666484 162.891556,40.9799336 163.094178,41.2932188 C163.2968,41.606504 163.463911,41.9363871 163.643556,42.2579712 C163.9924,42.9052889 164.320356,43.5546814 164.625333,44.1999244 C164.919867,44.8493169 165.158,45.5111578 165.396133,46.1543261 C165.621733,46.8037185 165.859867,47.4302889 166.012356,48.0693077 C166.177378,48.704177 166.325689,49.3224485 166.457289,49.924122 C166.519956,50.2249588 166.582622,50.5216461 166.6432,50.8121092 C166.684978,51.1067217 166.726756,51.3971848 166.766444,51.6814237 C166.843733,52.2499014 166.9064,52.7955571 166.956533,53.3142412 C166.979511,53.5735832 167.002489,53.8246263 167.025467,54.0715199 C167.042178,54.3184136 167.044267,54.5611577 167.050533,54.7956029 C167.071422,55.731309 167.058889,56.5466804 167.035911,57.2168202 C167.029644,57.5487781 167.0004,57.8516896 166.971156,58.1151811 C166.939822,58.3765979 166.914756,58.5985946 166.893867,58.7811714 C166.847911,59.1442503 166.814489,59.3372008 166.814489,59.3372008 C166.814489,59.3372008 166.120978,58.996944 165.003422,58.3558505 C164.451956,58.0342664 163.741733,57.6525149 162.985556,57.2043718 C162.216844,56.7583035 161.398,56.2437689 160.499778,55.6898143 C159.589022,55.1400092 158.6344,54.5383356 157.679778,53.8889431 C156.698,53.2499244 155.674444,52.5777098 154.701022,51.8494773 C154.201778,51.4905479 153.681644,51.1316185 153.188667,50.7540165 Z M166.064578,91.8441698 C165.8724,91.5972762 165.594578,91.2321226 165.266622,90.7694564 C164.9324,90.3067902 164.5376,89.7424619 164.109378,89.0992936 C163.679067,88.4561254 163.232044,87.7341171 162.714,86.9415678 C162.210578,86.1510933 161.694622,85.2963019 161.195378,84.3979411 C160.957244,83.949798 160.668978,83.4829823 160.414133,83.0099425 C160.153022,82.5369026 159.898178,82.0514143 159.653778,81.5597018 C159.190044,80.574202 158.659467,79.5492822 158.235422,78.4973909 C157.830178,77.4454996 157.381067,76.3624872 157.063556,75.2483538 C156.982089,74.9703391 156.908978,74.6923245 156.842133,74.4163845 C156.760667,74.1425193 156.683378,73.8665794 156.614444,73.5947889 C156.474489,73.0491333 156.361689,72.5097018 156.271867,71.9744198 C156.196667,71.4391379 156.073422,70.9142296 156.004489,70.3934708 C155.9272,69.8747867 155.872889,69.3602521 155.835289,68.8540164 C155.722489,67.8456945 155.651467,66.8705684 155.651467,65.9327876 C155.603422,65.0053805 155.597156,64.1173933 155.632667,63.285424 C155.651467,62.4576042 155.657733,61.696176 155.712044,61.0052888 C155.7392,60.6608826 155.764267,60.335149 155.789333,60.0343122 C155.803956,59.7355502 155.822756,59.4575355 155.843644,59.2064924 C155.9272,58.2002453 156.033733,57.596497 156.033733,57.596497 C156.033733,57.596497 156.633244,57.7956717 157.621289,58.2500389 C158.114267,58.4782599 158.705422,58.7728725 159.369689,59.1421756 C160.0256,59.5135534 160.717022,59.9720701 161.469022,60.5115016 C162.989733,61.586215 164.558489,63.0426799 166.037422,64.8933447 C166.7372,65.8249013 167.445333,66.8498211 168.046933,67.9743282 C168.337289,68.5386565 168.613022,69.1258069 168.872044,69.7337046 C169.126889,70.3416023 169.385911,70.9723222 169.561378,71.6258641 C169.751467,72.2773314 169.9144,72.9370975 170.054356,73.5947889 C170.1212,73.924672 170.194311,74.2524804 170.240267,74.5823634 C170.284133,74.9122465 170.321733,75.2400549 170.353067,75.5678632 C170.417822,76.2234799 170.461689,76.8749471 170.486756,77.5181154 C170.490933,77.6799448 170.4972,77.8396995 170.501378,77.9994542 C170.4972,78.1592089 170.493022,78.3189636 170.488844,78.4766435 C170.476311,78.7920035 170.461689,79.1073634 170.442889,79.4185738 C170.405289,80.0430695 170.350978,80.653042 170.286222,81.250566 C170.259067,81.5493281 170.211022,81.8439406 170.156711,82.132329 C170.1024,82.4207173 170.048089,82.7049562 169.993778,82.9871204 C169.759822,84.1095527 169.530044,85.1655935 169.189556,86.1158228 C168.872044,87.0702015 168.546178,87.9332918 168.239111,88.6884958 C167.896533,89.4374756 167.572756,90.0806439 167.294933,90.6034775 C167.017111,91.1283858 166.785244,91.5329594 166.622311,91.8068246 C166.463556,92.0806897 166.357022,92.2217718 166.357022,92.2217718 C166.357022,92.2217718 166.254667,92.0889887 166.064578,91.8441698 Z M153.978267,105.859014 C153.972,105.630793 153.967822,105.402572 153.963644,105.170201 C153.955289,104.937831 153.946933,104.701311 153.944844,104.466866 C153.930222,103.524935 153.992889,102.583005 154.1036,101.628626 C154.542267,97.8173357 155.8144,94.4915334 157.023867,91.9541308 C157.3184,91.3192615 157.6192,90.7445595 157.903289,90.2341744 C158.179022,89.7217145 158.4088,89.269422 158.623956,88.9001189 C159.045911,88.1594381 159.338356,87.7403413 159.338356,87.7403413 C159.338356,87.7403413 159.699733,88.1075697 160.244933,88.8026063 C160.518578,89.1490873 160.838178,89.5806325 161.182844,90.0889429 C161.356222,90.3441354 161.533778,90.6180006 161.715511,90.9126132 C161.8868,91.2030763 162.058089,91.5142867 162.231467,91.8420951 C162.912444,93.1533284 163.645644,94.7840712 164.052978,96.6202129 C164.163689,97.0808043 164.261867,97.5579937 164.345422,98.0476315 C164.3872,98.2924504 164.4248,98.5414187 164.460311,98.7924618 C164.485378,99.0393554 164.504178,99.2903985 164.520889,99.5455911 C164.581467,100.562212 164.587733,101.632776 164.4812,102.724087 C164.343333,103.805025 164.124,104.865215 163.846178,105.885985 C163.537022,106.894307 163.148489,107.852835 162.741156,108.765719 C162.5448,109.226311 162.306667,109.657856 162.068533,110.074878 C161.8304,110.4919 161.588089,110.896474 161.343689,111.284449 C161.0972,111.67035 160.859067,112.047952 160.604222,112.396508 C160.343111,112.742989 160.084089,113.072872 159.829244,113.384083 C159.319556,114.008578 158.839111,114.566682 158.383733,115.039722 C157.911644,115.504463 157.4876,115.894513 157.1304,116.209873 C156.416,116.840593 155.973156,117.166327 155.973156,117.166327 C155.973156,117.166327 155.7956,116.649718 155.559556,115.76588 C155.440489,115.323961 155.3068,114.790754 155.171022,114.187005 C155.028978,113.579108 154.912,112.917267 154.753244,112.170362 C154.604933,111.429681 154.467067,110.637132 154.354267,109.811387 C154.293689,109.396439 154.256089,108.981492 154.199689,108.543723 C154.143289,108.108028 154.095244,107.664034 154.057644,107.215891 C154.020044,106.767748 153.992889,106.315456 153.978267,105.859014 Z M151.348356,112.836352 C151.348356,112.836352 151.507111,113.222253 151.705556,113.911066 C151.9228,114.606102 152.127511,115.56878 152.263289,116.763828 C152.330133,117.359277 152.376089,118.010745 152.384444,118.707856 C152.382356,119.394594 152.323867,120.112452 152.225689,120.869731 C152.175556,121.247333 152.112889,121.631159 152.0356,122.023285 C151.995911,122.21831 151.956222,122.417485 151.908178,122.614585 C151.855956,122.807535 151.799556,123.00256 151.738978,123.197585 C151.496667,123.977686 151.1896,124.774385 150.809422,125.569009 C150.420889,126.357409 149.940444,127.071118 149.447467,127.759931 C149.1968,128.100187 148.946133,128.438369 148.674578,128.747505 C148.398844,129.052491 148.118933,129.347104 147.834844,129.629268 C147.550756,129.911432 147.266667,130.183223 146.980489,130.44049 C146.694311,130.695683 146.4144,130.9488 146.115689,131.164573 C145.528711,131.606492 144.954267,131.998617 144.411156,132.345098 C144.1396,132.517301 143.880578,132.681205 143.623644,132.826437 C143.360444,132.963369 143.111867,133.092003 142.873733,133.208188 C142.399556,133.440559 141.979689,133.62936 141.628756,133.778741 C141.277822,133.926047 140.997911,134.036008 140.805733,134.106549 C140.615644,134.18124 140.504933,134.208211 140.504933,134.208211 C140.504933,134.208211 140.507022,134.1024 140.513289,133.903225 C140.519556,133.701976 140.53,133.409438 140.555067,133.042209 C140.6052,132.307753 140.701289,131.278683 140.893467,130.104383 C140.997911,129.525531 141.085644,128.861616 141.223511,128.203924 C141.3572,127.540009 141.520133,126.855346 141.720667,126.166533 C141.910756,125.463198 142.121733,124.73704 142.389111,124.031629 C142.520711,123.67685 142.666933,123.326219 142.825689,122.977663 C142.976089,122.620809 143.132756,122.25773 143.308222,121.907099 C143.4816,121.554394 143.667511,121.214137 143.863867,120.888404 C144.058133,120.558521 144.273289,120.255609 144.465467,119.934025 C144.862356,119.303305 145.292667,118.722379 145.741778,118.187097 C145.971556,117.923606 146.186711,117.655965 146.401867,117.396623 C146.619111,117.139355 146.838444,116.892462 147.059867,116.658016 C147.281289,116.423571 147.502711,116.1995 147.722044,115.985802 C147.832756,115.87999 147.943467,115.776254 148.05,115.674591 C148.154444,115.56878 148.2568,115.467118 148.357067,115.365456 C149.165467,114.562533 149.934178,113.948411 150.479378,113.514791 C151.009956,113.072872 151.348356,112.836352 151.348356,112.836352 Z M127.940267,142.965673 C127.449378,143.117129 126.9752,143.19182 126.559511,143.26651 C126.141733,143.337051 125.776178,143.38477 125.473289,143.417966 C124.867511,143.484357 124.514489,143.492656 124.514489,143.492656 C124.514489,143.492656 124.614756,143.156549 124.821556,142.606744 C125.028356,142.054864 125.343778,141.289286 125.767822,140.43242 C126.611733,138.683417 127.831644,136.521542 129.617644,134.722746 C129.847422,134.502824 130.075111,134.284976 130.298622,134.069204 C130.5284,133.857581 130.760267,133.658406 130.996311,133.469605 C131.230267,133.282879 131.470489,133.104451 131.710711,132.938473 C131.953022,132.772494 132.195333,132.618963 132.4272,132.452984 C132.8972,132.133475 133.369289,131.851311 133.830933,131.604417 C134.0628,131.479933 134.292578,131.365822 134.516089,131.257936 C134.741689,131.15005 134.950578,131.03179 135.159467,130.932203 C135.990844,130.523479 136.734489,130.239241 137.271333,130.054589 C137.536622,129.959151 137.745511,129.882386 137.889644,129.830518 C138.035867,129.780724 138.115244,129.755827 138.115244,129.755827 C138.115244,129.755827 138.134044,130.091934 138.108978,130.668711 C138.081822,131.243413 137.985733,132.029738 137.778933,132.973743 C137.570044,133.913599 137.248356,135.015284 136.696889,136.089997 C136.425333,136.635653 136.109911,137.191682 135.742267,137.743562 C135.376711,138.295442 134.9276,138.797528 134.440889,139.305838 C132.485689,141.343229 129.916356,142.420018 127.940267,142.965673 Z" id="Combined-Shape"></path>
                    </g>
                </g>
            </g>
        </g>
    </g>
</svg>