<?xml version="1.0" encoding="UTF-8"?>
<svg width="77px" height="78px" viewBox="0 0 77 78" version="1.1" xmlns="http://www.w3.org/2000/svg" xmlns:xlink="http://www.w3.org/1999/xlink">
    <!-- Generator: sketchtool 49.3 (51167) - http://www.bohemiancoding.com/sketch -->
    <title>F51EBE68-EFCE-49A1-8DB1-69B5B560FA48</title>
    <desc>Created with sketchtool.</desc>
    <defs></defs>
    <g id="agency-rating" stroke="none" stroke-width="1" fill="none" fill-rule="evenodd" opacity="0.5">
        <g id="calltouch_awards_mainpage" transform="translate(-734.000000, -5238.000000)" fill="#1F282C">
            <g id="reasons" transform="translate(0.000000, 5036.000000)">
                <g id="Group" transform="translate(121.000000, 202.000000)">
                    <g id="paid_content_icon" transform="translate(613.000000, 0.000000)">
                        <path d="M15.5335469,50.8114113 C20.145125,50.8114113 23.8976719,47.0493186 23.8976719,42.4260093 L21.5082656,42.4260093 C21.5082656,45.7285454 18.8277031,48.4159268 15.5335469,48.4159268 C12.2393906,48.4159268 9.55882812,45.7285454 9.55882812,42.4260093 L7.16942187,42.4260093 C7.16942187,47.0493186 10.9219687,50.8114113 15.5335469,50.8114113" id="Fill-1"></path>
                        <path d="M59.7443,52.0092742 C64.3558781,52.0092742 68.1072219,48.2471814 68.1072219,43.6238722 L65.7190187,43.6238722 C65.7190187,46.9264082 63.0372531,49.6137897 59.7443,49.6137897 C56.4501437,49.6137897 53.7695812,46.9264082 53.7695812,43.6238722 L51.380175,43.6238722 C51.380175,48.2471814 55.1327219,52.0092742 59.7443,52.0092742" id="Fill-3"></path>
                        <path d="M15.5335469,65.1861278 C16.1916563,65.1861278 16.72825,65.7240866 16.72825,66.3838701 L19.1176563,66.3838701 C19.1176563,64.8242722 18.1154531,63.5071175 16.72825,63.0113753 L16.72825,61.592901 L14.3388438,61.592901 L14.3388438,63.0113753 C12.9504375,63.5071175 11.9494375,64.8242722 11.9494375,66.3838701 C11.9494375,68.3475402 13.5507969,69.1363856 14.7202344,69.7129423 L15.2929219,69.9976021 C16.4731875,70.5789835 16.72825,70.7888598 16.72825,71.1760454 C16.72825,71.8358289 16.1916563,72.3737876 15.5335469,72.3737876 C14.8754375,72.3737876 14.3388438,71.8358289 14.3388438,71.1760454 L11.9494375,71.1760454 C11.9494375,72.7356433 12.9504375,74.0527979 14.3388438,74.5485402 L14.3388438,75.9670144 L16.72825,75.9670144 L16.72825,74.5485402 C18.1154531,74.0527979 19.1176563,72.7356433 19.1176563,71.1760454 C19.1176563,69.2123753 17.5162969,68.4235299 16.3468594,67.8469732 L15.7741719,67.5623134 C14.5939063,66.980932 14.3388438,66.7722619 14.3388438,66.3838701 C14.3388438,65.7240866 14.8754375,65.1861278 15.5335469,65.1861278" id="Fill-5"></path>
                        <path d="M15.5335469,57.9990711 C9.60334375,57.9990711 4.78001562,62.8358753 4.78001562,68.7799577 C4.78001562,72.070432 6.24903125,75.1365557 8.8116875,77.1967206 L10.3059687,75.327133 C8.31359375,73.7253186 7.16942187,71.3382773 7.16942187,68.7799577 C7.16942187,64.1566485 10.9219687,60.3945557 15.5335469,60.3945557 C20.145125,60.3945557 23.8976719,64.1566485 23.8976719,68.7799577 C23.8976719,71.3382773 22.7535,73.7253186 20.7599219,75.327133 L22.2554062,77.1967206 C24.8180625,75.1365557 26.2870781,72.070432 26.2870781,68.7799577 C26.2870781,62.8358753 21.4625469,57.9990711 15.5335469,57.9990711" id="Fill-7"></path>
                        <polygon id="Fill-10" points="20.3123594 69.9768557 22.7017656 69.9768557 22.7017656 67.5813711 20.3123594 67.5813711"></polygon>
                        <polygon id="Fill-12" points="8.364125 69.9780619 10.7535312 69.9780619 10.7535312 67.5825773 8.364125 67.5825773"></polygon>
                        <path d="M34.6513234,49.6134278 C35.3094328,49.6134278 35.8460266,50.1513866 35.8460266,50.8111701 L38.2354328,50.8111701 C38.2354328,49.2515722 37.2332297,47.9344175 35.8460266,47.4386753 L35.8460266,46.020201 L33.4566203,46.020201 L33.4566203,47.4386753 C32.0694172,47.9344175 31.0672141,49.2515722 31.0672141,50.8111701 C31.0672141,52.7748402 32.6685734,53.5636856 33.8380109,54.1402423 L34.4106984,54.4249021 C35.5909641,55.0062835 35.8460266,55.2149536 35.8460266,55.6033454 C35.8460266,56.2631289 35.3094328,56.8010876 34.6513234,56.8010876 C33.9932141,56.8010876 33.4566203,56.2631289 33.4566203,55.6033454 L31.0672141,55.6033454 C31.0672141,57.1629433 32.0694172,58.4800979 33.4566203,58.9758402 L33.4566203,60.3943144 L35.8460266,60.3943144 L35.8460266,58.9758402 C37.2332297,58.4800979 38.2354328,57.1629433 38.2354328,55.6033454 C38.2354328,53.6396753 36.6340734,52.8508299 35.4646359,52.2742732 L34.8919484,51.9896134 C33.7116828,51.408232 33.4566203,51.1983557 33.4566203,50.8111701 C33.4566203,50.1513866 33.9932141,49.6134278 34.6513234,49.6134278" id="Fill-13"></path>
                        <path d="M34.6513234,61.5922979 C30.0397453,61.5922979 26.2871984,57.8314113 26.2871984,53.2068959 C26.2871984,48.5835866 30.0397453,44.8214938 34.6513234,44.8214938 C39.2629016,44.8214938 43.0154484,48.5835866 43.0154484,53.2068959 C43.0154484,57.8314113 39.2629016,61.5922979 34.6513234,61.5922979 M34.6513234,42.4260093 C28.7223234,42.4260093 23.8977922,47.2628134 23.8977922,53.2068959 C23.8977922,59.1521845 28.7223234,63.9877825 34.6513234,63.9877825 C40.5815266,63.9877825 45.4048547,59.1521845 45.4048547,53.2068959 C45.4048547,47.2628134 40.5815266,42.4260093 34.6513234,42.4260093" id="Fill-14"></path>
                        <polygon id="Fill-15" points="39.4312187 54.405 41.820625 54.405 41.820625 52.0095155 39.4312187 52.0095155"></polygon>
                        <polygon id="Fill-16" points="27.4817812 54.405 29.8711875 54.405 29.8711875 52.0095155 27.4817812 52.0095155"></polygon>
                        <path d="M59.7443,62.7901608 C60.4036125,62.7901608 60.9390031,63.3281196 60.9390031,63.9879031 L63.3284094,63.9879031 C63.3284094,62.4283052 62.3262062,61.1111505 60.9390031,60.6154082 L60.9390031,59.196934 L58.5495969,59.196934 L58.5495969,60.6154082 C57.1611906,61.1111505 56.1601906,62.4283052 56.1601906,63.9879031 C56.1601906,65.9515732 57.76155,66.7404186 58.9297844,67.3169753 L59.503675,67.6016351 C60.6839406,68.1830165 60.9390031,68.3928928 60.9390031,68.7800784 C60.9390031,69.441068 60.4036125,69.9778206 59.7443,69.9778206 C59.0837844,69.9778206 58.5495969,69.441068 58.5495969,68.7800784 L56.1601906,68.7800784 C56.1601906,70.3396763 57.1611906,71.6568309 58.5495969,72.1525732 L58.5495969,73.5710474 L60.9390031,73.5710474 L60.9390031,72.1525732 C62.3262062,71.6568309 63.3284094,70.3396763 63.3284094,68.7800784 C63.3284094,66.8164082 61.7258469,66.0275629 60.5576125,65.4510062 L59.9837219,65.1675526 C58.8034562,64.5849649 58.5495969,64.3762948 58.5495969,63.9879031 C58.5495969,63.3281196 59.0837844,62.7901608 59.7443,62.7901608" id="Fill-17"></path>
                        <path d="M59.7443,74.769634 C55.1327219,74.769634 51.380175,71.0075412 51.380175,66.384232 C51.380175,61.7609227 55.1327219,57.9988299 59.7443,57.9988299 C64.3558781,57.9988299 68.1072219,61.7609227 68.1072219,66.384232 C68.1072219,71.0075412 64.3558781,74.769634 59.7443,74.769634 M59.7443,55.6033454 C53.8128937,55.6033454 48.9907687,60.4401495 48.9907687,66.384232 C48.9907687,72.3295206 53.8128937,77.1651186 59.7443,77.1651186 C65.6745031,77.1651186 70.4978312,72.3295206 70.4978312,66.384232 C70.4978312,60.4401495 65.6745031,55.6033454 59.7443,55.6033454" id="Fill-18"></path>
                        <polygon id="Fill-19" points="64.5235938 67.5813711 66.9117969 67.5813711 66.9117969 65.1858866 64.5235938 65.1858866"></polygon>
                        <polygon id="Fill-20" points="52.5753594 67.5813711 54.9647656 67.5813711 54.9647656 65.1858866 52.5753594 65.1858866"></polygon>
                        <polygon id="Fill-21" points="0 41.2274227 5.97471875 41.2274227 5.97471875 38.8319381 0 38.8319381"></polygon>
                        <polygon id="Fill-22" points="13.1441406 41.2274227 66.913 41.2274227 66.913 38.8319381 13.1441406 38.8319381"></polygon>
                        <polygon id="Fill-23" points="70.4971094 41.2274227 76.4718281 41.2274227 76.4718281 38.8319381 70.4971094 38.8319381"></polygon>
                        <path d="M32.1939406,20.0647763 L32.8592687,18.0637144 L33.5245969,20.0647763 L32.1939406,20.0647763 Z M34.3210656,22.4602608 L34.7120812,23.6374979 L36.9799719,22.8800134 L33.9926125,13.8963433 L31.725925,13.8963433 L28.7385656,22.8800134 L31.0052531,23.6374979 L31.3962687,22.4602608 L34.3210656,22.4602608 Z" id="Fill-24"></path>
                        <polygon id="Fill-25" points="39.4312187 16.0712165 52.5753594 16.0712165 52.5753594 13.675732 39.4312187 13.675732"></polygon>
                        <polygon id="Fill-26" points="39.4312187 20.8633918 52.5753594 20.8633918 52.5753594 18.4679072 39.4312187 18.4679072"></polygon>
                        <polygon id="Fill-27" points="39.4300156 25.655567 52.5741563 25.655567 52.5741563 23.2600825 39.4300156 23.2600825"></polygon>
                        <polygon id="Fill-28" points="28.6764844 30.4465361 52.5729531 30.4465361 52.5729531 28.0510515 28.6764844 28.0510515"></polygon>
                        <polygon id="Fill-29" points="28.6764844 35.2387113 52.5729531 35.2387113 52.5729531 32.8432268 28.6764844 32.8432268"></polygon>
                        <path d="M74.0819406,20.8635124 C74.0819406,22.8452753 72.4745656,24.4567392 70.4978313,24.4567392 C68.5210969,24.4567392 66.9125188,22.8452753 66.9125188,20.8635124 L66.9125188,13.6758526 C66.9125188,10.3733165 64.2319563,7.68593505 60.9390031,7.68593505 L40.6254406,7.68593505 L40.6254406,2.89496598 L74.0819406,2.89496598 L74.0819406,20.8635124 Z M57.3548938,13.6758526 C57.3548938,11.6940897 58.9622688,10.0826258 60.9390031,10.0826258 C62.9157375,10.0826258 64.5243156,11.6940897 64.5243156,13.6758526 L64.5243156,20.8635124 C64.5243156,22.2168526 64.989925,23.4531928 65.7490969,24.4567392 L57.3548938,24.4567392 L57.3548938,13.6758526 Z M38.2360344,0.499481443 L38.2360344,7.68593505 L29.8719094,7.68593505 C26.5777531,7.68593505 23.8983938,10.3733165 23.8983938,13.6758526 L23.8983938,37.6343165 L26.2865969,37.6343165 L26.2865969,13.6758526 C26.2865969,11.6940897 27.895175,10.0826258 29.8719094,10.0826258 L56.1902687,10.0826258 C55.4310969,11.0861722 54.9642844,12.3225124 54.9642844,13.6758526 L54.9642844,37.6343165 L57.3548938,37.6343165 L57.3548938,26.8534299 L70.4978312,26.8534299 C73.7919875,26.8534299 76.4713469,24.1660485 76.4713469,20.8635124 L76.4713469,0.499481443 L38.2360344,0.499481443 Z" id="Fill-30"></path>
                        <path d="M15.5335469,15.5758361 L13.1441406,17.9713206 L10.7535312,15.5758361 L8.364125,17.9713206 L7.16942187,16.7735784 L7.16942187,16.3309082 L10.0027812,10.0816608 L13.8948906,10.0816608 L16.72825,16.3309082 L16.72825,16.7735784 L15.5335469,15.5758361 Z M12.8084687,7.68617629 L11.0892031,7.68617629 L11.9494375,5.79005258 L12.8084687,7.68617629 Z M11.9494375,0.00036185567 L4.78001562,15.8122485 L4.78001562,37.6345577 L7.16942187,37.6345577 L7.16942187,20.1617536 L8.364125,21.3594959 L10.7535312,18.9640113 L13.1441406,21.3594959 L15.5335469,18.9640113 L16.72825,20.1617536 L16.72825,37.6345577 L19.1176562,37.6345577 L19.1176562,15.8122485 L11.9494375,0.00036185567 Z" id="Fill-31"></path>
                        <polygon id="Fill-32" points="10.7535312 37.6341959 13.1429375 37.6341959 13.1429375 22.061134 10.7535312 22.061134"></polygon>
                    </g>
                </g>
            </g>
        </g>
    </g>
</svg>