<?xml version="1.0" encoding="UTF-8"?>
<svg width="19px" height="26px" viewBox="0 0 19 26" version="1.1" xmlns="http://www.w3.org/2000/svg" xmlns:xlink="http://www.w3.org/1999/xlink">
    <!-- Generator: sketchtool 49.3 (51167) - http://www.bohemiancoding.com/sketch -->
    <title>57E2EA1E-5A0F-40F5-A4DA-80CD9EDFC0B0</title>
    <desc>Created with sketchtool.</desc>
    <defs></defs>
    <g id="agency-rating" stroke="none" stroke-width="1" fill="none" fill-rule="evenodd">
        <g id="calltouch_awards_mainpage" transform="translate(-524.000000, -969.000000)">
            <g id="line" transform="translate(0.000000, 924.000000)">
                <g id="Group-2" transform="translate(518.000000, 36.000000)">
                    <g id="leisure-chess" transform="translate(0.000000, 8.000000)">
                        <g id="Frame_-_24px">
                            <rect id="Rectangle-path" x="0.00128" y="0.00256" width="30.72" height="30.72"></rect>
                        </g>
                        <g id="Filled_Icons" transform="translate(6.400000, 1.280000)" fill="#1EB0CD" fill-rule="nonzero">
                            <g id="Group">
                                <circle id="Oval" cx="8.96" cy="3.84" r="3.84"></circle>
                                <polygon id="Shape" points="5.12 14.08 12.8 14.08 12.8 11.52 14.08 11.52 14.08 8.96 3.84 8.96 3.84 11.52 5.12 11.52"></polygon>
                                <path d="M13.9456009,16.06784 C13.7280009,15.63392 13.2851209,15.36 12.8000009,15.36 L5.12000021,15.36 C4.63488017,15.36 4.19200014,15.63392 3.97568012,16.06784 C3.7171201,16.58496 2.5664,18.68544 2.5664,19.2 L15.3536021,19.2 C15.3548811,18.68544 14.204161,16.58496 13.9456009,16.06784 Z" id="Shape"></path>
                                <path d="M17.7856,23.74784 L16.5056,21.18784 C16.288,20.75392 15.84512,20.48 15.36,20.48 L2.56,20.48 C2.07488,20.48 1.632,20.75392 1.4144,21.18784 L0.1344,23.74784 C-0.06272,24.14592 -0.04352,24.61568 0.19072,24.99456 C0.42496,25.3696 0.83712,25.6 1.28128,25.6 L16.64128,25.6 C17.08544,25.6 17.49632,25.3696 17.73056,24.99328 C17.96352,24.6144 17.98272,24.14464 17.7856,23.74784 Z" id="Shape"></path>
                            </g>
                        </g>
                    </g>
                </g>
            </g>
        </g>
    </g>
</svg>