<?xml version="1.0" encoding="UTF-8"?>
<svg width="87px" height="78px" viewBox="0 0 87 78" version="1.1" xmlns="http://www.w3.org/2000/svg" xmlns:xlink="http://www.w3.org/1999/xlink">
    <!-- Generator: sketchtool 49.3 (51167) - http://www.bohemiancoding.com/sketch -->
    <title>96307FC7-524D-4F66-812C-EAAAF167261C</title>
    <desc>Created with sketchtool.</desc>
    <defs></defs>
    <g id="agency-rating" stroke="none" stroke-width="1" fill="none" fill-rule="evenodd" opacity="0.5">
        <g id="calltouch_awards_mainpage" transform="translate(-623.000000, -5238.000000)" fill="#1F282C">
            <g id="reasons" transform="translate(0.000000, 5036.000000)">
                <g id="Group" transform="translate(121.000000, 202.000000)">
                    <g id="return_icon" transform="translate(502.000000, 0.000000)">
                        <path d="M21.75,31.0732842 C11.255625,31.0732842 2.71875,39.6669684 2.71875,50.2311789 C2.71875,60.7953895 11.255625,69.3890737 21.75,69.3890737 C32.244375,69.3890737 40.78125,60.7953895 40.78125,50.2311789 C40.78125,39.6669684 32.244375,31.0732842 21.75,31.0732842 M21.75,72.1259158 C9.75759375,72.1259158 0,62.3033895 0,50.2311789 C0,38.1589684 9.75759375,28.3364421 21.75,28.3364421 C33.7424063,28.3364421 43.5,38.1589684 43.5,50.2311789 C43.5,62.3033895 33.7424063,72.1259158 21.75,72.1259158" id="Fill-1"></path>
                        <polygon id="Fill-3" points="10.1953125 67.3358947 12.9140625 67.3358947 12.9140625 59.3538947 10.1953125 59.3538947"></polygon>
                        <path d="M22.8830391,54.5770105 L22.8830391,53.4234316 L20.6169609,53.4234316 L20.6169609,54.5770105 L17.0499609,52.0112211 L18.4419609,51.7033263 L21.7506797,52.8131158 L25.0566797,51.7033263 L26.4432422,52.0166947 L22.8830391,54.5770105 Z M21.7506797,69.9772211 L20.9092266,68.2844842 L21.7506797,64.0505895 L22.5907734,68.2844842 L21.7506797,69.9772211 Z M36.6997266,52.3191158 C35.0426484,50.6523789 35.1581953,51.3379579 25.0933828,48.8063789 L21.7506797,49.9298526 L18.4066172,48.8063789 C13.5808359,50.0201684 15.3602578,49.5945895 10.6051641,50.6688 C5.44905469,50.8111158 3.39911719,57.7695368 3.39911719,61.6339579 L6.11786719,61.6339579 C6.11786719,58.6521684 7.70425781,53.4029053 10.7655703,53.4029053 L13.4734453,52.8021684 L20.2444922,57.6723789 L18.0599766,68.6690105 L19.4003203,71.3689053 L21.7506797,70.1865895 L24.0996797,71.3689053 L25.4400234,68.6690105 L23.2555078,57.6723789 L30.0034453,52.8199579 C34.0503047,53.7326947 34.0149609,53.4850105 34.7775703,54.2540632 C36.4699922,55.9577474 37.3834922,59.3281684 37.3834922,61.6339579 L40.1022422,61.6339579 C40.1022422,58.7972211 39.0364922,54.6714316 36.6997266,52.3191158 Z" id="Fill-5"></path>
                        <path d="M18.5919,38.8281263 C18.5919,37.8072842 20.147025,36.8083368 21.7918687,36.7754947 C23.0968687,36.7098105 24.9361031,37.6526526 24.9361031,38.8418105 C24.9551344,40.9560211 25.4703375,45.4430737 21.7633219,45.4430737 C18.1256344,45.4430737 18.57015,41.1530737 18.5919,38.8281263 Z M15.8867437,42.4407579 C16.9633687,50.1545474 26.5619156,50.1682316 27.6412594,42.4407579 L27.6208687,42.4366526 C27.6834,41.8920211 27.6738844,40.8917053 27.6548531,38.8212842 C27.650775,36.1487579 24.9034781,34.0249684 21.7361344,34.0386526 C18.5035406,34.1070737 15.87315,36.2541263 15.87315,38.8158105 C15.8541187,40.8876 15.8446031,41.8906526 15.9084937,42.4366526 L15.8867437,42.4407579 Z" id="Fill-6"></path>
                        <polygon id="Fill-7" points="30.5859375 67.3358947 33.3046875 67.3358947 33.3046875 59.3538947 30.5859375 59.3538947"></polygon>
                        <path d="M50.296875,3.70486316 L12.7971562,3.70486316 L14.5548281,1.93549474 L12.6326719,0.000547368421 L7.59346875,5.07328421 L12.6326719,10.1460211 L14.5548281,8.21107368 L12.7971562,6.44170526 L50.296875,6.44170526 C69.0358594,6.44170526 84.28125,21.7871789 84.28125,40.6522316 C84.28125,59.5159158 69.0358594,74.8627579 50.296875,74.8627579 L0,74.8627579 L0,77.5996 L50.296875,77.5996 C70.53525,77.5996 87,61.0252842 87,40.6522316 C87,20.2791789 70.53525,3.70486316 50.296875,3.70486316" id="Fill-8"></path>
                        <path d="M23.5076719,8.21107368 L18.4684687,13.2838105 L23.5076719,18.3565474 L25.4298281,16.4216 L23.6721563,14.6522316 L50.296875,14.6522316 C64.5390469,14.6522316 76.125,26.3152842 76.125,40.6522316 C76.125,54.9891789 64.5390469,66.6522316 50.296875,66.6522316 L39.421875,66.6522316 L39.421875,69.3890737 L50.296875,69.3890737 C66.0370781,69.3890737 78.84375,56.4971789 78.84375,40.6522316 C78.84375,24.8072842 66.0370781,11.9153895 50.296875,11.9153895 L23.6721563,11.9153895 L25.4298281,10.1460211 L23.5076719,8.21107368 Z" id="Fill-9"></path>
                        <path d="M66.609375,40.6522316 C66.609375,49.7070737 59.2918594,57.0732842 50.296875,57.0732842 L44.859375,57.0732842 L44.859375,59.8101263 L50.296875,59.8101263 C60.79125,59.8101263 69.328125,51.2164421 69.328125,40.6522316 C69.328125,30.0880211 60.79125,21.4943368 50.296875,21.4943368 L34.5471563,21.4943368 L36.3048281,19.7249684 L34.3826719,17.7900211 L29.3434687,22.8627579 L34.3826719,27.9354947 L36.3048281,26.0005474 L34.5471563,24.2311789 L50.296875,24.2311789 C59.2918594,24.2311789 66.609375,31.5973895 66.609375,40.6522316" id="Fill-10"></path>
                    </g>
                </g>
            </g>
        </g>
    </g>
</svg>