<?xml version="1.0" encoding="UTF-8"?>
<svg width="78px" height="78px" viewBox="0 0 78 78" version="1.1" xmlns="http://www.w3.org/2000/svg" xmlns:xlink="http://www.w3.org/1999/xlink">
    <!-- Generator: sketchtool 49.3 (51167) - http://www.bohemiancoding.com/sketch -->
    <title>D74A13B8-2C9D-46D8-B41E-32AA66E2CA5D</title>
    <desc>Created with sketchtool.</desc>
    <defs></defs>
    <g id="agency-rating" stroke="none" stroke-width="1" fill="none" fill-rule="evenodd" opacity="0.5">
        <g id="calltouch_awards_mainpage" transform="translate(-219.000000, -5240.000000)" fill="#1F282C">
            <g id="reasons" transform="translate(0.000000, 5036.000000)">
                <g id="Group" transform="translate(121.000000, 202.000000)">
                    <g id="shop_icon" transform="translate(98.000000, 2.000000)">
                        <g id="Group-3" transform="translate(20.103093, 39.804124)">
                            <path d="M33.6978093,34.9798639 L4.90012887,34.9798639 C3.52869588,34.9798639 2.41297423,33.8629361 2.41297423,32.4915031 L2.41297423,30.1551216 L36.1861701,30.1551216 L36.1861701,32.4915031 C36.1861701,33.8629361 35.0692423,34.9798639 33.6978093,34.9798639 Z M36.1861701,27.7427505 L2.41297423,27.7427505 L2.41297423,0.000482474227 L0.000603092784,0.000482474227 L0.000603092784,32.4915031 C0.000603092784,35.1945649 2.1982732,37.3922351 4.90012887,37.3922351 L33.6978093,37.3922351 C36.3996649,37.3922351 38.5973351,35.1945649 38.5973351,32.4915031 L38.5973351,0.000482474227 L36.1861701,0.000482474227 L36.1861701,27.7427505 Z" id="Fill-1"></path>
                        </g>
                        <polygon id="Fill-4" points="38.1958763 73.5773196 40.6082474 73.5773196 40.6082474 71.1649485 38.1958763 71.1649485"></polygon>
                        <path d="M59.9072165,34.9793814 L57.4948454,34.9793814 C57.4948454,35.6439897 56.953268,36.185567 56.2886598,36.185567 C55.6240515,36.185567 55.0824742,35.6439897 55.0824742,34.9793814 L52.6701031,34.9793814 C52.6701031,35.6439897 52.1285258,36.185567 51.4639175,36.185567 C50.7993093,36.185567 50.257732,35.6439897 50.257732,34.9793814 L47.8453608,34.9793814 C47.8453608,35.6439897 47.3037835,36.185567 46.6391753,36.185567 C45.974567,36.185567 45.4329897,35.6439897 45.4329897,34.9793814 L43.0206186,34.9793814 C43.0206186,35.6439897 42.4790412,36.185567 41.814433,36.185567 C41.1498247,36.185567 40.6082474,35.6439897 40.6082474,34.9793814 L38.1958763,34.9793814 C38.1958763,35.6439897 37.654299,36.185567 36.9896907,36.185567 C36.3250825,36.185567 35.7835052,35.6439897 35.7835052,34.9793814 L33.371134,34.9793814 C33.371134,35.6439897 32.8295567,36.185567 32.1649485,36.185567 C31.5003402,36.185567 30.9587629,35.6439897 30.9587629,34.9793814 L28.5463918,34.9793814 C28.5463918,35.6439897 28.0048144,36.185567 27.3402062,36.185567 C26.6755979,36.185567 26.1340206,35.6439897 26.1340206,34.9793814 L23.7216495,34.9793814 C23.7216495,35.6439897 23.1800722,36.185567 22.5154639,36.185567 C21.8508557,36.185567 21.3092784,35.6439897 21.3092784,34.9793814 L18.8969072,34.9793814 C18.8969072,35.6439897 18.3553299,36.185567 17.6907216,36.185567 C17.0261134,36.185567 16.4845361,35.6439897 16.4845361,34.9793814 L16.4845361,33.7731959 L62.3195876,33.7731959 L62.3195876,34.9793814 C62.3195876,35.6439897 61.7780103,36.185567 61.1134021,36.185567 C60.4487938,36.185567 59.9072165,35.6439897 59.9072165,34.9793814 Z M22.5154639,18.167567 C22.5154639,16.796134 23.6311856,15.6804124 25.0038247,15.6804124 L53.8015052,15.6804124 C55.1729381,15.6804124 56.2886598,16.796134 56.2886598,18.167567 L56.2886598,19.2989691 L22.5154639,19.2989691 L22.5154639,18.167567 Z M61.5741649,31.3608247 L17.2299588,31.3608247 L22.054701,21.7113402 L56.7494227,21.7113402 L61.5741649,31.3608247 Z M64.7319588,34.9793814 L64.7319588,32.2823505 L58.7010309,20.2204948 L58.7010309,18.167567 C58.7010309,15.4657113 56.5033608,13.2680412 53.8015052,13.2680412 L25.0038247,13.2680412 C22.3007629,13.2680412 20.1030928,15.4657113 20.1030928,18.167567 L20.1030928,20.2204948 L14.0721649,32.2823505 L14.0721649,34.9793814 C14.0721649,36.9744124 15.6956907,38.5979381 17.6907216,38.5979381 C18.6170722,38.5979381 19.4626082,38.2481443 20.1030928,37.674 C20.7435773,38.2481443 21.5891134,38.5979381 22.5154639,38.5979381 C23.4418144,38.5979381 24.2873505,38.2481443 24.9278351,37.674 C25.5683196,38.2481443 26.4138557,38.5979381 27.3402062,38.5979381 C28.2665567,38.5979381 29.1120928,38.2481443 29.7525773,37.674 C30.3930619,38.2481443 31.2385979,38.5979381 32.1649485,38.5979381 C33.091299,38.5979381 33.9368351,38.2481443 34.5773196,37.674 C35.2178041,38.2481443 36.0633402,38.5979381 36.9896907,38.5979381 C37.9160412,38.5979381 38.7615773,38.2481443 39.4020619,37.674 C40.0425464,38.2481443 40.8880825,38.5979381 41.814433,38.5979381 C42.7407835,38.5979381 43.5863196,38.2481443 44.2268041,37.674 C44.8672887,38.2481443 45.7128247,38.5979381 46.6391753,38.5979381 C47.5655258,38.5979381 48.4110619,38.2481443 49.0515464,37.674 C49.6920309,38.2481443 50.537567,38.5979381 51.4639175,38.5979381 C52.390268,38.5979381 53.2358041,38.2481443 53.8762887,37.674 C54.5167732,38.2481443 55.3623093,38.5979381 56.2886598,38.5979381 C57.2150103,38.5979381 58.0605464,38.2481443 58.7010309,37.674 C59.3415155,38.2481443 60.1870515,38.5979381 61.1134021,38.5979381 C63.108433,38.5979381 64.7319588,36.9744124 64.7319588,34.9793814 Z" id="Fill-6"></path>
                        <path d="M39.4020619,56.0881113 C38.0716392,56.0881113 36.9896907,54.7347711 36.9896907,53.0726474 C36.9896907,51.4093175 38.0716392,50.0571835 39.4020619,50.0571835 C40.7324845,50.0571835 41.814433,51.4093175 41.814433,53.0726474 C41.814433,54.7347711 40.7324845,56.0881113 39.4020619,56.0881113 Z M43.0206186,47.6448124 L43.0206186,49.5204309 C42.1352784,48.3793794 40.8494845,47.6448124 39.4020619,47.6448124 C36.7412165,47.6448124 34.5773196,50.080101 34.5773196,53.0726474 C34.5773196,56.0639876 36.7412165,58.5004825 39.4020619,58.5004825 C40.8772268,58.5004825 42.1823196,57.7357608 43.068866,56.5597299 C43.3016598,58.3292041 44.804567,59.706668 46.6391753,59.706668 C49.7740515,59.706668 50.2311959,56.5223381 50.257732,53.0822969 C50.2818557,50.0246165 49.348268,47.4554412 47.5594948,45.6521938 C45.7465979,43.8248227 43.0640412,42.8200701 40.0051546,42.8200701 C34.3517629,42.8200701 29.7525773,47.4192557 29.7525773,53.0726474 C29.7525773,55.8987402 30.9032784,58.4630907 32.7595979,60.3194103 L32.7559794,60.3218227 C33.1540206,60.7210701 33.5882474,61.0720701 34.040567,61.3941216 C34.1274124,61.4568433 34.2118454,61.5268021 34.3023093,61.5871113 C34.4012165,61.6522454 34.5037423,61.7089361 34.6050619,61.7716577 C34.8004639,61.8922763 34.9970722,62.014101 35.2009175,62.1238639 L35.2455464,62.1443691 C36.6688454,62.8958227 38.2875464,63.3252247 40.0051546,63.3252247 L40.0051546,63.3179876 C40.0148041,63.3179876 40.0232474,63.3191938 40.0328969,63.3191938 C41.1715361,63.3191938 42.3186186,63.1310289 43.4222784,62.7414309 L42.6189588,60.4665649 C41.561134,60.8392763 40.4514433,60.9707505 39.3658763,60.8802866 C39.3598454,60.8802866 39.3538144,60.8802866 39.3489897,60.8790804 C38.6409588,60.8187711 37.9437835,60.6595546 37.2767629,60.4134928 C37.2490206,60.4026371 37.2200722,60.3917814 37.1923299,60.382132 C36.8642474,60.2566887 36.5446082,60.1119464 36.2358247,59.9418742 C36.231,59.940668 36.2273814,59.9370495 36.2237629,59.9358433 C35.9523711,59.7862763 35.6930412,59.6137918 35.4385361,59.4316577 C35.3516907,59.3701423 35.2660515,59.3062144 35.1816186,59.2398742 C34.9777732,59.0806577 34.7799588,58.9093794 34.5905876,58.7272454 C33.0985361,57.3003278 32.1649485,55.2956474 32.1649485,53.0726474 C32.1649485,48.7496784 35.6821856,45.2324412 40.0051546,45.2324412 C42.451299,45.2324412 44.4716598,45.9645959 45.8467113,47.3517093 C47.1916082,48.7074619 47.8646598,50.6289155 47.8453608,53.0629979 C47.8127938,57.2942969 46.9901753,57.2942969 46.6391753,57.2942969 C45.974567,57.2942969 45.4329897,56.7527196 45.4329897,56.0881113 L45.4329897,47.6448124 L43.0206186,47.6448124 Z" id="Fill-7"></path>
                        <path d="M75.5876289,67.2230134 L75.5876289,70.2819 L72.9388454,68.7536629 L75.5876289,67.2230134 Z M62.3195876,72.3722196 L70.7628866,72.3722196 L70.7628866,65.1351062 L62.3195876,65.1351062 L62.3195876,72.3722196 Z M73.1752577,62.7227351 L59.9072165,62.7227351 L59.9072165,74.7845907 L73.1752577,74.7845907 L73.1752577,71.6738381 L78,74.4601268 L78,63.0447866 L73.1752577,65.8310753 L73.1752577,62.7227351 Z" id="Fill-8"></path>
                        <path d="M72.5721649,45.8350515 C71.8002062,45.8350515 71.0559897,46.0123608 70.3732887,46.3488866 C69.6351031,44.6300722 67.924732,43.4226804 65.9381443,43.4226804 C63.6560412,43.4226804 61.7406186,45.0148454 61.2400515,47.1461753 C60.8769897,47.1341134 60.430701,47.1087835 60.0097423,47.0738041 L59.8058969,49.477732 C62.5282577,49.705701 62.803268,49.4548144 63.1204948,49.1641237 L63.5257732,48.7781443 L63.5257732,48.2474227 C63.5257732,46.917 64.6077216,45.8350515 65.9381443,45.8350515 C67.268567,45.8350515 68.3505155,46.917 68.3456907,48.2618969 L68.003134,52.2350722 L70.4516907,49.3112784 C71.0270412,48.6249588 71.779701,48.2474227 72.5721649,48.2474227 C74.2342887,48.2474227 75.5876289,49.8709485 75.5876289,51.8659794 C75.5876289,53.8622165 74.2342887,55.4845361 72.5721649,55.4845361 L59.9072165,55.4845361 L59.9072165,57.8969072 L72.5721649,57.8969072 C75.5647113,57.8969072 78,55.191433 78,51.8659794 C78,48.541732 75.5647113,45.8350515 72.5721649,45.8350515" id="Fill-9"></path>
                        <path d="M62.6270443,10.8338381 L66.8426629,13.2679206 L62.6270443,15.7020031 L62.6270443,10.8338381 Z M60.2146732,6.65561134 L60.2146732,19.8802299 L71.6674052,13.2679206 L60.2146732,6.65561134 Z" id="Fill-10"></path>
                        <path d="M64.7319588,2.41237113 C70.7170515,2.41237113 75.5876289,7.28294845 75.5876289,13.2680412 C75.5876289,19.253134 70.7170515,24.1237113 64.7319588,24.1237113 C64.3652784,24.1237113 64.0034227,24.1056186 63.6451856,24.0706392 L63.4063608,26.4709485 C63.843,26.5143711 64.2844639,26.5360825 64.7319588,26.5360825 C72.0474742,26.5360825 78,20.5835567 78,13.2680412 C78,5.95252577 72.0474742,0 64.7319588,0 C57.8808247,0 52.2045155,5.13473196 51.5290515,11.9424433 L53.9293608,12.181268 C54.4817938,6.61230928 59.1268144,2.41237113 64.7319588,2.41237113" id="Fill-11"></path>
                        <polygon id="Fill-12" points="0.804123711 66.3406887 6.60225773 66.3406887 3.05004124 75.8140701 15.6800103 66.3406887 18.8969072 66.3406887 18.8969072 63.9283175 14.8766907 63.9283175 8.20769072 68.9291629 10.0833093 63.9283175 3.21649485 63.9283175 3.21649485 51.8664619 18.8969072 51.8664619 18.8969072 49.4540907 0.804123711 49.4540907"></polygon>
                        <polygon id="Fill-13" points="4.42268041 56.6907216 18.8969072 56.6907216 18.8969072 54.2783505 4.42268041 54.2783505"></polygon>
                        <polygon id="Fill-14" points="4.42268041 61.5154639 18.8969072 61.5154639 18.8969072 59.1030928 4.42268041 59.1030928"></polygon>
                        <path d="M5.44866186,2.41237113 L27.5206515,2.41237113 L16.4840536,11.2404433 L5.44866186,2.41237113 Z M3.21601237,18.0397113 L3.21601237,3.71625773 L12.2937649,10.978701 L3.21601237,18.0397113 Z M18.8964247,19.2989691 L5.52585773,19.2989691 L14.230899,12.5274433 L16.4840536,14.3306907 L18.7384144,12.5274433 L20.9191979,14.2245464 L22.3991876,12.3199794 L20.6755485,10.978701 L29.7520948,3.71625773 L29.7520948,12.0618557 L32.164466,12.0618557 L32.164466,0 L0.803641237,0 L0.803641237,21.7113402 L18.8964247,21.7113402 L18.8964247,19.2989691 Z" id="Fill-15"></path>
                    </g>
                </g>
            </g>
        </g>
    </g>
</svg>