<?xml version="1.0" encoding="UTF-8"?>
<svg width="77px" height="78px" viewBox="0 0 77 78" version="1.1" xmlns="http://www.w3.org/2000/svg" xmlns:xlink="http://www.w3.org/1999/xlink">
    <!-- Generator: sketchtool 49.3 (51167) - http://www.bohemiancoding.com/sketch -->
    <title>CF02F166-32E9-40A8-8006-98AA922A9DC8</title>
    <desc>Created with sketchtool.</desc>
    <defs></defs>
    <g id="agency-rating" stroke="none" stroke-width="1" fill="none" fill-rule="evenodd" opacity="0.5">
        <g id="calltouch_awards_mainpage" transform="translate(-421.000000, -5239.000000)" fill="#1F282C">
            <g id="reasons" transform="translate(0.000000, 5036.000000)">
                <g id="Group" transform="translate(121.000000, 202.000000)">
                    <g id="targeting_icon" transform="translate(300.000000, 1.000000)">
                        <path d="M60.15625,74.7839876 L74.59375,74.7839876 C74.59375,69.1523072 75.3842031,70.1872144 67.9224219,68.8688536 C67.6300625,67.662668 67.1680625,66.0126062 68.0728125,65.1417402 C68.8765,64.3673691 69.2350312,63.7678948 69.2350312,63.1973691 C69.2350312,60.0395753 69.2266094,60.3097608 66.6086094,60.3097608 C66.0058437,60.3097608 65.5149687,60.8018845 65.5149687,61.4061835 C65.5149687,63.7063794 65.2803594,63.5507814 66.7469687,65.2141113 C67.5302031,66.1042763 67.0994844,67.701266 66.8384062,68.8592041 C59.395875,70.0726268 60.15625,68.9737918 60.15625,74.7839876 Z M77,77.1963588 L57.75,77.1963588 L57.75,71.5128124 C57.75,68.8676474 59.6798125,67.1464206 62.678,67.1102351 L64.7822656,66.7580289 C64.7846719,66.7121938 64.785875,66.6687711 64.785875,66.6325856 C62.88975,64.4795443 63.1087187,63.886101 63.1087187,61.4061835 C63.1087187,59.4714619 64.6787969,57.8973897 66.6086094,57.8973897 L68.1413906,57.8973897 C70.0712031,57.8973897 71.6412813,59.4714619 71.6412813,61.4061835 C71.6412813,63.5073588 71.8975469,64.705101 69.9508906,66.6735959 C69.9520937,66.7061629 69.9545,66.7411423 69.9569063,66.778534 L71.8229531,67.1102351 C74.9246094,67.1500392 77,68.9098639 77,71.5128124 L77,77.1963588 Z" id="Fill-1"></path>
                        <path d="M60.15625,28.9489361 L74.59375,28.9489361 C74.59375,23.3968639 75.4299219,24.3606062 67.9224219,23.0338021 C66.7265156,18.0992969 69.2350312,19.5889361 69.2350312,17.3623175 C69.2350312,16.0053588 69.4937031,14.4747093 68.1413906,14.4747093 C65.5161719,14.4747093 65.5149687,14.2141732 65.5149687,17.3623175 C65.5149687,19.4490186 67.9500937,18.1125649 66.8384062,23.0241526 C59.395875,24.2375753 60.15625,23.1387402 60.15625,28.9489361 Z M77,31.3613072 L57.75,31.3613072 L57.75,25.6777608 C57.75,23.0325959 59.6798125,21.3113691 62.678,21.2751835 L64.7822656,20.9229773 C64.7846719,20.8771423 64.785875,20.8337196 64.785875,20.797534 C62.88975,18.6444928 63.1087187,18.0510495 63.1087187,15.571132 C63.1087187,13.6364103 64.6787969,12.0623381 66.6086094,12.0623381 L68.1413906,12.0623381 C70.0712031,12.0623381 71.6412813,13.6364103 71.6412813,15.571132 C71.6412813,17.6723072 71.8975469,18.8700495 69.9508906,20.8385443 C69.9520937,20.8711113 69.9545,20.9060907 69.9569063,20.9434825 L71.8229531,21.2751835 C74.9246094,21.3149876 77,23.0748124 77,25.6777608 L77,31.3613072 Z" id="Fill-4"></path>
                        <path d="M2.40625,32.5674928 L16.84375,32.5674928 C16.84375,26.952699 17.6654844,27.9767505 10.1724219,26.6523588 C9.8800625,25.4461732 9.4180625,23.7961113 10.3228125,22.9252454 C11.1265,22.1508742 11.4850312,21.5514 11.4850312,20.9808742 C11.4850312,19.6239155 11.7437031,18.093266 10.3913906,18.093266 C9.1870625,18.093266 7.76496875,17.8665031 7.76496875,19.1896887 C7.76496875,21.4898845 7.53035937,21.3342866 8.99696875,22.9976165 C9.78020312,23.8877814 9.34948437,25.4847711 9.08840625,26.6427093 C1.645875,27.856132 2.40625,26.7572969 2.40625,32.5674928 Z M19.25,34.9798639 L0,34.9798639 L0,29.2963175 C0,26.6511526 1.9298125,24.9299258 4.928,24.8937402 L7.03226563,24.541534 C7.03467187,24.495699 7.035875,24.4522763 7.035875,24.4160907 C5.13975,22.2630495 5.35871875,21.6696062 5.35871875,19.1896887 C5.35871875,17.254967 6.92879688,15.6808948 8.85860938,15.6808948 L10.3913906,15.6808948 C12.3212031,15.6808948 13.8912812,17.254967 13.8912812,19.1896887 C13.8912812,21.2908639 14.1475469,22.4886062 12.2008906,24.457101 C12.2020937,24.489668 12.2045,24.5246474 12.2069063,24.5620392 L14.0729531,24.8937402 C17.1746094,24.9335443 19.25,26.6933691 19.25,29.2963175 L19.25,34.9798639 Z" id="Fill-6"></path>
                        <path d="M19.25,21.7118227 L33.6875,21.7118227 C33.6875,16.0970289 34.5092344,17.1210804 27.0161719,15.7966887 C26.7238125,14.5905031 26.2618125,12.9404412 27.1665625,12.0695753 C27.97025,11.2952041 28.3287812,10.6957299 28.3287812,10.1252041 C28.3287812,8.76824536 28.5874531,7.23759588 27.2351406,7.23759588 C26.0308125,7.23759588 24.6087187,7.01083299 24.6087187,8.33401856 C24.6087187,10.6547196 24.3873437,10.4930907 25.8407188,12.1419464 C26.6239531,13.0321113 26.1932344,14.629101 25.9321562,15.7870392 C18.5678281,16.9884 19.25,15.8582041 19.25,21.7118227 Z M36.09375,24.1241938 L16.84375,24.1241938 L16.84375,18.4406474 C16.84375,15.7954825 18.7735625,14.0742557 21.77175,14.0380701 L23.8760156,13.6858639 C23.8784219,13.6400289 23.879625,13.5966062 23.879625,13.5604206 C21.9835,11.4073794 22.2024687,10.8139361 22.2024687,8.33401856 C22.2024687,6.39929691 23.7725469,4.82522474 25.7023594,4.82522474 L27.2351406,4.82522474 C29.1649531,4.82522474 30.7350312,6.39929691 30.7350312,8.33401856 C30.7350312,10.4351938 30.9912969,11.6329361 29.0446406,13.6014309 C29.0458437,13.6339979 29.04825,13.6689773 29.0506562,13.7063691 L30.9167031,14.0380701 C34.0183594,14.0778742 36.09375,15.837699 36.09375,18.4406474 L36.09375,24.1241938 Z" id="Fill-8"></path>
                        <path d="M42.109375,16.8870804 L56.546875,16.8870804 C56.546875,11.2397196 57.3613906,12.295132 49.8755469,10.9719464 C48.6796406,6.03744124 51.1881562,7.52708041 51.1881562,5.30046186 C51.1881562,3.94350309 51.4468281,2.41285361 50.0945156,2.41285361 C47.18175,2.41285361 47.4680937,2.43938969 47.4680937,5.30046186 C47.4680937,7.38716289 49.9032187,6.05070928 48.7915312,10.9622969 C41.349,12.1757196 42.109375,11.0768845 42.109375,16.8870804 Z M58.953125,19.2994515 L39.703125,19.2994515 L39.703125,13.6159052 C39.703125,10.9707402 41.6329375,9.2495134 44.631125,9.21332784 L46.7353906,8.86112165 C46.7377969,8.8152866 46.739,8.77186392 46.739,8.73567835 C44.842875,6.58263711 45.0618437,5.98919381 45.0618437,3.50927629 C45.0618437,1.57455464 46.6319219,0.000482474227 48.5617344,0.000482474227 L50.0945156,0.000482474227 C52.0243281,0.000482474227 53.5944062,1.57455464 53.5944062,3.50927629 C53.5944062,5.61045155 53.8506719,6.80819381 51.9040156,8.77668866 C51.9052187,8.80925567 51.907625,8.84423505 51.9100312,8.8816268 L53.7760781,9.21332784 C56.8777344,9.25313196 58.953125,11.0129567 58.953125,13.6159052 L58.953125,19.2994515 Z" id="Fill-10"></path>
                        <path d="M2.40625,74.7839876 L16.84375,74.7839876 C16.84375,69.1197402 17.5319375,70.1703278 10.1724219,68.8688536 C9.8800625,67.662668 9.4180625,66.0126062 10.3228125,65.1417402 C11.1265,64.3673691 11.4850312,63.7678948 11.4850312,63.1973691 C11.4850312,61.8404103 11.7437031,60.3097608 10.3913906,60.3097608 C9.1870625,60.3097608 7.76496875,60.0829979 7.76496875,61.4061835 C7.76496875,63.7268845 7.54359375,63.5652557 8.99696875,65.2141113 C9.78020312,66.1042763 9.34948437,67.701266 9.08840625,68.8592041 C1.645875,70.0726268 2.40625,68.9737918 2.40625,74.7839876 Z M19.25,77.1963588 L0,77.1963588 L0,71.5128124 C0,68.8676474 1.9298125,67.1464206 4.928,67.1102351 L7.03226563,66.7580289 C7.03467187,66.7121938 7.035875,66.6687711 7.035875,66.6325856 C5.13975,64.4795443 5.35871875,63.886101 5.35871875,61.4061835 C5.35871875,59.4714619 6.92879688,57.8973897 8.85860938,57.8973897 L10.3913906,57.8973897 C12.3212031,57.8973897 13.8912812,59.4714619 13.8912812,61.4061835 C13.8912812,63.5073588 14.1475469,64.705101 12.2008906,66.6735959 C12.2020937,66.7061629 12.2045,66.7411423 12.2069063,66.778534 L14.0729531,67.1102351 C17.1746094,67.1500392 19.25,68.9098639 19.25,71.5128124 L19.25,77.1963588 Z" id="Fill-12"></path>
                        <polygon id="Fill-15" points="28.5561719 64.0581031 30.9624219 64.0581031 30.9624219 57.2431546 28.5561719 57.2431546"></polygon>
                        <path d="M39.4716437,53.1175175 L39.4716437,52.1417134 L37.5285969,52.1417134 L37.5285969,53.1175175 L34.5604875,50.9910124 L35.6601438,50.7497753 L38.4995188,51.6990433 L41.3388937,50.7497753 L42.4325344,50.9958371 L39.4716437,53.1175175 Z M38.4995188,66.2287546 L37.81855,64.8621464 L38.4995188,61.4450227 L39.1816906,64.8621464 L38.4995188,66.2287546 Z M51.341675,51.2081258 C49.9087531,49.7727649 49.94605,50.3505278 41.3653625,48.1986928 L38.4995187,49.1576103 L35.6348781,48.1986928 C31.5755344,49.2167134 33.1010969,48.8536515 28.9406906,49.7872392 C24.5180031,49.9150948 22.7301594,55.8362598 22.7301594,59.1906619 L25.1364094,59.1906619 C25.1364094,56.6637031 26.4863156,52.1984041 29.0826594,52.1984041 L31.3926594,51.6893938 L37.1676594,55.8229918 L35.2968,65.2022907 L36.4518,67.518167 L38.4995187,66.4917031 L40.5484406,67.518167 L41.7022375,65.2022907 L39.8325812,55.8229918 L45.585925,51.703868 C48.9967844,52.4710021 49.012425,52.2852495 49.6416594,52.9148784 C51.0842062,54.3610948 51.8638313,57.2281979 51.8638313,59.1906619 L54.2700813,59.1906619 C54.2700813,56.7601979 53.3545031,53.224868 51.341675,51.2081258 Z" id="Fill-17"></path>
                        <path d="M35.8306266,39.7187258 C35.8306266,38.3895093 39.0080797,37.1133649 40.7477984,38.8285608 C40.9511266,39.0275814 41.1941578,39.3448082 41.1941578,39.7187258 C41.1941578,41.4954371 41.6681891,45.3274887 38.5123922,45.3274887 C35.4227672,45.3274887 35.8125797,41.6618907 35.8306266,39.7187258 Z M33.4364078,42.8089732 C34.3664234,49.4369629 42.6559547,49.4502309 43.5883766,42.8089732 L43.5715328,42.8053546 C43.6256734,42.3385608 43.6172516,41.4833753 43.6004078,39.7114887 C43.5980016,38.7694577 43.1829234,37.8431072 42.4309703,37.1049216 C39.2847984,34.0098495 33.4243766,36.0555402 33.4243766,39.7078701 C33.4075328,41.4821691 33.3991109,42.3385608 33.4532516,42.8053546 L33.4364078,42.8089732 Z" id="Fill-18"></path>
                        <polygon id="Fill-19" points="46.0375781 64.0581031 48.4438281 64.0581031 48.4438281 57.2431546 46.0375781 57.2431546"></polygon>
                        <path d="M22.4140984,46.9405206 L20.0355203,46.572634 C21.2843641,38.4743041 27.5502391,32.1936959 35.6268172,30.9428814 L35.9937703,33.3275103 C28.9578953,34.4166959 23.5005203,39.8867474 22.4140984,46.9405206" id="Fill-20"></path>
                        <path d="M20.0360016,52.3341 L22.4145797,51.9662134 C23.6261266,59.8377804 30.5416891,65.7734196 38.5003609,65.7734196 C46.4578297,65.7734196 53.3733922,59.8377804 54.5861422,51.9662134 L56.9635172,52.3341 C53.7210953,73.3916876 23.2760172,73.3760072 20.0360016,52.3341" id="Fill-21"></path>
                        <path d="M54.5859016,46.9416062 C53.4994797,39.887833 48.0421047,34.4165753 41.0062297,33.3273897 L41.3731828,30.9427608 C49.4497609,32.1935753 55.7156359,38.4753897 56.9644797,46.5737196 L54.5859016,46.9416062 Z" id="Fill-22"></path>
                        <path d="M38.5,71.1654309 C26.9656406,71.1654309 17.5343437,62.0683794 16.9051094,50.6602763 L23.7087812,50.6602763 L23.7087812,48.2479052 L16.9051094,48.2479052 C17.5126875,37.2402557 26.3171562,28.4133897 37.296875,27.8030598 L37.296875,34.6252454 L39.703125,34.6252454 L39.703125,27.8030598 C50.6828437,28.4133897 59.4873125,37.2402557 60.0948906,48.2479052 L53.2912187,48.2479052 L53.2912187,50.6602763 L60.0948906,50.6602763 C59.4656562,62.0683794 50.0343594,71.1654309 38.5,71.1654309 M38.5,25.3303794 C25.2319375,25.3303794 14.4375,36.1522763 14.4375,49.4540907 C14.4375,62.7559052 25.2319375,73.5778021 38.5,73.5778021 C51.7680625,73.5778021 62.5625,62.7559052 62.5625,49.4540907 C62.5625,36.1522763 51.7680625,25.3303794 38.5,25.3303794" id="Fill-23"></path>
                    </g>
                </g>
            </g>
        </g>
    </g>
</svg>