<?xml version="1.0" encoding="UTF-8"?>
<svg width="271px" height="475px" viewBox="0 0 271 475" version="1.1" xmlns="http://www.w3.org/2000/svg" xmlns:xlink="http://www.w3.org/1999/xlink">
    <!-- Generator: sketchtool 49.3 (51167) - http://www.bohemiancoding.com/sketch -->
    <title>7D6C32F8-34B1-4831-A4B2-54E26252BC44</title>
    <desc>Created with sketchtool.</desc>
    <defs>
        <rect id="path-1" x="0" y="0" width="308" height="480"></rect>
    </defs>
    <g id="agency-rating" stroke="none" stroke-width="1" fill="none" fill-rule="evenodd">
        <g id="calltouch_awards_mainpage" transform="translate(-1024.000000, -5113.000000)">
            <g id="reasons" transform="translate(0.000000, 5036.000000)">
                <g id="man_silhouette" transform="translate(1005.000000, 72.000000)">
                    <mask id="mask-2" fill="white">
                        <use xlink:href="#path-1"></use>
                    </mask>
                    <g id="Rectangle-9"></g>
                    <path d="M286.535762,114.686721 L286.722512,112.836072 C286.722512,112.836072 284.769216,111.128635 280.236764,109.795361 C280.126734,108.130281 280.009637,106.213069 279.896578,104.061879 C279.601817,98.4574893 279.158667,91.3786315 280.043958,88.4296958 C280.93026,85.48076 281.372401,81.9418354 280.93026,78.844646 C280.487109,75.7474566 279.306047,73.2402561 278.124985,72.0612869 C276.944932,70.8813092 275.4681,71.4712981 275.4681,71.4712981 C275.4681,71.4712981 273.992277,68.5213538 272.074312,68.3741087 C270.154329,68.2268636 268.825887,69.2585877 268.825887,69.2585877 C268.825887,69.2585877 267.202683,67.0468859 265.28371,66.8996408 C263.364736,66.7523957 262.183674,67.6368748 262.183674,67.6368748 C262.183674,67.6368748 261.003621,66.0151618 260.560471,66.0151618 C260.118329,66.0151618 259.96994,61.8852398 257.018294,62.1807385 C254.957996,62.3864782 255.2467,66.8996408 254.804559,68.6696074 C252.000294,69.7013315 252.442435,71.4712981 252.589815,75.3047129 C252.65543,76.985929 253.327727,80.9091027 253.918258,83.2690582 C254.509798,85.6280051 256.427763,87.102473 258.198346,88.8724395 C259.96994,90.6413976 262.627834,92.2641191 262.922595,94.7713196 C263.120448,96.4575784 263.519183,102.967626 263.714008,108.484274 C263.352623,108.506462 263.142656,108.522598 263.142656,108.522598 L263.070985,111.109473 C262.877169,111.120566 262.663165,111.125609 262.479444,111.139728 C261.887904,114.531408 261.716296,121.165505 260.11732,126.919157 C258.641497,132.228048 256.576152,135.766973 257.165674,140.485875 C257.755196,145.204777 258.720234,146.18305 258.050966,147.711978 C257.017284,150.071933 254.804559,153.315359 253.327727,157.739772 C251.851904,162.163175 251.556133,164.817621 249.78555,165.998607 C248.013956,167.176568 244.028629,171.748225 242.257036,174.993668 C240.190681,175.435403 237.976947,176.616389 236.352734,178.238102 C233.973449,180.616211 231.925265,181.187038 230.745213,183.694239 C229.585349,186.155047 228.826239,188.707631 227.645177,188.707631 C226.463105,188.707631 220.853565,191.362077 219.378751,191.657575 C217.902928,191.952066 211.408096,185.464205 208.45645,185.464205 C205.504804,185.464205 191.010042,195.597894 188.972962,197.850946 C184.839244,202.422603 181.444448,210.827675 179.378094,211.713163 C179.077276,211.713163 178.305043,211.569952 177.268333,211.346058 C176.914015,209.119229 176.190235,207.759733 175.835917,206.69977 C175.803614,206.60396 175.688536,206.511175 175.513901,206.421416 C175.40488,203.85673 175.305953,200.973348 175.302925,198.930071 C175.906579,198.537753 176.289162,197.989114 176.543545,197.056226 C176.924109,195.663448 177.668077,193.358962 178.258608,191.079689 C179.130777,190.964717 180.393605,190.445325 181.617065,188.458525 C182.581094,186.893289 183.1262,183.753742 183.1262,182.184472 C183.1262,180.615203 182.88494,177.720728 182.160151,177.478681 C182.160151,177.478681 182.526583,167.16144 181.436372,163.238266 C179.019737,154.550806 174.822424,151.987128 174.822424,151.987128 C175.305953,150.538882 173.946217,149.241915 172.981179,147.310584 C172.01513,145.379253 171.772861,143.810992 171.772861,143.810992 C171.81122,144.596635 171.637594,145.450858 171.384221,146.256672 C170.902711,144.352571 170.178932,142.389976 169.114967,141.276561 C169.114967,141.276561 170.323284,144.535115 170.082024,146.345423 C170.056788,146.537043 170.023476,146.728663 169.990164,146.918266 C169.417803,145.509353 168.815158,143.670806 168.391187,142.483769 C167.786524,140.793476 166.94262,138.984177 166.94262,138.984177 C167.191955,139.671993 167.345392,141.042583 167.434224,142.38695 C166.174425,139.918074 163.506435,137.377592 163.438802,137.897992 C163.411547,138.110792 163.378235,138.315523 163.342904,138.517229 C162.557548,137.204125 161.648029,135.911192 160.903051,135.484585 C160.903051,135.484585 161.425949,137.595434 160.753652,139.564081 C160.205518,137.868745 159.525146,136.39226 158.728686,135.846646 C158.728686,135.846646 158.970955,138.743139 157.036839,141.156546 C156.828892,141.418763 156.557348,141.704177 156.247446,142.000684 C156.343344,140.627069 156.571481,139.088055 157.036839,137.536939 C157.036839,137.536939 152.705269,141.841337 151.360675,143.087877 C149.669838,144.656138 146.318448,146.120521 144.596318,147.069546 C141.09351,148.999868 138.196374,152.017384 137.953096,154.790836 C134.572431,158.171421 132.397056,165.652682 132.5192,171.082596 C132.57472,173.616019 133.123864,177.719719 133.123864,177.719719 C133.123864,177.719719 131.946839,178.353075 132.065955,180.043367 C132.18608,181.731643 132.548475,183.179889 132.428349,184.74815 C132.307215,186.31742 133.232885,189.020275 134.330162,190.148818 C135.065045,190.904205 135.961441,191.198695 136.721561,191.255173 C137.033482,192.341357 137.423132,193.658495 137.773413,194.704338 C138.313471,196.324034 138.755612,197.990123 139.994213,198.885695 C140.246577,201.726719 140.368721,204.756337 140.428279,206.996277 C140.320267,207.040652 140.263738,207.066874 140.263738,207.066874 C139.950807,207.69317 139.637876,208.49495 139.346143,209.339088 C138.642553,209.566006 137.893538,209.776789 136.721561,209.943196 C135.552612,210.110612 130.965649,206.550508 125.503489,203.159837 C118.998562,199.120682 112.071683,195.786489 109.120037,196.375469 C106.168391,196.965458 103.363116,197.113712 101.296762,199.915402 C99.1314817,202.852236 98.0493461,205.518784 98.0493461,205.518784 C98.0493461,205.518784 96.8692934,203.602581 95.5408508,203.159837 L93.4734873,203.159837 C93.4734873,203.159837 93.6380284,200.824086 90.5218414,198.293689 C88.1607265,196.376478 86.093363,194.459266 83.7312387,192.393801 C81.3701238,190.330353 80.4858414,189.445874 77.3858056,187.233163 C74.1182003,184.902455 72.3657867,186.053186 69.7089016,182.80976 C67.0520164,179.564317 60.8539637,175.582648 56.7202462,173.812682 C55.5401935,170.423019 56.5738752,163.490398 54.802282,159.655975 C53.0306888,155.82256 52.5421126,150.657888 52.7349185,145.057532 C52.8833084,140.781374 52.5875381,137.536939 52.5875381,137.536939 C52.5875381,137.536939 52.1746711,137.505675 51.4720905,137.472394 C51.6416789,135.639898 51.8496266,133.315241 51.8496266,132.965282 C51.8496266,132.853335 51.5316483,132.725252 50.9865427,132.596161 C51.3650883,126.032661 52.2746071,110.915835 52.7349185,109.075272 C53.3254496,106.715316 55.9833442,104.356369 58.7876097,102.143659 C61.5908658,99.9319572 66.1576394,95.9190244 66.4624948,94.4758209 C67.0530259,91.6741302 67.4951671,88.4296958 66.9056455,85.6280051 C66.6038185,84.1999295 62.9203178,83.5635483 62.9203178,83.5635483 C62.9203178,83.5635483 61.7392556,80.6146126 59.551767,79.8370375 C59.0419923,78.5229256 58.5836998,77.3550502 58.344459,76.7801893 C57.607557,75.0102227 55.9823347,74.5684874 54.802282,76.0419468 C54.1471458,76.8608715 53.4960474,80.630749 53.3254496,82.5308157 C51.4064759,81.7935818 49.1927415,84.3007823 49.1927415,84.3007823 C49.1927415,84.3007823 47.8642989,83.5635483 46.5358563,84.4480274 C44.6178922,85.7258323 45.3547942,87.8397069 45.3547942,87.8397069 C45.3547942,87.8397069 43.8789712,87.6924618 43.1410597,88.7251945 C41.9216383,90.4306152 42.8452895,93.4440968 42.8452895,93.4440968 C42.8452895,93.4440968 41.0747057,95.5085535 39.8936435,97.8675004 C38.7135908,100.227456 39.8936435,102.439158 40.1894138,105.830837 C40.4851841,109.222517 39.155732,112.76245 37.82628,118.513076 C36.9086856,122.485668 35.5227041,129.017904 34.7363388,132.755508 C31.9189503,133.476606 30.4471652,134.292505 30.4471652,134.292505 L29.9858443,139.886809 C23.9270964,141.926053 19.3774834,144.763042 19.3774834,144.763042 C19.3774834,144.763042 21.7820049,153.281069 23.0670409,160.983197 C23.5101915,163.637643 24.6912537,167.030331 24.9860145,171.453735 C25.2807753,175.878147 26.7565983,176.173646 26.9049882,181.334283 C26.9716122,183.69323 26.6092179,186.349693 29.5608638,188.707631 C31.7352295,190.446333 36.3514665,197.259948 41.6652368,201.979859 C46.979007,206.69977 63.2150786,219.675491 69.4141407,225.86987 C75.6132029,232.06324 84.763911,239.731078 87.4218056,241.795535 C90.0786907,243.861 90.6692218,244.745479 90.6692218,245.924448 C90.6692218,247.105434 90.9639826,250.644359 92.4398055,255.657751 C93.916638,260.672152 95.982992,268.634481 93.3261069,281.023238 C90.6692218,293.409979 85.0606907,314.350045 83.5838583,325.853315 C82.1080353,337.355576 77.9753272,379.236717 78.8606191,381.301174 C79.2028243,382.096902 84.2480796,382.258267 84.2480796,382.258267 C84.2480796,382.258267 85.0738136,382.203806 86.1539303,381.677355 L94.0640184,381.449427 C94.0640184,381.449427 95.3914515,381.422197 97.7505474,381.373788 C97.7737649,381.607766 97.7798216,381.830651 97.7545853,382.038408 C97.5325052,383.808374 92.6618856,391.770702 89.3407792,402.609352 C86.0196728,413.448002 85.5765221,417.872415 83.3627877,423.844917 C81.1480438,429.81742 78.7132387,441.983293 79.1563894,443.974127 C79.5985306,445.964961 76.0926939,451.72769 75.1700522,454.591909 C73.1773884,460.786288 73.620539,466.97865 72.5141765,467.864137 C71.4068046,468.748616 67.7404646,469.690581 68.3067688,472.066673 C69.4141407,476.712962 68.0998305,479.593317 68.0998305,484.681341 C68.0998305,489.769365 69.4292826,499.059924 70.3145745,509.45583 C71.1998663,519.851737 70.5205032,554.501732 70.7415739,558.703259 C70.9636539,562.906804 73.8426191,567.330208 73.8426191,569.763786 C73.8426191,572.196355 71.5390432,580.081027 71.0958925,583.399084 C70.682016,586.504341 69.4928782,591.353344 72.6100748,592.868153 C72.592914,592.979091 72.5808006,593.085995 72.5626304,593.19895 C71.9720993,596.896213 69.3071385,601.036221 67.2347278,603.993225 C65.1633264,606.951237 63.2382961,610.501256 62.6467555,613.013499 C62.5094697,613.595419 62.4589969,614.133973 62.4660631,614.642271 C61.7675204,615.237303 61.7816527,615.554989 61.720076,616.480818 C61.6100454,618.115642 61.7220949,618.357688 62.2762856,619.815011 C63.0909157,621.96015 64.1609378,623.173409 70.2449221,623.808782 C78.7061725,624.696287 78.9282526,624.843532 81.5175042,624.621656 C84.0239806,624.407848 84.775015,624.621656 89.2872781,621.442775 C91.3213296,620.011674 92.5447888,618.854893 93.3897025,617.800981 C94.0821886,616.936672 94.0983398,615.253439 94.0983398,614.197511 C94.0983398,614.079513 94.0761318,613.98572 94.0448387,613.90302 C94.2992214,613.244452 94.4425639,612.491081 94.5162541,611.610636 C94.5273581,611.487596 94.5303865,611.36153 94.5384621,611.238489 L97.7253111,611.238489 L101.574362,607.098482 L101.869123,596.896213 C102.096251,596.291097 102.167922,594.876132 102.144704,593.223154 C102.274924,593.190882 102.406153,593.16466 102.535363,593.131378 C107.536203,591.821301 105.931169,583.399084 105.931169,583.399084 C105.931169,583.399084 105.265939,578.828435 104.822788,575.510378 C104.380647,572.192321 104.158567,570.643222 102.830124,568.209644 C101.501682,565.777075 101.05954,563.565373 102.166912,558.699225 C103.273275,553.831061 103.495355,544.246011 103.273275,540.264343 C103.094601,537.048147 101.501682,537.609897 102.387983,534.512708 C103.273275,531.416527 105.554643,530.165952 106.151231,521.019612 C106.816461,510.844573 110.15271,497.947518 109.045338,494.629461 C107.937966,491.311404 109.266408,491.975015 108.160046,489.099702 C110.816931,487.107859 113.473816,485.118034 115.245409,483.348067 C116.995804,481.59928 118.787586,479.809142 121.665542,474.279384 C124.543498,468.748616 136.27841,448.619407 142.698543,439.328847 C149.119685,430.038287 159.968296,419.199637 161.739889,418.536026 C163.511483,417.872415 167.27473,420.084116 169.267394,427.162974 C171.260058,434.240823 174.581164,443.089648 177.016979,446.629581 C179.452793,450.167497 181.444448,453.485554 182.330749,457.68809 C183.216041,461.891635 186.093997,468.527749 189.415103,472.509417 C192.73621,476.491085 195.614165,482.241712 196.057316,485.338901 C196.500467,488.436091 198.27206,494.850328 201.371086,496.842171 C204.471122,498.831997 206.905927,499.938352 207.571158,503.92002 C208.23437,507.901689 212.883919,520.731173 215.983955,526.481799 C219.08399,532.233434 223.069318,540.860383 223.069318,542.851217 C223.069318,544.842051 221.297725,558.114279 222.183017,563.644038 C223.069318,569.173797 224.618831,574.704564 225.283052,579.792588 C225.947274,584.879603 224.840911,592.842939 228.161008,593.064816 C228.556715,593.091037 229.161378,593.104148 229.919479,593.105157 C229.921497,593.731453 229.924526,594.133855 229.924526,594.133855 C229.924526,594.133855 229.968942,594.202435 230.036575,594.305305 L229.841751,602.01651 L233.718057,606.815086 L235.464414,607.030911 C235.479556,607.343555 235.483594,607.657207 235.47148,607.970859 C235.184795,608.246187 234.810287,608.455961 234.729531,608.694982 C234.557924,610.013128 234.764862,612.353921 234.80423,613.414893 C235.543151,616.290206 238.125337,620.788241 239.453779,621.451852 C241.446443,622.704444 249.059752,622.911192 254.656169,622.262709 C260.252587,621.614225 263.734197,620.838667 264.326747,619.611289 C265.43109,617.322939 265.899477,611.220336 265.72686,609.358593 C265.503771,606.962331 265.361438,605.66133 264.509458,604.723399 C263.546438,601.833966 261.498254,597.937014 260.108235,594.741998 C259.483382,593.310896 258.845407,591.598416 258.218535,589.880893 C259.460165,589.333262 259.596441,588.397348 258.936258,585.10047 C257.829895,579.570711 255.615151,577.138142 255.615151,574.704564 C255.615151,572.271995 254.95093,568.953938 253.843558,568.06845 C252.737196,567.183971 252.072974,565.85574 253.180346,564.086782 C254.286709,562.317824 255.394081,559.883237 254.508789,553.247123 C253.622488,546.612018 252.959276,544.17844 252.959276,532.898054 C252.959276,521.615652 253.622488,510.998878 252.959276,506.795334 C252.294045,502.592798 253.401417,497.283906 253.180346,494.187726 C252.959276,491.090536 253.622488,488.656958 251.408753,487.772479 C249.194009,486.888 246.759204,486.003521 246.538133,484.233555 C246.316053,482.463588 248.087647,479.587266 245.430762,475.163863 C242.773876,470.73945 241.445434,467.864137 239.673841,458.794445 C237.903257,449.725762 234.58215,433.799088 231.925265,422.738562 C229.26838,411.679044 225.283052,401.283138 223.290389,394.866883 C221.297725,388.452645 219.526132,382.922887 218.64084,377.835872 C218.635792,377.80965 218.631755,377.779394 218.627717,377.753172 C235.530029,376.55605 244.76654,375.180417 244.76654,375.180417 C244.76654,375.180417 249.194009,375.107803 249.194009,370.093402 C249.194009,365.079001 249.490789,347.973359 248.013956,335.291119 C246.538133,322.607872 246.539143,311.697616 242.700186,298.128881 C238.862239,284.561154 232.072646,267.160013 230.891584,259.196676 C229.711531,251.233339 231.186344,236.192153 232.663177,233.537708 C234.139,230.883262 238.567478,226.165368 244.176009,221.149959 C247.960455,217.766347 254.796484,210.305257 257.756205,206.69977 C263.807887,199.325414 268.973267,188.707631 272.516454,184.579726 C276.058631,180.448796 277.543539,178.593104 278.715516,171.307498 C280.043958,163.048663 280.4861,156.854284 282.257693,147.416479 C284.028277,137.978675 289.321858,119.262413 289.637817,117.038608 C289.720592,116.456688 288.677826,115.593388 286.535762,114.686721" id="Fill-6" fill="#1F282C" mask="url(#mask-2)"></path>
                    <g id="award" mask="url(#mask-2)">
                        <g transform="translate(56.602649, 50.445860) rotate(4.000000) translate(-56.602649, -50.445860) translate(19.377483, 5.095541)">
                            <ellipse id="Oval-4" stroke="#1F282C" stroke-width="3.05732484" fill="none" cx="37.2251656" cy="36.2802548" rx="35.6965031" ry="34.7515924"></ellipse>
                            <g id="Group-7" stroke="none" stroke-width="1" fill="none" fill-rule="evenodd" transform="translate(19.066548, 16.326115)">
                                <path d="M20.5602409,16.4509216 L31.4943775,27.070599 C36.4614357,20.8945842 36.4426193,11.9786663 31.2020357,5.73548145 L20.5602409,16.4509216 Z" id="Fill-23" fill="#1F282C"></path>
                                <path d="M13.1116212,29.1209328 L17.5857827,24.6963319 L22.0599442,29.1209328 L13.1116212,29.1209328 Z M17.5541161,19.5006369 L3.42670682,33.7257128 C11.904621,40.433188 23.8782464,40.1985466 32.0220556,33.5527952 L17.5541161,19.5006369 Z" id="Fill-25" fill="#1F282C"></path>
                                <path d="M27.774944,3.67894358 C21.0019749,-1.66153012 11.1073271,-1.17817799 4.90527368,5.06682227 C-1.29677971,11.3118225 -1.60702006,21.1036743 3.91443209,27.7044944 L27.774944,3.67894358 Z" id="Fill-20" fill="#1F282C"></path>
                            </g>
                            <path d="M64.4624544,81.8453288 L65.1205588,81.8453288 L67.1868842,90.7006369 L7.26344694,90.7006369 L9.32977236,81.8453288 L10.7379934,81.8453288 L10.7379934,66.6729655 L9.4547918,66.6729655 L8.42162909,60.7694268 L66.2787409,60.7694268 L65.2455782,66.6729655 L64.4624544,66.6729655 L64.4624544,81.8453288 Z" id="Combined-Shape" stroke="none" fill="#1F282C" fill-rule="evenodd"></path>
                            <g id="Page-1" stroke="none" stroke-width="1" fill="none" fill-rule="evenodd" transform="translate(9.079309, 6.349045)" opacity="0.5">
                                <polygon id="Fill-1" fill="#1F282C" points="2.07527055 32.9243312 2.56495091 34.4485549 4.15054111 34.4485549 2.86792069 35.3909355 3.35789097 36.9151592 2.07527055 35.9730717 0.792650139 36.9151592 1.28262042 35.3909355 0 34.4485549 1.58530028 34.4485549"></polygon>
                                <polygon id="Fill-1" fill="#1F282C" points="9.33871749 13.9678981 9.82839785 15.4921218 11.413988 15.4921218 10.1313676 16.4345024 10.6213379 17.9587261 9.33871749 17.0166386 8.05609708 17.9587261 8.54606735 16.4345024 7.26344694 15.4921218 8.84874722 15.4921218"></polygon>
                                <polygon id="Fill-1" fill="#1F282C" points="47.7312227 39.9082803 48.2209031 41.432504 49.8064933 41.432504 48.5238729 42.3748846 49.0138432 43.8991083 47.7312227 42.9570208 46.4486023 43.8991083 46.9385726 42.3748846 45.6559522 41.432504 47.2412525 41.432504"></polygon>
                                <polygon id="Fill-1" fill="#1F282C" points="56.032305 19.9541401 56.5219853 21.4783638 58.1075755 21.4783638 56.8249551 22.4207444 57.3149254 23.9449682 56.032305 23.0028807 54.7496845 23.9449682 55.2396548 22.4207444 53.9570344 21.4783638 55.5423347 21.4783638"></polygon>
                                <polygon id="Fill-1" fill="#1F282C" points="46.6935875 23.9449682 47.428108 26.2313037 49.8064933 26.2313037 47.8825627 27.6448746 48.6175181 29.9312102 46.6935875 28.5180789 44.7696568 29.9312102 45.5046123 27.6448746 43.5806816 26.2313037 45.9586321 26.2313037"></polygon>
                                <polygon id="Fill-1" fill="#1F282C" points="34.2419641 7.98165605 34.9764847 10.2679916 37.35487 10.2679916 35.4309393 11.6815625 36.1658948 13.9678981 34.2419641 12.5547668 32.3180335 13.9678981 33.0529889 11.6815625 31.1290583 10.2679916 33.5070087 10.2679916"></polygon>
                                <polygon id="Fill-1" fill="#1F282C" points="9.33871749 41.9036943 10.3180782 44.9521417 13.4892586 44.9521417 10.9240178 46.8369029 11.9039583 49.8853503 9.33871749 48.0011753 6.77347666 49.8853503 7.75341722 46.8369029 5.18817639 44.9521417 8.35877694 44.9521417"></polygon>
                                <polygon id="Fill-1" fill="#1F282C" points="21.7903408 17.9587261 22.7697015 21.0071735 25.9408819 21.0071735 23.3756411 22.8919348 24.3555816 25.9403822 21.7903408 24.0562072 19.2251 25.9403822 20.2050405 22.8919348 17.6397997 21.0071735 20.8104003 21.0071735"></polygon>
                                <polygon id="Fill-1" fill="#1F282C" points="20.7527055 0 21.4872261 2.28633556 23.8656114 2.28633556 21.9416807 3.69990648 22.6766362 5.98624204 20.7527055 4.57311079 18.8287749 5.98624204 19.5637303 3.69990648 17.6397997 2.28633556 20.0177501 2.28633556"></polygon>
                                <polygon id="Fill-1" fill="#1F282C" points="20.7527055 35.9174522 21.4872261 38.2037878 23.8656114 38.2037878 21.9416807 39.6173587 22.6766362 41.9036943 20.7527055 40.490563 18.8287749 41.9036943 19.5637303 39.6173587 17.6397997 38.2037878 20.0177501 38.2037878"></polygon>
                            </g>
                        </g>
                    </g>
                </g>
            </g>
        </g>
    </g>
</svg>