<?xml version="1.0" encoding="UTF-8"?>
<svg width="64px" height="51px" viewBox="0 0 64 51" version="1.1" xmlns="http://www.w3.org/2000/svg" xmlns:xlink="http://www.w3.org/1999/xlink">
    <!-- Generator: sketchtool 49.2 (51160) - http://www.bohemiancoding.com/sketch -->
    <title>848F67D4-32B8-4C00-A0A5-4267AC9CE72A</title>
    <desc>Created with sketchtool.</desc>
    <defs></defs>
    <g id="agency-rating" stroke="none" stroke-width="1" fill="none" fill-rule="evenodd">
        <g id="calltouch_awards_mainpage" transform="translate(-162.000000, -3789.000000)" fill="#1eb0cd" fill-rule="nonzero">
            <g id="realty" transform="translate(0.000000, 3408.000000)">
                <g id="zagorodnoye" transform="translate(144.000000, 253.000000)">
                    <g id="1" transform="translate(1.000000, 104.000000)">
                        <path d="M38.1319621,24.0824451 C38.2763177,24.1036074 38.4071621,24.1261805 38.5237844,24.1480482 C38.9938289,24.2341083 39.2519622,24.310998 39.2519622,24.310998 C36.7666286,29.1733916 31.9644947,32.2722593 27.2796941,34.3447549 C27.2796941,34.3447549 27.2711608,34.2763301 27.2612052,34.1493563 C27.2505385,34.021677 27.2377385,33.8340378 27.2441385,33.600547 C27.2476941,33.3656454 27.2590719,33.0785434 27.2868052,32.7462951 C27.298183,32.5784074 27.3252052,32.4069927 27.3543608,32.2228806 C27.3842274,32.0394739 27.4190719,31.8454861 27.4603163,31.6430333 C27.4823608,31.5414542 27.5044052,31.4384643 27.5271608,31.3326527 C27.5534719,31.228252 27.5840497,31.1238513 27.6153386,31.0166289 C27.6786275,30.8021841 27.7490275,30.5799799 27.8272497,30.3521323 C27.9019164,30.1207577 28.0021831,29.8964372 28.1060053,29.6629464 C28.2112498,29.4308664 28.3236053,29.1917323 28.449472,28.954009 C28.5824498,28.7212236 28.7253832,28.4856165 28.8782721,28.2493041 C28.9550721,28.1322059 29.0318721,28.0115808 29.1164943,27.8958935 C29.2025388,27.781617 29.2914277,27.6673405 29.383161,27.5537694 C29.4748944,27.4401984 29.568761,27.3266273 29.6654722,27.2137617 C29.7636055,27.1016014 29.8588944,26.9859141 29.9676944,26.8815134 C30.1810278,26.6684794 30.4043167,26.4589726 30.6375612,26.2544036 C30.7520501,26.1500028 30.8750723,26.0568887 30.9988057,25.9658907 C31.122539,25.8741874 31.2462724,25.7853057 31.3707168,25.6992456 C31.4951613,25.6124801 31.6196057,25.5292417 31.7447613,25.4481195 C31.8713391,25.3684082 32.0028947,25.2985725 32.1316058,25.2273261 C32.3904503,25.0869494 32.6485837,24.9564485 32.9045837,24.8365288 C33.1684059,24.7278956 33.4293837,24.6284327 33.6853838,24.5381402 C33.8133838,24.4929939 33.9399616,24.4506693 34.0658283,24.4097555 C34.1938283,24.3730741 34.3218283,24.3413307 34.447695,24.3102926 C34.6994283,24.2489219 34.9454728,24.1953107 35.182984,24.1487537 C35.3010284,24.1233589 35.4204951,24.1078399 35.5385396,24.0937316 C35.656584,24.078918 35.771784,24.0662206 35.8848507,24.0549341 C36.1109841,24.0323609 36.327873,24.0161365 36.5348064,24.0041445 C36.9536508,23.992858 37.3362287,24.0111986 37.6676065,24.0323609 C37.7500954,24.039415 37.8297398,24.0450583 37.907251,24.051407 C37.9847621,24.0605774 38.0601399,24.0718639 38.1319621,24.0824451 Z M19.9751599,39.9915649 C19.8677821,39.5196453 19.7909821,39.0089282 19.7362265,38.4580027 C19.714182,38.1835981 19.7084932,37.9035502 19.7070709,37.6129211 C19.7070709,37.4676066 19.7092043,37.3201758 19.7134709,37.1713342 C19.7177376,37.0217873 19.7234265,36.870124 19.7404932,36.7198716 C19.8030709,36.1167458 19.8905376,35.4769386 20.0775599,34.8378368 C20.1216488,34.6770032 20.1685821,34.5168751 20.2183599,34.3581577 C20.2674266,34.198735 20.3186266,34.0407231 20.3812044,33.887649 C20.5013821,33.5793847 20.6308044,33.2760583 20.76876,32.9783751 C20.8036044,32.904307 20.8377377,32.8302389 20.8725822,32.7568762 C20.9109822,32.6849244 20.9493822,32.6129725 20.9870711,32.5417261 C21.0638711,32.3992332 21.1428044,32.2581511 21.2224489,32.1191853 C21.3852934,31.841959 21.5410267,31.5661436 21.7244934,31.3121958 C21.9029823,31.0554265 22.0843157,30.807122 22.2670713,30.5679879 C22.3132935,30.508028 22.3588046,30.4487735 22.4043157,30.3902245 C22.4526713,30.3330862 22.5010268,30.2766534 22.5486713,30.2202206 C22.6446713,30.1080603 22.7413824,29.9987217 22.8373824,29.8914994 C23.0300936,29.67776 23.2178269,29.4710748 23.4105381,29.2799086 C23.6068048,29.091564 23.800227,28.9130952 23.9879604,28.7452075 C24.081827,28.6619691 24.1749826,28.5808469 24.2652937,28.5011356 C24.3108048,28.4616326 24.3556048,28.422835 24.4004049,28.3847428 C24.4466271,28.3480615 24.4928493,28.3120856 24.5383604,28.2761096 C24.721116,28.1343222 24.8960494,28.0031158 25.0624494,27.8817853 C25.2288494,27.7604547 25.386005,27.6497053 25.5317828,27.549537 C25.6825383,27.4521904 25.8233384,27.3668357 25.9506273,27.2906514 C26.460494,26.9859141 26.7641385,26.8356617 26.7641385,26.8356617 C26.7641385,26.8356617 26.7492051,27.1319341 26.6923162,27.6348916 C26.6645829,27.8867231 26.6261829,28.1886388 26.5771162,28.529352 C26.5351607,28.8764139 26.4853829,29.265095 26.4213829,29.6798763 C26.3524051,30.0904251 26.2933829,30.5468256 26.2137384,31.0152181 C26.1760495,31.2508251 26.1262717,31.484316 26.0871606,31.7326204 C26.0466273,31.979514 26.0018273,32.2299347 25.9513384,32.4817662 C25.9257384,32.6066238 25.8994273,32.7328923 25.872405,32.8605716 C25.8439606,32.98684 25.8233384,33.1194572 25.795605,33.2492527 C25.7429828,33.5095491 25.6846717,33.7712563 25.6185383,34.0329636 C25.5836939,34.1627591 25.5531161,34.2960816 25.5225383,34.430815 C25.4905383,34.564843 25.4571161,34.6981655 25.4215605,34.8321935 C25.3532939,35.1009548 25.2651161,35.3633675 25.1918716,35.6384775 C25.1136494,35.9114713 25.028316,36.1767056 24.9358716,36.4348858 C24.8455605,36.6944768 24.7637827,36.9554787 24.6677827,37.2051939 C24.6208493,37.330757 24.5724938,37.4549092 24.522716,37.5769452 C24.4722271,37.6989812 24.4309826,37.8245442 24.3826271,37.9451694 C24.2887604,38.1878306 24.1899159,38.4248485 24.0875159,38.6548122 C23.9879604,38.8861868 23.8969381,39.116856 23.7966714,39.3376495 C23.7006714,39.5598537 23.5897381,39.7714768 23.5008492,39.9852162 C23.4069825,40.1975447 23.3116936,40.4021137 23.2149825,40.5996286 C23.1659158,40.698386 23.1175602,40.7950272 23.0699158,40.8902576 C23.0251158,40.9868989 22.981738,41.0814239 22.9383602,41.1738326 C22.8501824,41.3586501 22.7627158,41.5357081 22.6766713,41.7035958 C22.6325824,41.7875396 22.5899157,41.8693672 22.5486713,41.9490786 C22.5074268,42.02879 22.4711602,42.1077959 22.4334713,42.1832748 C22.2841379,42.4866013 22.144049,42.7511302 22.0238712,42.969102 C21.9620045,43.0777352 21.9122268,43.1764926 21.8674268,43.2618473 C21.8219156,43.3472019 21.7828045,43.4198592 21.7508045,43.4791137 C21.6839601,43.5969172 21.6484045,43.6604041 21.6484045,43.6604041 C21.6484045,43.6604041 21.4784489,43.4501918 21.2238711,43.0488133 C21.0944489,42.8477714 20.9621822,42.6015832 20.8128489,42.3060162 C20.6670711,42.0118601 20.5056488,41.6683253 20.3627155,41.2817604 C20.2247599,40.8966063 20.0917821,40.4656006 19.9751599,39.9915649 Z M20.0405821,54.5321885 C19.7845821,54.2852949 19.5150709,54.0024254 19.2427153,53.6814636 C19.1026264,53.5213355 18.9788931,53.3492154 18.8480486,53.1693357 C18.7186264,52.9887507 18.5906264,52.7989953 18.4640486,52.5993642 C18.2037819,52.2008073 17.9876041,51.7606312 17.7785374,51.2844793 C17.5637818,50.8097381 17.4066262,50.2947885 17.270804,49.7480955 C17.2373817,49.6119513 17.2060928,49.4743963 17.1769373,49.3375467 C17.1527595,49.1999916 17.1314262,49.0624366 17.1122262,48.9248816 C17.0738262,48.650477 17.0439595,48.3753669 17.021915,48.1023731 C16.9948928,47.8293793 16.9998706,47.5585017 17.0012928,47.2904458 C17.0041373,47.0223899 17.0140928,46.7585664 17.0290262,46.4989754 C17.0716928,45.9812042 17.149204,45.4824791 17.2331151,45.0140866 C17.3340929,44.5463995 17.4514262,44.1090451 17.5694707,43.7097828 C17.693204,43.311226 17.8361374,42.9521721 17.9620041,42.6368537 C18.0267152,42.4795472 18.0864485,42.3328218 18.1483152,42.1987939 C18.2130263,42.0647659 18.2734708,41.9427299 18.3296485,41.8333913 C18.5536486,41.3953315 18.7015597,41.1540811 18.7015597,41.1540811 C18.7015597,41.1540811 18.8352486,41.3692313 19.0364931,41.7508583 C19.1374709,41.9413191 19.2555153,42.1733991 19.3828042,42.4386334 C19.5136487,42.7045731 19.6651154,43.0064887 19.8137376,43.3345045 C20.103871,43.9898308 20.4473377,44.758728 20.7438711,45.5925231 C20.9060044,46.0115368 21.04396,46.4460696 21.1797822,46.8968268 C21.2516045,47.1225581 21.3177378,47.3518165 21.3774711,47.5846019 C21.4379156,47.8180928 21.48556,48.0544052 21.5460045,48.2949502 C21.6014712,48.5354951 21.6484045,48.7746292 21.6875156,49.0109417 C21.7052934,49.1294506 21.7237823,49.2472541 21.7415601,49.3643523 C21.7621823,49.4814504 21.7806712,49.5978431 21.7977379,49.7135304 C21.8318712,49.9456104 21.8588934,50.1748688 21.8788045,50.4013055 C21.8837823,50.4577383 21.888049,50.5141711 21.8930268,50.570604 C21.8987157,50.6270368 21.9051157,50.6827642 21.9115157,50.7384916 C21.9236045,50.8499465 21.9335601,50.9599905 21.9428045,51.0700345 C21.9612934,51.2894171 21.9733823,51.5052727 21.9812046,51.7176012 C21.9833379,51.8234128 21.9911601,51.9278135 21.9975601,52.0315088 C22.0025379,52.1352041 22.0075157,52.2374886 22.0124934,52.3383623 C22.0309823,52.7425625 22.0188934,53.1298327 22.0302712,53.486065 C22.0338268,53.843708 22.0260046,54.1745455 22.0117823,54.4708178 C22.009649,54.764974 22.0011157,55.0238596 21.9897379,55.2397151 C21.9783601,55.4548653 21.964849,55.62628 21.9541823,55.7440835 C21.9420934,55.8618871 21.9385379,55.9246686 21.9385379,55.9246686 C21.9385379,55.9246686 21.8830712,55.8985684 21.7877823,55.8442518 C21.6932045,55.7899352 21.5552489,55.7074022 21.3838711,55.5952419 C21.2124933,55.4830817 21.0076933,55.3398834 20.7787155,55.1642362 C20.5497377,54.9878836 20.2923155,54.7797876 20.0405821,54.5321885 Z M24.9870716,64.8036687 C24.7680493,64.7359493 24.5127604,64.656238 24.2553382,64.5405507 C23.9943604,64.4298012 23.7134714,64.2971841 23.4204936,64.1377614 C23.2747158,64.0573446 23.1211158,63.9734007 22.9746269,63.8774649 C22.828138,63.7815291 22.6795157,63.6785392 22.5294713,63.5684952 C22.3794268,63.4584512 22.2286712,63.3413531 22.0779157,63.21579 C22.0025379,63.1537139 21.9271601,63.0888162 21.8517823,63.0225076 C21.779249,62.9547882 21.7081379,62.8849526 21.6363156,62.8130007 C21.3518711,62.5251933 21.0652933,62.208464 20.8043155,61.854348 C20.551871,61.4974104 20.3257377,61.1256591 20.1244932,60.7496754 C19.9353376,60.3694592 19.7767598,59.9835998 19.637382,59.6062052 C19.5648487,59.4178607 19.5100931,59.2281053 19.4588931,59.0418769 C19.4076931,58.8556486 19.3614709,58.6722419 19.3195153,58.4930677 C19.2775598,58.3138935 19.2398709,58.1389517 19.2071598,57.9689478 C19.1808486,57.7975331 19.1580931,57.6317616 19.1388931,57.4716335 C19.1004931,57.1520826 19.0756042,56.8579265 19.0599597,56.5969246 C19.0478709,56.3352174 19.0542709,56.1052536 19.0585375,55.9162037 C19.0699153,55.5381037 19.093382,55.3215427 19.093382,55.3215427 C19.093382,55.3215427 19.2640487,55.4238272 19.541382,55.6206367 C19.6800487,55.7186888 19.8450265,55.8400193 20.0292043,55.9825122 C20.1209377,56.0537587 20.2176488,56.129943 20.3179155,56.2117706 C20.4217377,56.2928928 20.5305377,56.3782474 20.6414711,56.4692454 C21.0901822,56.8318263 21.5644934,57.274824 22.0729379,57.7756654 C22.1973824,57.9019338 22.3211157,58.0324347 22.4427157,58.1671681 C22.5031602,58.2348875 22.5636046,58.3033123 22.623338,58.3731479 C22.6866269,58.4415727 22.7492046,58.5114084 22.8110713,58.5826548 C23.0606714,58.8662298 23.2939158,59.1702616 23.518627,59.4926342 C23.7540048,59.8114796 23.960227,60.1359684 24.1429826,60.4625734 C24.3356937,60.7849459 24.5120493,61.1052022 24.663516,61.4240477 C24.7367604,61.5848813 24.8164049,61.7393661 24.8896494,61.8924402 C24.9628938,62.0462197 25.0311605,62.1978829 25.0944494,62.3474299 C25.1591605,62.4969769 25.2153383,62.645113 25.2743605,62.7869005 C25.3355161,62.9272772 25.3916939,63.0648322 25.4443161,63.1981548 C25.5495605,63.4640945 25.635605,63.715926 25.712405,63.939541 C25.795605,64.1596291 25.8624495,64.3564386 25.9150717,64.5207992 C26.0210273,64.8495204 26.0686717,65.0484461 26.0686717,65.0484461 C26.0686717,65.0484461 25.8816495,65.0272838 25.5616494,64.955332 C25.4016494,64.919356 25.2082272,64.8699773 24.9870716,64.8036687 Z M31.557028,71.2370112 C31.2967613,71.2638168 30.9227168,71.2856845 30.4633389,71.2617005 C30.2315167,71.253941 29.9925833,71.2193759 29.7308944,71.1763459 C29.4706277,71.131905 29.1947166,71.0712398 28.9074276,70.9901176 C28.6244054,70.9047629 28.3378276,70.7926027 28.0420053,70.6599855 C27.8940942,70.5936769 27.746183,70.5203143 27.5968497,70.4413083 C27.4503608,70.3594807 27.3074274,70.2684828 27.1630719,70.1718415 C27.0194274,70.0744949 26.8793385,69.9736212 26.7435163,69.8685151 C26.6091162,69.763409 26.473294,69.6583028 26.3538273,69.5412047 C26.1099162,69.3112409 25.8830717,69.0721068 25.6747161,68.8322673 C25.5687606,68.7137583 25.4741828,68.5896061 25.3845828,68.4661593 C25.2942716,68.3434179 25.2089383,68.2206765 25.1278716,68.1000513 C25.0468049,67.9794262 24.9700049,67.8609172 24.8981827,67.7445245 C24.8626271,67.6859755 24.8277827,67.6288372 24.7936493,67.5724044 C24.7623605,67.5145607 24.7317827,67.4574225 24.701916,67.4009897 C24.4672493,66.949527 24.2958715,66.5608459 24.1927604,66.280798 C24.094627,65.9979285 24.0505381,65.8300408 24.0505381,65.8300408 C24.0505381,65.8300408 24.2055604,65.856141 24.4665382,65.9210387 C24.7232493,65.9887581 25.1036938,66.0818723 25.5360494,66.2243652 C25.7522272,66.2949062 25.9833384,66.3774392 26.2215606,66.4726696 C26.4647607,66.5657838 26.7214718,66.6666575 26.9781829,66.784461 C27.1068941,66.8430101 27.2356052,66.9057916 27.3650274,66.9721002 C27.4297386,67.0059599 27.4937386,67.040525 27.5591608,67.0750901 C27.6260053,67.1082444 27.6928497,67.1428095 27.7596942,67.1787854 C28.0256497,67.3219837 28.2901831,67.4821119 28.5468943,67.6634023 C28.8064498,67.8425766 29.0603165,68.0231616 29.2885832,68.2185603 C29.4044944,68.3144961 29.5125833,68.4160752 29.6228055,68.5127164 C29.7337388,68.6086522 29.8411166,68.7059988 29.9435166,68.8033455 C30.0459167,68.9006921 30.1447611,68.9994495 30.2393389,69.098207 C30.3339167,69.1969644 30.4220945,69.2978381 30.5145389,69.3895415 C30.6951612,69.5771806 30.8594279,69.7619981 31.007339,69.9390561 C31.0805835,70.0286432 31.1502724,70.1147033 31.2171168,70.1965309 C31.2860946,70.2762423 31.3500946,70.353132 31.4098279,70.4264947 C31.5292946,70.57322 31.6309835,70.7058372 31.7127613,70.817292 C31.7945391,70.9287469 31.8571169,71.0190394 31.8997836,71.0818209 C31.9424502,71.143897 31.9652058,71.1777567 31.9652058,71.1777567 C31.9652058,71.1777567 31.9268058,71.1869271 31.857828,71.1982136 C31.7888502,71.2095002 31.6871613,71.2236084 31.557028,71.2370112 Z M37.3717842,73.9874062 C37.4976509,74.0727608 37.6064509,74.1510614 37.6953398,74.2173699 C37.8731176,74.3506925 37.9719621,74.4367526 37.9719621,74.4367526 C37.9719621,74.4367526 37.8667176,74.4945962 37.6732954,74.5743076 C37.4798731,74.6547244 37.1982731,74.7570089 36.8434286,74.8458906 C36.1408507,75.0151891 35.1417395,75.1019545 34.0750727,74.8000389 C33.9399616,74.7654738 33.8112505,74.7196221 33.6853838,74.6702434 C33.558806,74.6215701 33.4343615,74.5686643 33.3134726,74.5136423 C33.1918726,74.4586203 33.073117,74.4000712 32.957917,74.3401113 C32.842717,74.2808569 32.7296503,74.2187808 32.625117,74.1489451 C32.4132058,74.0128009 32.2148058,73.8717189 32.0320502,73.7313422 C31.9403169,73.6608012 31.8528502,73.5909655 31.7689391,73.5218353 C31.685028,73.4534105 31.6103613,73.378637 31.5371168,73.3095068 C31.2455613,73.0294589 31.0208501,72.776922 30.8693834,72.5956315 C30.7932945,72.5046336 30.7406723,72.4256276 30.7029834,72.3741327 C30.6674278,72.3212269 30.6475167,72.2930105 30.6475167,72.2930105 C30.6475167,72.2930105 30.7712501,72.2725536 30.9838723,72.2549183 C31.1972057,72.2358723 31.5079613,72.2090667 31.870628,72.2076558 C32.2340058,72.2048342 32.6492948,72.2274073 33.1044059,72.2697319 C33.3305393,72.2937159 33.5623615,72.328281 33.7963171,72.3776597 C34.0309838,72.4270385 34.2777394,72.4750064 34.5195172,72.5490745 C35.4844951,72.8467576 36.3264508,73.3038635 36.947962,73.7087691 C37.1008509,73.8145806 37.2466287,73.9006407 37.3717842,73.9874062 Z M33.4791615,35.4769386 C33.4322282,35.5771068 33.3781837,35.6836238 33.3212948,35.7936678 C33.2644059,35.9037118 33.2018282,36.0186937 33.1342726,36.1364973 C33.1172059,36.1661245 33.1001393,36.1957517 33.0823615,36.2260844 C33.0660059,36.2571224 33.0496504,36.2888659 33.0332948,36.3213148 C32.9991615,36.3840963 32.964317,36.448994 32.9287615,36.5145972 C32.8562281,36.6443927 32.7780059,36.7770099 32.6940948,36.9103324 C32.6137392,37.047182 32.5340947,37.1917911 32.4437836,37.3328732 C32.3989836,37.4041197 32.3527614,37.4753661 32.3051169,37.5459071 C32.2809392,37.5811777 32.2560503,37.6164482 32.2318725,37.6524241 C32.2084058,37.6891054 32.1856503,37.7264922 32.1621836,37.7638789 C32.0676058,37.9127205 31.966628,38.0608567 31.8571169,38.2075821 C31.7433391,38.3507804 31.6444946,38.5102031 31.5257391,38.6590447 C31.4681391,38.7345236 31.4076946,38.8092971 31.3451168,38.8833652 L31.2498279,38.9941146 L31.1580946,39.1098019 C31.0336501,39.2635814 30.8999612,39.4145392 30.7563167,39.5626754 C30.6823612,39.6353326 30.6140945,39.7129278 30.5422723,39.7891121 C30.47045,39.8652964 30.3957834,39.9400699 30.3182723,40.0148434 C29.9996944,40.3075887 29.6932055,40.5989232 29.3504499,40.8620412 C29.2636943,40.9276444 29.1833388,40.9953638 29.1008499,41.0616724 C29.018361,41.1279809 28.9344499,41.1928787 28.8498276,41.257071 C28.6820054,41.3854557 28.5049387,41.5074917 28.3349831,41.6295277 C28.0036053,41.8764213 27.6551608,42.1056797 27.3209385,42.3229461 C26.9959607,42.5437395 26.6709829,42.7483085 26.3609384,42.9352423 C26.0551606,43.1235868 25.776405,43.2985286 25.5147161,43.4501918 C25.2565827,43.6025605 25.015516,43.732356 24.8277827,43.8416946 C24.4473382,44.058961 24.2112493,44.1753537 24.2112493,44.1753537 C24.2112493,44.1753537 24.1998715,44.1090451 24.184227,43.9863037 C24.1771159,43.924933 24.1685826,43.8487487 24.1579159,43.759867 C24.1486715,43.6709853 24.1380048,43.5679954 24.1358715,43.4544243 C24.1280493,43.2265767 24.1237826,42.9493505 24.1308937,42.6312104 C24.133027,42.551499 24.133027,42.468966 24.139427,42.3850222 C24.1472493,42.3017838 24.1550715,42.2157237 24.1628937,42.1275474 C24.1806715,41.9511948 24.2020048,41.7656719 24.2276048,41.5723895 C24.2411159,41.4757482 24.2553382,41.3769908 24.2695604,41.2768225 C24.2901826,41.1780651 24.311516,41.0771914 24.3328493,40.9749069 C24.3776493,40.7703379 24.4281382,40.5594202 24.484316,40.34427 C24.5362271,40.1270036 24.6172938,39.9139697 24.6940938,39.6931763 C24.7751605,39.4744991 24.8562271,39.2494732 24.9564938,39.0286797 C25.060316,38.8092971 25.1719605,38.5885037 25.2907161,38.3684156 C25.3511605,38.259077 25.4080494,38.1469168 25.4777383,38.0403998 C25.5467161,37.9338828 25.6171161,37.8273659 25.6896495,37.7215543 C25.8368495,37.5106366 25.9833384,37.2983081 26.153294,37.0993824 C26.3246718,36.9011621 26.5045829,36.7078796 26.6916051,36.5216513 C26.8743607,36.3326013 27.0834274,36.1696515 27.2832497,36.0109342 C27.3842274,35.9326337 27.4852052,35.8564493 27.5868941,35.7837921 C27.6878719,35.7104294 27.7895608,35.6405938 27.8976497,35.5778123 C28.110272,35.4494276 28.3221831,35.3323294 28.5319609,35.2251071 C28.6379165,35.1722013 28.7388943,35.1185901 28.8476943,35.0741493 C28.9557832,35.029003 29.063161,34.985973 29.1691166,34.9457646 C29.3817388,34.8653478 29.5900944,34.7941013 29.7941833,34.7320252 C29.9961389,34.6685383 30.2087611,34.6269191 30.40645,34.5852999 C30.8060945,34.5062939 31.1765835,34.4526827 31.5342724,34.4413962 C31.8876947,34.4251717 32.2055614,34.4286988 32.4878725,34.4456286 C32.7758726,34.4696126 33.0240504,34.5041777 33.2274282,34.5387428 C33.6327615,34.607873 33.8617394,34.6762978 33.8617394,34.6762978 C33.8617394,34.6762978 33.7813838,34.8865101 33.6171171,35.2124097 C33.5765838,35.2935319 33.5296504,35.3817082 33.4791615,35.4769386 Z M25.610005,53.5587222 C25.4336494,53.8288944 25.2814716,54.0736718 25.1364049,54.2909382 C24.9906271,54.5096154 24.8569382,54.7007816 24.7424493,54.8587935 C24.6286715,55.0168054 24.5340938,55.1409577 24.4686715,55.2256069 C24.4039604,55.3088453 24.369116,55.3539916 24.369116,55.3539916 C24.369116,55.3539916 24.3328493,55.3067291 24.2788048,55.2129095 C24.2233382,55.1190899 24.1444048,54.9815349 24.049827,54.8037715 C23.9559604,54.6260081 23.8457381,54.4073309 23.7284048,54.1526778 C23.6238714,53.8959084 23.5129381,53.6024577 23.4048492,53.2779689 C23.288938,52.954891 23.2107158,52.5958371 23.1310714,52.2142101 C23.1125825,52.1189797 23.0940936,52.0216331 23.0756047,51.923581 C23.0578269,51.8248236 23.0407602,51.7253607 23.0315158,51.6237816 C23.0087602,51.4206234 22.9909825,51.2125274 22.9781825,51.0009043 C22.9717825,50.8950927 22.9668047,50.7885758 22.9632491,50.680648 C22.9618269,50.6270368 22.9604047,50.5727202 22.9589825,50.5184036 C22.9604047,50.464087 22.962538,50.4097704 22.9639602,50.3547484 C22.9724936,50.1360712 22.9874269,49.9145723 23.0094713,49.6916627 C23.020138,49.5802078 23.032938,49.468753 23.0478714,49.3565927 C23.0635158,49.2451379 23.0884047,49.1329777 23.1111602,49.0208174 C23.1588047,48.7972023 23.2142714,48.5735873 23.2789825,48.351383 C23.3387158,48.1291787 23.4268936,47.9154394 23.5136492,47.7080487 C23.601827,47.5006581 23.6956937,47.3017324 23.7945381,47.1098608 C23.9993381,46.7275283 24.2404048,46.3783502 24.4786271,46.0623264 C24.9820938,45.4331003 25.5161383,44.9379023 26.0338273,44.5724997 C26.2898273,44.389093 26.5252051,44.2331973 26.748494,44.1069289 C26.9739163,43.9806604 27.1751608,43.8811976 27.3436941,43.8036024 C27.6800497,43.6491176 27.8841386,43.5813982 27.8841386,43.5813982 C27.8841386,43.5813982 27.9204053,43.7866726 27.9488497,44.1287966 C27.9559608,44.2148567 27.9623608,44.3086762 27.9673386,44.4102553 C27.9751608,44.5125398 27.9844053,44.6225838 27.9936497,44.7403874 C28.0121386,44.975289 28.014272,45.2341746 28.020672,45.5156334 C28.0327609,45.7985029 28.0306275,46.0997131 28.014272,46.415737 C28.014272,46.7345825 27.9893831,47.0661253 27.9516942,47.4089548 C27.9388942,47.5810749 27.9196942,47.7553112 27.8940942,47.9323692 C27.8706275,48.1094272 27.8286719,48.2878961 27.8030719,48.4698919 C27.7724942,48.6518878 27.733383,48.8352945 27.6864497,49.0208174 C27.662983,49.1132262 27.6366719,49.2063403 27.6089386,49.3001599 C27.586183,49.3939795 27.5612941,49.4885045 27.5335608,49.5830295 C27.4254719,49.9618348 27.272583,50.330059 27.1346274,50.6877021 C26.9902718,51.0460506 26.8096496,51.3945233 26.6517829,51.7288878 C26.5685829,51.89607 26.4818273,52.0611361 26.3929384,52.2219696 C26.3061829,52.3828032 26.2087606,52.5415205 26.1269828,52.6938891 C25.9570273,53.0000372 25.7813828,53.2899609 25.610005,53.5587222 Z M25.2224494,60.0019404 C25.1278716,59.6548785 25.0532049,59.2944139 25.0062716,58.9283059 C24.9692938,58.55726 24.9721383,58.1932683 24.9927605,57.8476172 C24.9977383,57.7615571 25.0048494,57.6762025 25.0133827,57.5915532 C25.0247605,57.5061986 25.0382716,57.4215494 25.0524938,57.3383109 C25.0816494,57.1718341 25.1150716,57.0095897 25.1520494,56.8529886 C25.2907161,56.2287004 25.5410272,55.6742479 25.7721384,55.2284286 C25.8311606,55.1169737 25.8894717,55.0111622 25.9477828,54.9124047 C26.0096495,54.8122364 26.0708051,54.7191223 26.1291162,54.6323568 C26.2464495,54.4595313 26.3552495,54.3128059 26.4484051,54.1950024 C26.6347162,53.9586899 26.7570274,53.8338323 26.7570274,53.8338323 C26.7570274,53.8338323 26.8565829,53.9763252 27.0002274,54.2281567 C27.0734718,54.3537197 27.1516941,54.5074992 27.2455608,54.6817355 C27.342983,54.8552665 27.4446719,55.0513706 27.5449386,55.2665207 C27.956672,56.1292376 28.3897387,57.2607158 28.539072,58.5558492 C28.5767609,58.880338 28.5988054,59.1998889 28.5931165,59.5208506 C28.5924054,59.6005619 28.5895609,59.6802733 28.5867165,59.7599847 C28.5860054,59.8375798 28.5852943,59.915175 28.5824498,59.9927701 C28.577472,60.1479604 28.5682276,60.3017398 28.5554276,60.4541085 C28.5426276,60.6064771 28.526272,60.7567295 28.507072,60.9055711 C28.4871609,61.0544127 28.475072,61.1954948 28.4544498,61.3365768 C28.4160498,61.6173302 28.3691165,61.8867969 28.3186276,62.1386284 C28.2645831,62.3925761 28.2240498,62.617602 28.1764053,62.8242873 C28.1301831,63.0295617 28.084672,63.2108522 28.0441386,63.3611046 C27.9637831,63.6616094 27.9033386,63.8372565 27.9033386,63.8372565 C27.9033386,63.8372565 27.752583,63.7258017 27.509383,63.5120624 C27.387783,63.40484 27.2427163,63.2722229 27.0827163,63.1142109 C26.9276941,62.952672 26.7634274,62.7629166 26.5899162,62.5512935 C26.5031607,62.4454819 26.4149829,62.3333217 26.326094,62.2155181 C26.2386273,62.0970092 26.1582717,61.9686245 26.0743606,61.8374182 C25.9911606,61.7055064 25.9086717,61.5686568 25.827605,61.4261639 C25.7465384,61.2836711 25.6654717,61.1376511 25.5986272,60.98105 C25.4599605,60.6706695 25.3276939,60.3447699 25.2224494,60.0019404 Z M33.0354281,68.2347847 C33.1008504,68.634047 33.1335615,68.9839305 33.1484948,69.2329404 C33.1570282,69.357798 33.1605837,69.4572609 33.162717,69.5256857 C33.1648504,69.5926996 33.1655615,69.629381 33.1655615,69.629381 C33.1655615,69.629381 33.1278726,69.6195052 33.0631615,69.5948159 C32.9977392,69.5708319 32.9024503,69.5341506 32.7829837,69.483361 C32.6642281,69.4332769 32.5205836,69.3683792 32.3591614,69.2893732 C32.2780947,69.2498702 32.1927614,69.2068402 32.1038725,69.1595777 C32.0171169,69.110199 31.928228,69.0544715 31.8357835,68.9959225 C31.6516057,68.8788244 31.4560502,68.7447964 31.2555168,68.594544 C31.1538279,68.5218867 31.058539,68.4358267 30.9611168,68.3483558 C30.8636945,68.2601795 30.7669834,68.1684761 30.6702723,68.0725403 C30.5742723,67.9766045 30.4782723,67.8764362 30.3844056,67.7727409 C30.2919611,67.6676348 30.2066278,67.5526529 30.1212944,67.4369656 C29.9534722,67.2027694 29.7899166,66.9601082 29.6576499,66.6920523 C29.5282277,66.4218801 29.4236944,66.1510025 29.3412055,65.8857682 C29.3205832,65.8194596 29.3013832,65.7531511 29.2836055,65.6875479 C29.267961,65.6205339 29.2537388,65.5528145 29.2402277,65.486506 C29.2139166,65.3538888 29.1925832,65.2226825 29.1755166,65.0942978 C29.1420943,64.8375284 29.1221832,64.592751 29.1214721,64.3592602 C29.1250277,64.1229477 29.139961,63.9007435 29.1627166,63.6982907 C29.2089388,63.2919743 29.2793388,62.9646639 29.3525832,62.7283515 C29.4222721,62.4948606 29.4763166,62.3636543 29.4763166,62.3636543 C29.4763166,62.3636543 29.5915166,62.4433657 29.7721388,62.5943235 C29.9570278,62.7417543 30.2194278,62.9505557 30.4946278,63.2235495 C30.5287612,63.2581146 30.5636056,63.2926798 30.5991612,63.3286557 C30.6354278,63.3632208 30.6731167,63.3984913 30.7108056,63.4344672 C30.7854723,63.5071245 30.8608501,63.5833088 30.9362279,63.6630202 C31.0116057,63.7427316 31.0862723,63.8266754 31.1602279,63.9141463 C31.2341835,64.0016172 31.3067168,64.0933205 31.384939,64.1829076 C31.5371168,64.3649035 31.6836058,64.5624184 31.819428,64.7768631 C31.8848502,64.8862017 31.9588058,64.9891917 32.024228,65.1013519 C32.0903614,65.2121013 32.1536503,65.3277886 32.2133836,65.4477084 C32.2731169,65.5676282 32.3257392,65.691075 32.3776503,65.8117001 C32.4316947,65.9302091 32.4807614,66.0494234 32.5262725,66.1700486 C32.6180059,66.4105935 32.689117,66.6574872 32.7538281,66.8959159 C32.8228059,67.1301121 32.8775615,67.3628975 32.9230726,67.5886288 C32.9700059,67.8129493 32.9998726,68.0379752 33.0354281,68.2347847 Z M38.1852954,71.7463175 C38.329651,72.0383574 38.4370288,72.2986538 38.5067177,72.4848821 C38.5778288,72.6725213 38.6112511,72.7860923 38.6112511,72.7860923 C38.6112511,72.7860923 38.4910733,72.7832707 38.284851,72.7606976 C38.1817399,72.749411 38.0572954,72.7324811 37.9150732,72.7092026 C37.7735621,72.6845132 37.6121398,72.6591185 37.4457398,72.6076235 C36.7730286,72.4221006 35.8983618,72.0559926 35.2327617,71.3632796 C35.0670728,71.1904541 34.914895,71.0197448 34.7897395,70.8321056 C34.6645839,70.6444665 34.556495,70.4554165 34.4647617,70.2698936 C34.2763172,69.904491 34.1675172,69.5299181 34.0964061,69.2103672 C34.026006,68.8894055 33.9932949,68.622055 33.9840505,68.4266563 C33.9755171,68.2305522 33.9819171,68.1162758 33.9819171,68.1162758 C33.9819171,68.1162758 34.0089394,68.1254461 34.0587172,68.1416705 C34.1077838,68.1593058 34.178895,68.185406 34.2692061,68.2178549 C34.4519617,68.279931 34.7051172,68.3772776 34.9881395,68.5162434 C35.0599617,68.5501031 35.1303617,68.5910169 35.2071617,68.6269929 C35.2839618,68.6636742 35.3614729,68.7024718 35.4404062,68.7447964 C35.5975618,68.8287402 35.7582729,68.9239706 35.9182729,69.0333092 C35.9972063,69.0897421 36.0804063,69.1419424 36.1621841,69.1983753 C36.2439619,69.2548081 36.3250285,69.314768 36.4053841,69.3789603 C36.4857397,69.4431527 36.5653841,69.510872 36.6428953,69.5828239 C36.7196953,69.6561866 36.7964953,69.7302547 36.8747175,69.8050282 C37.4827176,70.4166189 37.8980065,71.1523619 38.1852954,71.7463175 Z M70.7193439,34.3440495 C66.0345433,32.2715539 61.2324094,29.1726862 58.7463647,24.3095872 C58.7463647,24.3095872 59.004498,24.2326975 59.4745425,24.1466374 C59.5918759,24.1254751 59.7234314,24.102902 59.8670759,24.0817397 C59.9388981,24.0711585 60.0142759,24.0591665 60.091787,24.0507016 C60.1685871,24.0443529 60.2489426,24.0380042 60.3314315,24.0316555 C60.6628093,24.0104932 61.0453872,23.9921526 61.4642317,24.0034391 C61.671165,24.0147257 61.8880539,24.0316555 62.1141873,24.0542287 C62.227254,24.0655152 62.3431651,24.0782126 62.4604985,24.0930262 C62.5785429,24.1071344 62.6980096,24.1226535 62.8160541,24.1480482 C63.0535652,24.1938999 63.2996097,24.2475111 63.551343,24.3095872 C63.6772097,24.3406253 63.8052097,24.3723687 63.9332097,24.4090501 C64.0583653,24.4492585 64.1856542,24.4922885 64.3136542,24.5374348 C64.5703654,24.6270219 64.8306321,24.7264847 65.0944543,24.8358233 C65.3504544,24.9557431 65.6085877,25.086244 65.8674322,25.2266207 C65.9961433,25.2978671 66.12841,25.3677027 66.2542767,25.4474141 C66.3794323,25.5285363 66.5038767,25.6124801 66.6283212,25.6985402 C66.7527656,25.7846003 66.8772101,25.873482 67.0002323,25.9651853 C67.1232546,26.0561833 67.2469879,26.1492974 67.3614768,26.2536982 C67.5947213,26.4575618 67.8180102,26.667774 68.0313436,26.880808 C68.1408547,26.9852087 68.2361436,27.100896 68.3335658,27.2130562 C68.430277,27.3259219 68.5241436,27.439493 68.615877,27.553064 C68.7068992,27.6673405 68.7964992,27.7809116 68.8825437,27.8951881 C68.9671659,28.0101699 69.0432548,28.1307951 69.1207659,28.2485986 C69.2736549,28.4856165 69.4165882,28.7205182 69.549566,28.9533036 C69.6754327,29.1910269 69.7877882,29.430161 69.8930327,29.662241 C69.9968549,29.8957318 70.0971216,30.1200523 70.1717883,30.3514269 C70.2507216,30.5799799 70.3211216,30.8014787 70.3836994,31.0159235 C70.4149883,31.1231458 70.444855,31.228252 70.4718772,31.3319473 C70.4946328,31.4370535 70.5166772,31.5407488 70.5387217,31.6423279 C70.5799661,31.8447806 70.6148106,32.0387685 70.6446772,32.2221752 C70.6745439,32.4062873 70.7015661,32.577702 70.7122328,32.7455897 C70.7399661,33.0778379 70.7513439,33.36494 70.7548995,33.5998416 C70.7612995,33.8333324 70.7484995,34.0209716 70.7378328,34.1486509 C70.7278773,34.2763301 70.7193439,34.3440495 70.7193439,34.3440495 Z M71.4226329,28.5314682 C71.3735662,28.190755 71.3351662,27.888134 71.3095662,27.6370079 C71.2533884,27.1347557 71.237744,26.8377779 71.237744,26.8377779 C71.237744,26.8377779 71.5413885,26.9880303 72.0512552,27.2927676 C72.1785441,27.3696573 72.3200552,27.455012 72.4700997,27.5516532 C72.6165886,27.6518215 72.7730331,27.7625709 72.9394331,27.8839015 C73.1058331,28.0052321 73.2807665,28.1364384 73.463522,28.2782259 C73.5090332,28.3142018 73.5545443,28.3501777 73.6014776,28.3868591 C73.6455665,28.4256566 73.6910776,28.4637488 73.7365887,28.5032518 C73.8268999,28.5829632 73.9193443,28.6640853 74.0139221,28.7473238 C74.2016555,28.9152114 74.3950777,29.0936803 74.5913444,29.2820248 C74.7840555,29.473191 74.9710778,29.6798763 75.1645,29.8936156 C75.2605,30.000838 75.3565,30.1101766 75.4532112,30.2223368 C75.5008556,30.2787697 75.5492112,30.3352025 75.5975667,30.3923407 C75.6430779,30.4515952 75.688589,30.5108497 75.7348112,30.5701041 C75.9168557,30.8092382 76.0989001,31.0575427 76.2773891,31.3143121 C76.4615669,31.5682598 76.6173002,31.8440752 76.7794336,32.1213015 C76.859078,32.2602673 76.9380114,32.4013494 77.0148114,32.5438423 C77.0532114,32.6150888 77.0909003,32.6870406 77.1293003,32.7589925 C77.1634336,32.8323551 77.1982781,32.9064232 77.2331225,32.9804913 C77.3689447,33.2781745 77.498367,33.5815009 77.6185448,33.8897653 C77.6811226,34.0428393 77.7323226,34.2008512 77.7813892,34.360274 C77.831167,34.5189913 77.8781004,34.6791195 77.9221893,34.839953 C78.1092115,35.4790548 78.1966782,36.118862 78.259256,36.7219878 C78.2763226,36.8729457 78.2820115,37.0239035 78.2862782,37.1734505 C78.2905449,37.3229975 78.2926782,37.4697228 78.2926782,37.6150374 C78.291256,37.9056664 78.2862782,38.1864197 78.2635226,38.460119 C78.2087671,39.0110445 78.1319671,39.5217616 78.0245893,39.9936811 C77.9086781,40.4677168 77.7749892,40.8987226 77.6370337,41.2838766 C77.4933892,41.6697361 77.331967,42.0139763 77.1869003,42.3081325 C77.0375669,42.6036994 76.9053002,42.8498876 76.775878,43.0509296 C76.5213002,43.4523081 76.3513446,43.6625203 76.3513446,43.6625203 C76.3513446,43.6625203 76.3150779,43.5990334 76.2489446,43.4812299 C76.2176557,43.4219754 76.1778335,43.3493181 76.1323224,43.2639635 C76.0875224,43.1786088 76.0377446,43.0798514 75.9758779,42.9712182 C75.8557001,42.752541 75.7156112,42.4887175 75.5662779,42.1853911 C75.528589,42.1099122 75.4923223,42.0309062 75.4510778,41.9511948 C75.4091223,41.8714835 75.3671667,41.7896559 75.3230778,41.705712 C75.2370334,41.5378244 75.1495667,41.3607664 75.0613889,41.1759488 C75.0187222,41.0828347 74.9746333,40.9883097 74.9298333,40.8923739 C74.8821889,40.7971435 74.8338333,40.7005023 74.7847666,40.6017448 C74.6880555,40.4042299 74.5927666,40.1989555 74.4988999,39.9873324 C74.410011,39.7742985 74.2997888,39.5619699 74.2030777,39.3397657 C74.1020999,39.1189722 74.0110777,38.8890085 73.9122332,38.6569285 C73.8098332,38.4269647 73.7109887,38.1906522 73.6171221,37.9472856 C73.5687665,37.8259551 73.527522,37.7010974 73.4770331,37.5790614 C73.4272554,37.45632 73.3788998,37.3328732 73.3319665,37.2073102 C73.2359665,36.9575949 73.1541887,36.6965931 73.0638775,36.4370021 C72.9714331,36.1781165 72.8860997,35.9128822 72.8078775,35.6405938 C72.7353442,35.3654837 72.6471664,35.1030711 72.5781886,34.8343097 C72.542633,34.7009872 72.5084997,34.5669592 72.4772108,34.4329312 C72.4459219,34.2981979 72.4160552,34.1648753 72.3812108,34.0350798 C72.3150774,33.7733726 72.2567663,33.5123707 72.2041441,33.2513689 C72.1771219,33.1215734 72.1557885,32.9889562 72.1273441,32.8626878 C72.101033,32.7350085 72.0747219,32.6087401 72.0484107,32.4838824 C71.9979219,32.2320509 71.9531218,31.9816303 71.9125885,31.7347366 C71.8734774,31.4864322 71.8236996,31.2529414 71.7860107,31.0173343 C71.7063663,30.5489418 71.647344,30.0925413 71.5783662,29.6819925 C71.5143662,29.2672112 71.4645885,28.8785301 71.4226329,28.5314682 Z M80.9991674,47.2911512 C80.9998785,47.5585017 81.0048563,47.8293793 80.9785452,48.1044894 C80.9565007,48.3774832 80.9266341,48.6518878 80.8882341,48.9269978 C80.868323,49.0645529 80.8477007,49.2021079 80.8235229,49.3396629 C80.7943674,49.4765125 80.7630785,49.6133621 80.7296563,49.7502117 C80.593834,50.2961993 80.4373896,50.8111489 80.2219229,51.2865955 C80.0128562,51.7627475 79.7966784,52.2036289 79.5364117,52.6014804 C79.4098339,52.8011115 79.2818339,52.9908669 79.1524116,53.171452 C79.0208561,53.352037 78.8978338,53.5241571 78.7577449,53.6835799 C78.4846782,54.0038362 78.2151671,54.2867057 77.959167,54.5335994 C77.7074337,54.7811984 77.4493003,54.9899999 77.2210336,55.165647 C76.9920558,55.3412942 76.7872558,55.4837871 76.615878,55.5966528 C76.4445002,55.708813 76.3072557,55.791346 76.2119668,55.8456626 C76.1166779,55.8999792 76.0612112,55.9260794 76.0612112,55.9260794 C76.0612112,55.9260794 76.0576557,55.8632979 76.0455668,55.7454943 C76.0349001,55.6283962 76.021389,55.4569815 76.0100112,55.2411259 C75.9986335,55.0259758 75.989389,54.7663848 75.9879668,54.4722287 C75.9737446,54.1752509 75.9659223,53.8444134 75.9694779,53.4874758 C75.9808557,53.1312436 75.9687668,52.7439733 75.9872557,52.3397731 C75.9922335,52.2388995 75.9972112,52.136615 76.002189,52.0329196 C76.0093001,51.9299297 76.0164112,51.825529 76.0185446,51.719012 C76.0263668,51.5073889 76.0384557,51.2908279 76.0569446,51.0714453 C76.0654779,50.9621067 76.0761446,50.8513573 76.0882335,50.7399025 C76.0939224,50.684175 76.1003224,50.6284476 76.1067224,50.5720148 C76.1117001,50.515582 76.1159668,50.4591491 76.1209446,50.4027163 C76.1415668,50.1762796 76.1678779,49.9470212 76.2020113,49.7149412 C76.2190779,49.5992539 76.2375668,49.4828612 76.258189,49.3657631 C76.2759668,49.248665 76.2937446,49.1308614 76.3122335,49.0123525 C76.3513446,48.77604 76.398278,48.5369059 76.4537446,48.296361 C76.5141891,48.0551106 76.5618335,47.8187982 76.622278,47.5860128 C76.6820113,47.3532273 76.7481447,47.123969 76.8199669,46.8982377 C76.9557891,46.4474804 77.0937447,46.0129477 77.2558781,45.5939339 C77.5517003,44.7601389 77.895167,43.9912416 78.1860115,43.3359154 C78.3346338,43.0078995 78.4868115,42.7059839 78.6169449,42.4400442 C78.7442338,42.1748099 78.8622783,41.9427299 78.9632561,41.7522691 C79.1652116,41.3706421 79.2981894,41.1554919 79.2981894,41.1554919 C79.2981894,41.1554919 79.4461006,41.3960369 79.6708117,41.8340967 C79.7269895,41.9441407 79.7874339,42.0654713 79.852145,42.1994993 C79.9140117,42.3335272 79.9737451,42.4802526 80.0384562,42.6375591 C80.1636118,42.9528775 80.3072562,43.3119314 80.4309896,43.7104883 C80.549034,44.1104559 80.6670785,44.5471049 80.7673452,45.014792 C80.8512563,45.4831845 80.9280563,45.9812042 80.9714341,46.4996808 C80.9870785,46.7592718 80.996323,47.0238007 80.9991674,47.2911512 Z M78.905656,55.3222481 C78.905656,55.3222481 78.9298338,55.5388091 78.9397894,55.9197307 C78.944056,56.1080753 78.9511672,56.3387445 78.9383672,56.6004517 C78.9227227,56.8614535 78.8978338,57.1556096 78.8594338,57.4751605 C78.8402338,57.6345833 78.8174783,57.8010601 78.7911671,57.9724748 C78.7577449,58.1424787 78.7207671,58.3174205 78.6788116,58.4965947 C78.6375671,58.675769 78.5906338,58.8591757 78.5394338,59.045404 C78.4889449,59.2323377 78.4334782,59.4213877 78.3609449,59.6097323 C78.2215671,59.9878322 78.0622782,60.3729863 77.8738337,60.7532025 C77.6725892,61.1284808 77.4464559,61.5009374 77.1940114,61.8578751 C76.9330336,62.2112857 76.6464558,62.5287203 76.3620113,62.8165278 C76.2901891,62.8884796 76.2190779,62.9583152 76.1465446,63.0260346 C76.0711668,63.0923432 75.995789,63.1565356 75.9204112,63.2193171 C75.7696557,63.3441747 75.6189001,63.4619782 75.4688556,63.5720223 C75.3188112,63.6820663 75.1701889,63.7850562 75.0237,63.880992 C74.8772111,63.9769278 74.7229,64.0608716 74.5778333,64.1412884 C74.2841444,64.3007112 74.0039665,64.4333283 73.7429887,64.5440777 C73.4862776,64.656238 73.2309887,64.7366548 73.0119664,64.8043741 C72.791522,64.8706827 72.5973886,64.9200614 72.4373886,64.9560374 C72.1166774,65.0279892 71.9303663,65.0491515 71.9303663,65.0491515 C71.9303663,65.0491515 71.9787219,64.8502258 72.0839663,64.5215046 C72.1372996,64.357144 72.2041441,64.1610399 72.286633,63.9402465 C72.3641441,63.7166314 72.4501886,63.4647999 72.555433,63.1988602 C72.6073442,63.0655376 72.6635219,62.9279826 72.7246775,62.7876059 C72.7836997,62.6458185 72.8398775,62.4969769 72.9045886,62.3481353 C72.9685886,62.1985883 73.0361442,62.0469251 73.1093887,61.8931456 C73.1826331,61.7400716 73.2622776,61.5855867 73.335522,61.4247531 C73.4862776,61.1059076 73.6633443,60.7849459 73.8560554,60.4632788 C74.038811,60.1366738 74.2457444,59.8114796 74.4804111,59.4933396 C74.7051222,59.1716724 74.9383667,58.8669352 75.1879667,58.5833602 C75.2498334,58.5121138 75.3124112,58.4422781 75.3757001,58.3738533 C75.4354334,58.3040177 75.4951667,58.2355929 75.5563223,58.1678735 C75.6779223,58.0324347 75.8016557,57.9026392 75.9261001,57.7763708 C76.4345446,57.2755294 76.9088558,56.8318263 77.357567,56.4699508 C77.4685003,56.3789528 77.5773003,56.2935982 77.6811226,56.212476 C77.7813892,56.1313538 77.8781004,56.0544641 77.9698337,55.9832176 C78.1533004,55.8407247 78.3189893,55.7193942 78.457656,55.6213421 C78.7349894,55.425238 78.905656,55.3222481 78.905656,55.3222481 Z M72.4629886,66.2250706 C72.8953442,66.0825777 73.2757887,65.9887581 73.5317887,65.923155 C73.7927665,65.8582572 73.9477888,65.832157 73.9477888,65.832157 C73.9477888,65.832157 73.9036999,65.9993393 73.8055665,66.2829143 C73.7024554,66.5629622 73.5310776,66.9516433 73.2964109,67.4031059 C73.2665442,67.4588333 73.2359665,67.5159716 73.2046776,67.5745206 C73.1705442,67.6309534 73.1356998,67.6880917 73.1001442,67.7466407 C73.028322,67.8630335 72.951522,67.9815424 72.8704553,68.1021676 C72.7893886,68.2227927 72.7040553,68.3448287 72.6137442,68.4682755 C72.5241441,68.5917224 72.4295664,68.7158746 72.3236108,68.8343835 C72.1152552,69.0749284 71.8884107,69.3133571 71.6444996,69.5433209 C71.5250329,69.6597136 71.3899218,69.7648198 71.2548107,69.8706313 C71.1189884,69.9757375 70.9788995,70.0773166 70.835255,70.1739578 C70.6908995,70.270599 70.5479661,70.3615969 70.4014772,70.4434245 C70.2521439,70.5224305 70.1035216,70.5950878 69.9563216,70.6621017 C69.6612105,70.7954243 69.3739215,70.9068791 69.0908993,70.9922338 C68.8036103,71.073356 68.5276992,71.1340213 68.2674325,71.1784621 C68.0057436,71.2214922 67.7668102,71.2560573 67.534988,71.2638168 C67.0770324,71.2856845 66.7022768,71.2645222 66.4420101,71.2377166 C66.3118767,71.2243138 66.2101878,71.2102056 66.14121,71.198919 C66.0722322,71.1876325 66.0338322,71.1784621 66.0338322,71.1784621 C66.0338322,71.1784621 66.0565878,71.1446024 66.0992545,71.0825263 C66.14121,71.0204502 66.2044989,70.9294523 66.2862767,70.8179974 C66.3687656,70.7065426 66.4697434,70.5739255 66.5892101,70.4272001 C66.6489434,70.3538374 66.7136545,70.2769477 66.7819212,70.1972363 C66.8487657,70.1154087 66.9191657,70.0293487 66.991699,69.9397615 C67.1396101,69.7627035 67.3038768,69.577886 67.4844991,69.3902469 C67.5769435,69.2978381 67.6644102,69.1969644 67.7596991,69.0989124 C67.8542769,69.0001549 67.9531214,68.9021029 68.0555214,68.8040509 C68.1579214,68.7059988 68.2652992,68.6093576 68.3762325,68.5134218 C68.4864548,68.4167806 68.5945437,68.3152015 68.7104548,68.2192657 C68.9394326,68.023867 69.1925882,67.843282 69.4521438,67.6641077 C69.7088549,67.4821119 69.9726772,67.3219837 70.2393439,67.1794908 C70.3061883,67.1442203 70.3730328,67.1096552 70.4398772,67.0757955 C70.5052994,67.0412304 70.5700106,67.0066653 70.6340106,66.9728056 C70.7627217,66.906497 70.8921439,66.8437155 71.0208551,66.7851664 C71.2775662,66.6666575 71.5349885,66.5657838 71.7774774,66.473375 C72.0156996,66.3781447 72.2468108,66.296317 72.4629886,66.2250706 Z M66.1276989,72.2076558 C66.4903656,72.2097721 66.8011212,72.2358723 67.0137435,72.2549183 C67.2270768,72.2725536 67.3500991,72.2930105 67.3500991,72.2930105 C67.3500991,72.2930105 67.3308991,72.3212269 67.2946324,72.3741327 C67.2569435,72.4256276 67.2036101,72.5046336 67.1282324,72.5956315 C66.9760546,72.7776274 66.7513434,73.0294589 66.4604989,73.3095068 C66.3872545,73.378637 66.3125878,73.4534105 66.2286767,73.5218353 C66.1454767,73.5909655 66.05801,73.6615066 65.9662767,73.7313422 C65.7835211,73.8717189 65.5851211,74.0128009 65.3732099,74.1489451 C65.2686766,74.2187808 65.156321,74.2801515 65.0404099,74.3401113 C64.9244988,74.4000712 64.8064543,74.4586203 64.6848543,74.5136423 C64.5632543,74.5686643 64.4395209,74.6215701 64.3129431,74.6702434 C64.1863653,74.7196221 64.0583653,74.7661792 63.9232542,74.8000389 C62.8565874,75.1019545 61.856765,75.0144836 61.1548983,74.8458906 C60.8000538,74.7570089 60.5184538,74.654019 60.3250315,74.5743076 C60.1316093,74.4938908 60.0263648,74.4367526 60.0263648,74.4367526 C60.0263648,74.4367526 60.1252093,74.3506925 60.3029871,74.2173699 C60.391876,74.1510614 60.500676,74.0727608 60.6265427,73.9874062 C60.7516982,73.9013461 60.897476,73.8145806 61.0503649,73.7087691 C61.6725872,73.3038635 62.5138318,72.8467576 63.4788097,72.5490745 C63.7205875,72.4750064 63.9680542,72.4270385 64.2020098,72.3776597 C64.4366765,72.328281 64.6684987,72.2937159 64.893921,72.2697319 C65.3490321,72.2274073 65.7643211,72.2048342 66.1276989,72.2076558 Z M69.1492104,41.2563656 C69.0645882,41.1921733 68.980677,41.1272755 68.8960548,41.0595561 C68.8135659,40.9932476 68.7332103,40.9248228 68.6464548,40.859925 C68.3036992,40.5968069 67.9979214,40.3054725 67.6786324,40.0127272 C67.6011213,39.9386591 67.5264546,39.8631802 67.4546324,39.7869958 C67.3835213,39.7108115 67.3145435,39.6332164 67.2405879,39.5605591 C67.0969435,39.4124229 66.9632546,39.2614651 66.8388101,39.1076857 L66.7470768,38.9919984 L66.6517879,38.881249 C66.5892101,38.8071809 66.5294767,38.7324074 66.4711656,38.6569285 C66.3531212,38.5080869 66.2535656,38.3486641 66.1397878,38.2054658 C66.0302767,38.0587405 65.9292989,37.9106043 65.8347211,37.7617627 C65.8112544,37.724376 65.7877878,37.6876946 65.7650322,37.6503079 C65.7401433,37.614332 65.7159655,37.5790614 65.6917877,37.5437909 C65.6441433,37.4725445 65.5979211,37.4020034 65.5531211,37.330757 C65.463521,37.1896749 65.3838766,37.0450658 65.3028099,36.9082162 C65.2188988,36.7748936 65.1406766,36.6429819 65.0681432,36.512481 C65.0325877,36.4468778 64.9977432,36.3826855 64.9636099,36.3191985 C64.9472543,36.2874551 64.9308988,36.2557116 64.9145432,36.2239681 C64.8967654,36.1936355 64.8796988,36.1640083 64.8626321,36.134381 C64.7950765,36.0165775 64.7332098,35.9015956 64.6756098,35.7915516 C64.6180098,35.6815076 64.5660987,35.575696 64.5191654,35.4762332 C64.4686765,35.3810028 64.4217431,35.2935319 64.3812098,35.2117043 C64.2169431,34.8858047 64.1365875,34.6755924 64.1365875,34.6755924 C64.1365875,34.6755924 64.3655654,34.6071676 64.7716098,34.5380374 C64.9742765,34.5034723 65.2224543,34.4696126 65.5111655,34.4449232 C65.7934766,34.4279934 66.1113433,34.4244663 66.4647656,34.4406908 C66.8224545,34.4526827 67.1929435,34.5055885 67.592588,34.5845945 C67.7902769,34.6262137 68.002188,34.6678329 68.2048547,34.7313198 C68.4089436,34.7933959 68.6172992,34.8646424 68.8299215,34.9450592 C68.9365881,34.985973 69.0432548,35.0282976 69.1513437,35.0734438 C69.2601437,35.1178847 69.3611215,35.1714959 69.4670771,35.2244017 C69.6768549,35.331624 69.888766,35.4487222 70.1013883,35.5771068 C70.2094772,35.6398884 70.3111661,35.709724 70.4121439,35.7830867 C70.5131217,35.8557439 70.6148106,35.9319282 70.7157884,36.0102288 C70.9156106,36.1689461 71.1253884,36.3318959 71.3074329,36.5209459 C71.4944551,36.7071742 71.6743663,36.9004567 71.8457441,37.098677 C72.0156996,37.2983081 72.1621885,37.5106366 72.3093886,37.7208489 C72.3819219,37.8266605 72.4523219,37.9331774 72.5212997,38.0396944 C72.5902775,38.1462114 72.6471664,38.2583716 72.7083219,38.3677102 C72.8270775,38.5877982 72.938722,38.8085917 73.0425442,39.0279743 C73.1428109,39.2487677 73.2238776,39.4737937 73.3049442,39.6924709 C73.3817442,39.9132643 73.4628109,40.1262982 73.514722,40.3435646 C73.5708998,40.5594202 73.6213887,40.7696325 73.6661887,40.9742015 C73.6875221,41.076486 73.7088554,41.1773597 73.7294776,41.2761171 C73.7436998,41.3762854 73.7579221,41.4750428 73.7714332,41.5716841 C73.7977443,41.7649665 73.8190776,41.9504894 73.8361443,42.126842 C73.8439665,42.2150183 73.8517888,42.3003729 73.859611,42.3843168 C73.8652999,42.4682606 73.866011,42.5507936 73.8681443,42.630505 C73.8752554,42.9486451 73.8709888,43.2258713 73.8631665,43.4537189 C73.8610332,43.5665845 73.8510776,43.6695745 73.8411221,43.7591616 C73.8304554,43.8480433 73.8219221,43.9235222 73.814811,43.9855983 C73.7991665,44.1090451 73.7877887,44.1746483 73.7877887,44.1746483 C73.7877887,44.1746483 73.5516998,44.058961 73.1712553,43.8409892 C72.983522,43.7316506 72.7417442,43.6018551 72.4843219,43.4494864 C72.222633,43.2978232 71.9438774,43.1228814 71.6380996,42.9345369 C71.3280551,42.7476031 71.0030773,42.5430341 70.6780995,42.3222407 C70.3438772,42.1049743 69.9954327,41.8764213 69.6640549,41.6288223 C69.4940993,41.5067863 69.3170326,41.3847503 69.1492104,41.2563656 Z M73.5324998,55.2270177 C73.4670776,55.1430739 73.3724998,55.0189217 73.2608553,54.8616152 C73.1470776,54.7043087 73.0126775,54.512437 72.8668997,54.2937598 C72.7204108,54.0750826 72.568233,53.8295998 72.3918775,53.5601331 C72.2204997,53.2913717 72.0448552,53.0007426 71.8748996,52.6953 C71.7938329,52.5429313 71.6956996,52.384214 71.608944,52.2233804 C71.5200551,52.0625469 71.4332996,51.8974809 71.3500996,51.7302986 C71.1922329,51.3952287 71.0116106,51.046756 70.867255,50.6891129 C70.7292995,50.3314699 70.5764106,49.9632457 70.4683217,49.5844403 C70.4405883,49.4899153 70.4156994,49.3953903 70.3929439,49.3015707 C70.3652105,49.2084566 70.3388994,49.114637 70.3154328,49.0222282 C70.2677883,48.8367053 70.2293883,48.6532986 70.1988105,48.4713027 C70.1732105,48.2893069 70.131255,48.1108381 70.1077883,47.9337801 C70.0814772,47.7574275 70.0629883,47.5824857 70.0501883,47.4103656 C70.0117883,47.0675361 69.9876105,46.7359933 69.9876105,46.4171478 C69.9712549,46.1018294 69.9691216,45.7999137 69.9812105,45.5170442 C69.9876105,45.2355854 69.9897438,44.9766998 70.0082327,44.7417982 C70.0174772,44.6247001 70.0260105,44.5139506 70.0345438,44.4116661 C70.0395216,44.3100871 70.0459216,44.2155621 70.0530327,44.1302074 C70.0814772,43.7880834 70.1177438,43.582809 70.1177438,43.582809 C70.1177438,43.582809 70.3218328,43.6505284 70.6581884,43.8050132 C70.8260106,43.8826084 71.0272551,43.9827766 71.2533884,44.1083397 C71.4766773,44.2346081 71.7120552,44.3905038 71.9680552,44.5739105 C72.4857441,44.9393131 73.0197886,45.4345112 73.5232554,46.0637372 C73.7614776,46.3804665 74.0025443,46.7289392 74.2073444,47.1112716 C74.3061888,47.3031432 74.4000555,47.5027743 74.4882333,47.7094596 C74.5749888,47.9161448 74.6631666,48.1305895 74.7229,48.3527938 C74.7876111,48.5742927 74.8430778,48.7986132 74.8907222,49.0222282 C74.9134778,49.1343885 74.9383667,49.2458433 74.9540111,49.3580036 C74.9689444,49.4701638 74.9817444,49.5816187 74.9924111,49.6930735 C75.0144556,49.9159832 75.0293889,50.137482 75.0379222,50.3561592 C75.0393445,50.4111812 75.0414778,50.4654978 75.0429,50.5198144 C75.0414778,50.574131 75.0400556,50.6284476 75.0386333,50.6820588 C75.0343667,50.7892812 75.0293889,50.8965036 75.0229889,51.0023151 C75.0101889,51.2146436 74.9917,51.4220343 74.9696556,51.6251925 C74.9604111,51.7267715 74.9440556,51.8269398 74.9255667,51.9249919 C74.9070778,52.0230439 74.8885889,52.1196851 74.8701,52.2156209 C74.7904555,52.5972479 74.7122333,52.9563018 74.5963222,53.2793797 C74.4882333,53.6038685 74.3772999,53.8973192 74.2727666,54.1540886 C74.1561443,54.4087417 74.0459221,54.6274189 73.9513443,54.8051823 C73.8567665,54.9836512 73.7778332,55.1212062 73.7223665,55.2143203 C73.6683221,55.3074345 73.6320554,55.3554024 73.6320554,55.3554024 C73.6320554,55.3554024 73.5972109,55.3102562 73.5324998,55.2270177 Z M69.4180104,59.9920647 C69.4158771,59.9144696 69.4144549,59.8368744 69.4130326,59.7578685 C69.4101882,59.6788625 69.4073438,59.5984457 69.4066326,59.5187343 C69.4016549,59.198478 69.4229882,58.8782217 69.4606771,58.553733 C69.6100104,57.2578942 70.0430772,56.1271213 70.4548106,55.2644045 C70.5550772,55.0485489 70.6574772,54.8531502 70.7541884,54.6796193 C70.848055,54.5053829 70.9262773,54.3516035 70.9995217,54.2260404 C71.1431662,53.9742089 71.2427218,53.831716 71.2427218,53.831716 C71.2427218,53.831716 71.365744,53.9565737 71.551344,54.1928862 C71.6444996,54.3106897 71.7532996,54.457415 71.8706329,54.6302406 C71.9296552,54.717006 71.9900996,54.8101202 72.0519663,54.9102885 C72.1102774,55.0090459 72.1685885,55.1148575 72.2276108,55.2263123 C72.459433,55.6721317 72.7090331,56.2265842 72.8476997,56.8508724 C72.8853886,57.0074735 72.9188109,57.1697179 72.9472553,57.3361947 C72.9614775,57.4194331 72.9742775,57.5040824 72.9863664,57.589437 C72.9948998,57.6733809 73.0012998,57.7587355 73.0069886,57.845501 C73.0276109,58.1911521 73.0297442,58.5551438 72.9934775,58.9261896 C72.9465442,59.2937084 72.8718775,59.6541731 72.7772997,60.001235 C72.6720553,60.3440645 72.5397886,60.669964 72.4011219,60.9803446 C72.3342775,61.1369457 72.2532108,61.2836711 72.1721441,61.4254585 C72.0910774,61.567246 72.0085885,61.704801 71.9253885,61.8367128 C71.8414774,61.9679191 71.7604107,62.0963038 71.6736551,62.2148127 C71.5847662,62.3326163 71.4965885,62.4447765 71.4098329,62.5505881 C71.2363218,62.7629166 71.0727662,62.952672 70.9177439,63.1135055 C70.7570328,63.2715174 70.6126772,63.4041346 70.4910772,63.511357 C70.2478772,63.7258017 70.0971216,63.8365511 70.0971216,63.8365511 C70.0971216,63.8365511 70.0366772,63.660904 69.9563216,63.3603991 C69.9157883,63.2101467 69.8702771,63.0288563 69.8240549,62.8235819 C69.7756994,62.6168966 69.7358771,62.3918707 69.6818327,62.137923 C69.6313438,61.8860915 69.5844104,61.6166247 69.5460104,61.3358714 C69.5253882,61.1947894 69.5125882,61.0537073 69.4933882,60.9048657 C69.4741882,60.7567295 69.4578327,60.6057717 69.4450326,60.4534031 C69.4322326,60.3010344 69.4229882,60.147255 69.4180104,59.9920647 Z M68.5227214,62.3643597 C68.5227214,62.3643597 68.5767659,62.495566 68.6443214,62.7297623 C68.718277,62.9660748 68.7879659,63.2933852 68.8341881,63.6997015 C68.8569437,63.9021543 68.8725881,64.1236532 68.8754326,64.360671 C68.8747215,64.5941619 68.8548104,64.8382338 68.8213881,65.0957086 C68.8043215,65.2240933 68.7829881,65.3545942 68.756677,65.4879168 C68.7431659,65.5542254 68.7296548,65.6219447 68.7132992,65.6889587 C68.6955214,65.7545619 68.6763214,65.8208705 68.6556992,65.887179 C68.5732103,66.1524133 68.468677,66.4232909 68.3392547,66.6934631 C68.2069881,66.961519 68.0434325,67.2041802 67.8756102,67.4383764 C67.7902769,67.5540637 67.7049435,67.6690456 67.6124991,67.7741517 C67.5186324,67.8778471 67.4233435,67.9780153 67.3266324,68.0739511 C67.2299213,68.169887 67.1332101,68.2622957 67.0357879,68.3497666 C66.9383657,68.4365321 66.8430768,68.5225921 66.7413879,68.5959548 C66.5415656,68.7462072 66.34601,68.8795298 66.1611211,68.9973333 C66.0686767,69.0558824 65.9804989,69.1116098 65.8930322,69.1609885 C65.8034322,69.2075456 65.71881,69.251281 65.6377433,69.290784 C65.476321,69.36979 65.3333877,69.4339823 65.213921,69.4847719 C65.0944543,69.534856 64.9991654,69.5722427 64.9337432,69.5962267 C64.8690321,69.6216215 64.8313432,69.6307918 64.8313432,69.6307918 C64.8313432,69.6307918 64.8320543,69.5948159 64.8341876,69.5270965 C64.836321,69.4586717 64.8398765,69.3592088 64.8484099,69.2343512 C64.8654765,68.9846359 64.8981876,68.6347524 64.9636099,68.2354901 C64.9991654,68.0386806 65.0290321,67.8129493 65.0759654,67.5893342 C65.1214766,67.3636029 65.1769432,67.1308175 65.2452099,66.8966213 C65.309921,66.6574872 65.3817433,66.4105935 65.4727655,66.170754 C65.5175655,66.0501288 65.5673433,65.9309145 65.6213877,65.8124055 C65.6725877,65.691075 65.7259211,65.5676282 65.7856544,65.4484138 C65.8446766,65.328494 65.9079655,65.2128067 65.97481,65.1020573 C66.0409433,64.9898971 66.1141878,64.8869072 66.17961,64.7775686 C66.3147212,64.5631238 66.4612101,64.3656089 66.614099,64.183613 C66.6923212,64.0940259 66.7655657,64.003028 66.8388101,63.9148517 C66.9127657,63.8273808 66.9874323,63.743437 67.0628101,63.6637256 C67.1381879,63.5840142 67.2135657,63.5078299 67.2882324,63.4351726 C67.3259213,63.3991967 67.3636102,63.3639262 67.3998768,63.3293611 C67.4354324,63.2933852 67.4702768,63.2588201 67.5044102,63.2242549 C67.7796102,62.9512611 68.0412991,62.7424597 68.2268992,62.5950289 C68.4075214,62.4447765 68.5227214,62.3643597 68.5227214,62.3643597 Z M60.5540093,72.6083289 C60.3868982,72.6598239 60.225476,72.6852186 60.0839648,72.7106134 C59.9417426,72.7345974 59.8172981,72.7508218 59.714187,72.7621084 C59.5079648,72.7846815 59.387787,72.7875032 59.387787,72.7875032 C59.387787,72.7875032 59.4219203,72.6732267 59.4923203,72.4862929 C59.5627203,72.2986538 59.6700981,72.0383574 59.8144537,71.7470229 C60.1017426,71.1523619 60.5170315,70.4173244 61.1250316,69.8057336 C61.2032539,69.7309601 61.280765,69.656892 61.3568539,69.5835293 C61.4350761,69.5115775 61.5140094,69.4438581 61.594365,69.3796657 C61.6740095,69.3161788 61.7557873,69.2555135 61.837565,69.1990807 C61.9200539,69.1426478 62.0025428,69.0904475 62.0814762,69.0340146 C62.2414762,68.9253814 62.4021873,68.8294456 62.5593429,68.7455018 C62.6382763,68.7031772 62.7164985,68.6643796 62.7925874,68.6276983 C62.8693874,68.5910169 62.9404985,68.5508085 63.0116096,68.5169489 C63.2946319,68.377983 63.5477875,68.2813418 63.7305431,68.2185603 C63.8208542,68.1861114 63.8919653,68.1600112 63.941032,68.142376 C63.9908098,68.1254461 64.017832,68.1169812 64.017832,68.1169812 C64.017832,68.1169812 64.024232,68.2312577 64.0156986,68.4273617 C64.0064542,68.6227604 63.9737431,68.8901109 63.9033431,69.2110726 C63.832232,69.5306235 63.7227208,69.9051964 63.5349875,70.270599 C63.442543,70.4561219 63.3351652,70.6451719 63.2100097,70.8328111 C63.0855652,71.0204502 62.9326763,71.1911595 62.7669874,71.3639851 C62.1013873,72.056698 61.2267205,72.422806 60.5540093,72.6083289 Z" id="wreath"></path>
                    </g>
                </g>
            </g>
        </g>
    </g>
</svg>